<svg width="58" height="105" viewBox="0 0 58 105" fill="none" xmlns="http://www.w3.org/2000/svg">
<path d="M14.5378 56.3785C14.5378 56.3785 14.0835 59.1775 15.4536 59.0397C15.4536 59.0397 17.664 58.5699 19.638 59.151C20.8142 59.4972 20.3517 56.3836 20.4922 55.4398C20.6071 54.6698 20.1143 53.7561 19.9185 53.0272C19.2442 50.5184 19.3873 48.7577 18.9658 46.2137C18.5495 43.6999 18.3003 41.0752 17.1369 38.7461C16.8503 38.1723 16.5406 37.5615 16.0668 37.0866C14.7526 35.7688 10.8502 37.2112 11.0866 38.9655C11.3229 40.7203 11.8244 42.4487 12.9201 43.8682C14.0158 45.2882 14.5378 49.2685 14.5378 56.3785Z" fill="#2E2F42"/>
<path d="M21.8715 34.3675C26.0006 33.9041 26.7092 34.7471 27.2542 37.4196C27.7993 40.0922 27.0471 41.6007 27.0471 43.2711C27.0471 46.216 25.8411 48.6728 26.8958 51.537C27.8485 54.1238 28.1443 57.929 28.0997 58.6442C28.0551 59.359 25.734 59.0812 25.2428 58.6442C24.7516 58.2072 23.8143 58.0088 22.5196 58.1675C21.2249 58.3263 21.1803 57.9294 21.3142 55.8248C21.4987 52.925 21.9689 50.6589 21.6295 47.7345C21.2762 44.6902 20.2246 42.1015 19.4642 39.1781C19.216 38.2243 19.2355 37.156 19.3704 36.1867C19.3704 36.1867 19.6165 34.6202 21.871 34.3675H21.8715Z" fill="#2E2F42"/>
<path d="M11.9649 62.5087C11.4968 61.9905 12.3664 60.8579 12.7899 60.3972C13.1549 60.0004 13.8405 59.7007 14.4378 59.7705C16.559 60.0186 16.559 60.6148 17.7311 60.1678C18.9033 59.7207 20.0759 60.118 20.1872 60.8132C20.2989 61.5084 20.4661 62.6009 21.4152 63.1473C22.3642 63.6938 21.5269 68.0637 21.4152 68.3123C21.3034 68.5604 19.015 68.908 17.8983 67.5177C16.7821 66.1273 16.5585 65.1836 16.1678 64.7365C15.6761 64.1746 15.0967 63.702 14.3876 63.3658C13.6887 63.0347 12.8217 62.9831 12.15 62.646C12.0731 62.6072 12.0121 62.5612 11.9644 62.5087H11.9649Z" fill="#2E2F42"/>
<path d="M19.5744 69.5261C18.975 69.8221 18.7074 70.5315 18.3116 70.9935C17.7245 71.6796 17.06 72.315 16.3268 72.8792C15.9525 73.1671 15.4818 73.3555 15.0936 73.6314C14.9629 73.7245 14.6157 73.9124 14.6368 74.0903C14.6696 74.3754 15.6679 74.3303 15.9099 74.4005C16.9138 74.692 17.9147 75.0679 18.8069 75.5742C19.2524 75.8273 19.6734 76.1152 20.0436 76.4523C21.5808 77.8545 24.2009 75.4136 24.5275 73.9174C24.8546 72.4217 22.1602 72.1161 21.4864 70.5684C21.2434 70.0105 20.5779 69.2292 19.8077 69.4381C19.7247 69.4604 19.6472 69.4905 19.5749 69.5261H19.5744Z" fill="#2E2F42"/>
<path d="M25.1946 72.2356C25.1946 72.2356 24.3834 72.336 24.828 72.8829C25.273 73.4298 25.2833 74.8156 24.9443 75.2608C24.6054 75.706 26.0519 76.0773 26.7748 76.0773C27.4978 76.0773 32.8467 76.5531 34.6295 70.6847C34.6295 70.6847 35.4022 67.8826 33.203 68.0943C31.0044 68.3059 31.0546 68.6202 29.8605 68.0828C29.8605 68.0828 29.0452 67.9063 29.3072 68.5422C29.5692 69.1776 30.2681 70.3435 28.9575 70.9913C27.647 71.639 26.5836 72.3155 25.1935 72.2361L25.1946 72.2356Z" fill="#2E2F42"/>
<path d="M21.1998 59.7604C21.1998 59.7604 20.924 60.7129 21.5756 61.6092C22.2279 62.5055 22.6427 63.8243 22.5832 64.5098C22.5237 65.1954 22.0494 68.232 22.2868 69.1922C22.5237 70.1529 22.9575 71.233 24.2993 71.4319C25.6406 71.6308 27.7172 71.0059 28.4838 70.011C29.2503 69.0166 28.292 67.3398 28.2284 66.516C28.1643 65.6917 27.9731 64.5555 28.2925 63.9301C28.612 63.3047 28.612 61.9125 28.1966 61.3159C27.7813 60.7192 28.8673 60.4633 28.4202 60.0656C27.9731 59.6678 25.8903 60.3498 24.5521 59.2983C23.2139 58.2469 21.1998 59.7609 21.1998 59.7609V59.7604Z" fill="#2E2F42"/>
<path d="M29.2508 60.6011C29.2508 60.6011 29.5723 60.9108 30.0748 60.769C30.5773 60.6266 31.3079 59.8954 31.7873 60.2207C32.2668 60.5459 33.1118 61.4194 33.6142 61.6835C34.1167 61.9477 34.6172 63.5095 34.5766 64.1518C34.5361 64.7936 33.8496 67.0223 33.5665 67.202C33.2835 67.3818 31.5658 67.7439 30.8649 67.634C30.164 67.5241 29.0309 67.3749 28.8273 66.1278C28.6243 64.8807 28.9565 64.5587 29.1539 63.8963C29.2237 63.6628 29.561 62.579 29.1483 61.8637C28.736 61.1485 28.9437 60.4574 29.2503 60.6016L29.2508 60.6011Z" fill="#2E2F42"/>
<path d="M18.5105 81.4786C17.745 80.0458 17.4389 78.6354 19.7447 78.9944C21.5264 79.2717 22.6006 78.4475 24.1768 78.0602C25.9903 77.615 27.7675 79.0947 29.5692 78.2217C31.3161 77.375 32.6995 74.4562 33.646 75.524C34.5925 76.5918 32.9651 78.9916 32.2652 80.3592C28.6253 87.4701 29.6328 100.085 29.4626 104.57H21.1234C21.2306 104.57 21.1337 88.2843 21.1214 88.1374C21.0029 86.6992 20.7963 85.1606 20.039 83.8939C19.7754 83.4528 19.035 82.4606 18.511 81.4786H18.5105Z" fill="#2E2F42"/>
<path d="M11.0953 104.57C11.6101 101.482 11.2188 82.8712 11.5367 81.3609C11.8541 79.8506 11.0953 76.9134 11.0953 76.9134C11.0953 76.9134 11.5162 74.9369 12.5268 75.5956C13.5375 76.2543 14.1266 76.6662 15.9791 76.9134C17.8316 77.1607 18.5895 77.1607 17.7475 78.4785C16.9056 79.7963 15.3054 79.6316 15.3054 81.3609C15.3054 81.3609 15.1598 100.249 15.4243 103.535L11.0953 104.57Z" fill="#2E2F42"/>
<path d="M9.15764 59.1957C9.15764 59.1957 10.0057 62.3929 10.8133 61.8181C11.0563 61.2256 11.3814 60.6353 11.787 60.1176C12.3592 59.3882 13.7533 59.1601 13.8743 58.1803C14.1538 55.9169 12.9047 53.4236 12.3505 51.2455C11.7916 49.0487 12.8745 50.9189 12.0074 47.1137C11.4768 44.7846 10.5292 41.3941 9.16943 40.1136C7.80965 38.8328 3.96001 40.3823 4.2574 42.1294C4.55479 43.8764 5.11675 45.5902 6.26118 46.9791C7.40612 48.3681 8.17626 50.2994 9.15764 59.1957Z" fill="#2E2F42"/>
<path d="M0.485706 27.0035C0.485706 27.0035 1.81113 28.6155 1.54604 30.5496C1.28096 32.4836 2.07622 34.9555 2.40745 35.8687C2.73868 36.7819 1.60347 38.6759 2.80533 39.7373C4.00719 40.7983 5.78793 37.7494 8.10756 38.7165C8.10756 38.7165 7.64353 36.1912 6.71548 34.8479C5.78742 33.5045 5.65513 29.6897 5.78741 29.3139C5.92021 28.9376 6.78162 26.4657 6.0525 25.5525C5.32339 24.6393 3.9313 25.3376 3.13605 25.7678C2.34079 26.1975 0.219594 25.1766 0.484679 27.0035H0.485706Z" fill="#2E2F42"/>
<path d="M2.85352 24.4176C2.85352 24.4176 0.602602 25.5246 0.186259 25.105C-0.230085 24.6853 1.08201 23.5372 1.24301 22.5916C1.40401 21.646 1.52451 18.8092 0.720021 18.0922C-0.0844655 17.3751 -0.277256 16.3967 0.462625 15.8753C0.978953 15.5108 1.3553 15.8703 1.86496 16.0226C2.68329 16.2671 3.54316 15.9227 4.35226 15.8078C4.74553 15.7521 5.74742 15.5975 5.66743 16.2014C5.50592 17.4253 5.12034 18.6519 5.27006 19.893C5.41619 21.1064 6.24734 22.0903 6.60523 23.2462C6.71034 23.5856 6.86263 24.1544 6.39193 24.3533C5.38645 24.777 3.94566 23.9322 2.85404 24.4185L2.85352 24.4176Z" fill="#2E2F42"/>
<path d="M2.8684 14.8859C2.8684 14.8859 1.33223 15.0018 1.04664 14.4225C0.761041 13.8431 1.86804 11.9031 1.95777 11.6135C2.04699 11.3238 1.86856 8.19648 3.54726 8.31234C5.22597 8.42821 5.08342 10.3974 5.08342 11.0921C5.08342 11.7868 6.012 13.7273 4.72605 14.3933C3.4401 15.0592 3.72211 14.9064 2.8684 14.8854V14.8859Z" fill="#2E2F42"/>
<path d="M21.2726 18.5999C21.2726 18.5999 18.7392 19.462 18.3577 19.0565C17.9767 18.6509 19.277 17.3965 19.4688 16.4181C19.6606 15.4392 19.8898 12.5249 19.1499 11.837C18.41 11.1491 18.2649 10.1579 18.993 9.57952C19.7211 9.00112 19.9574 9.81991 20.9599 9.69127C21.9617 9.56264 24.106 8.66357 23.9542 9.60643C23.8025 10.5493 22.9042 11.1665 23.4743 14.0274C23.8784 16.0536 25.2971 17.4248 24.3188 17.9188C23.341 18.4128 22.336 18.0374 21.2731 18.6003L21.2726 18.5999Z" fill="#2E2F42"/>
<path d="M21.3767 8.1568C21.3767 8.1568 19.9041 8.36434 19.6544 7.79325C19.4047 7.22215 20.5415 5.18727 20.6384 4.88804C20.7353 4.5888 20.6912 1.42404 22.2909 1.4432C23.8907 1.46236 23.6748 3.46987 23.6466 4.17553C23.6184 4.88119 24.428 6.79656 23.1718 7.54829C21.9161 8.30003 22.1915 8.12806 21.3767 8.1568Z" fill="#2E2F42"/>
<path d="M35.1555 6.5767C35.1555 6.5767 33.5127 6.69256 33.2071 6.11325C32.9015 5.53394 34.086 3.59394 34.1813 3.30429C34.2767 3.01463 34.086 -0.112722 35.8816 0.00313987C37.6772 0.119002 37.5244 2.08819 37.5244 2.78291C37.5244 3.47762 39.0939 5.45366 37.7182 6.11964C36.3425 6.78561 36.0682 6.59677 35.1555 6.57624V6.5767Z" fill="#2E2F42"/>
<path d="M54.4735 31.809C54.4735 31.809 52.9091 31.8131 52.6666 31.2452C52.4246 30.6773 53.7033 28.917 53.8172 28.6493C53.931 28.3815 54.0043 25.4088 55.6948 25.6341C57.3853 25.8595 57.0807 27.7132 57.0238 28.371C56.9674 29.0288 58.2923 30.9998 56.9361 31.5417C55.5799 32.0836 55.3354 31.8875 54.4735 31.809Z" fill="#2E2F42"/>
<path d="M31.4074 28.7952C31.2474 29.827 30.8793 30.8443 30.1533 31.8405C29.7754 32.3587 29.1898 32.881 29.5498 33.4981C29.8836 34.0701 30.7357 34.1285 31.4166 33.9383C33.1246 33.4616 34.8504 33.5976 35.4975 34.0423C36.1446 34.4866 37.0998 34.7434 37.2337 33.6674C37.3675 32.5913 36.5763 31.1052 36.2169 29.0557C35.8575 27.0062 36.2169 23.7785 36.7922 22.7025C37.3675 21.6269 38.0863 18.8092 36.0015 18.8088C34.8602 18.8088 33.6142 18.531 32.5016 18.8165C30.9813 19.2074 30.949 20.3551 30.9982 21.475C31.05 22.6464 31.2654 23.8104 31.3695 24.9791C31.4797 26.2162 31.5992 27.56 31.4074 28.7952Z" fill="#2E2F42"/>
<path d="M32.1888 9.64246C32.1888 9.64246 33.2281 12.4761 32.8503 13.8545C32.4724 15.233 30.9506 15.9556 32.1888 17.158C33.4271 18.3604 35.8282 17.7213 37.0537 17.683C38.2791 17.6447 38.3735 16.0016 37.6192 15.4282C36.865 14.8549 36.6291 11.3393 36.9593 10.7281C37.2895 10.1169 38.4206 8.93224 37.8079 8.20605C37.1952 7.47986 32.5847 7.22807 32.3867 8.43549L32.1888 9.64292V9.64246Z" fill="#2E2F42"/>
<path d="M40.0009 56.2709C40.0009 56.2709 37.1649 56.7115 37.6469 57.9855C38.1289 59.2591 38.8031 59.9132 38.7965 60.7375C38.7898 61.5617 40.0276 62.1493 40.427 62.6392C40.8269 63.1291 41.1479 63.7663 42.7999 62.9927C44.452 62.2191 44.5812 61.138 44.5812 60.0209C44.5812 58.9038 45.1693 58.1484 45.9533 57.1604C46.7373 56.1723 49.3789 50.2702 50.3013 49.3009C51.2237 48.3316 52.2492 47.2496 51.839 46.1489C51.4288 45.0483 49.4563 44.0105 47.4059 45.3338C45.3554 46.6571 45.7236 46.7109 45.4195 48.0497C45.1155 49.389 42.3175 55.1852 40.0004 56.2713L40.0009 56.2709Z" fill="#2E2F42"/>
<path d="M47.3197 43.7058C47.2105 43.6233 47.1208 43.5101 47.0577 43.3569C46.4881 41.9729 48.6457 40.7673 49.4127 39.8149C50.4156 38.5691 50.9017 37.0711 51.0427 35.5572C51.1294 34.6248 50.9458 32.9813 52.1436 32.5302C52.8876 32.2501 53.8018 32.7213 54.5514 32.7724C55.2949 32.8235 56.6598 32.7117 56.8556 33.5802C57.0684 34.5245 55.5312 35.5449 55.0903 36.3066C54.3555 37.5752 54.3437 38.8259 54.0884 40.1875C53.8541 41.4397 54.0812 42.7534 53.7295 43.9412C53.3777 45.129 52.7866 45.3931 51.3786 44.4566C50.5992 43.9385 50.3398 43.8075 49.3758 43.8212C48.7113 43.8308 47.8145 44.0789 47.3208 43.7054L47.3197 43.7058Z" fill="#2E2F42"/>
<path d="M25.6365 31.5577C25.3863 30.4775 25.1171 29.4316 25.0269 28.3414C24.85 26.2011 24.4085 24.0171 24.6598 21.8376C24.7393 21.1493 25.1971 20.3323 24.3434 19.8547C23.7297 19.5108 22.8216 19.8789 22.1479 20.0956C21.3844 20.341 20.4917 20.1923 19.7124 20.3921C18.8766 20.6065 18.8858 21.0932 19.0581 21.558C19.778 23.5007 20.4999 25.4717 20.5881 27.5385C20.6255 28.4175 20.502 29.3111 20.2902 30.2029C19.6185 33.0319 18.9648 34.4296 23.0867 32.5192C23.8507 32.1653 26.1549 33.7951 25.6371 31.5572L25.6365 31.5577Z" fill="#2E2F42"/>
<path d="M11.6357 22.7736C11.6357 22.7736 9.66269 23.258 9.26121 22.8188C8.85974 22.379 10.0795 21.1328 10.2139 20.1229C10.3487 19.113 10.4097 16.0897 9.63603 15.3402C8.86179 14.5908 8.66131 13.5526 9.35145 12.9837C10.0416 12.4149 10.3231 13.278 11.3111 13.1899C12.2992 13.1019 13.8877 11.8516 14.0374 12.8204C14.2727 14.3467 13.6231 15.3512 14.0558 17.8175C14.1963 18.619 15.832 21.8221 14.889 22.2914C13.9461 22.7608 12.6596 22.2367 11.6362 22.7741L11.6357 22.7736Z" fill="#2E2F42"/>
<path d="M11.668 11.8329C11.668 11.8329 10.2175 11.9839 9.93649 11.3722C9.65551 10.7605 10.6666 8.67453 10.7456 8.36435C10.8246 8.05417 10.5979 4.72702 12.1874 4.82008C13.7774 4.91359 13.679 7.01278 13.6918 7.75311C13.7046 8.49344 14.6193 10.5429 13.4154 11.275C12.2115 12.0072 12.4751 11.8393 11.668 11.8324V11.8329Z" fill="#2E2F42"/>
<path d="M16.4021 34.9706C16.3698 33.9064 15.7961 32.8896 15.6602 31.8318C15.3936 29.7554 14.8624 27.622 15.0193 25.531C15.0685 24.8705 15.4889 24.106 14.6209 23.5988C13.9964 23.2339 13.1103 23.5409 12.4505 23.7142C11.7029 23.9103 10.8102 23.7187 10.0442 23.8706C9.22327 24.033 9.25301 24.5038 9.44375 24.9618C10.2416 26.8767 11.042 28.8185 11.2173 30.8196C11.2922 31.6703 11.2265 32.5315 11.0348 33.3772C10.66 35.0321 10.6682 37.0465 13.9102 35.7638C14.6573 35.4682 16.4462 36.4371 16.4021 34.971V34.9706Z" fill="#2E2F42"/>
<path d="M30.1835 53.0692C30.0215 54.5425 30.1635 55.9917 29.4995 57.3675C29.0478 58.303 28.7637 59.2764 29.8348 59.4224C30.6075 59.5278 31.8104 58.1612 32.3862 59.2048C32.7046 59.7823 33.9691 61.0855 34.5792 60.4054C35.1894 59.7253 36.0174 57.7985 36.7184 57.9117C36.7184 57.9117 36.6548 56.0985 36.2723 54.3984C35.3909 50.4778 35.0781 46.2662 35.7057 42.2781C36.0231 40.261 36.8732 35.767 35.6647 35.4806C34.3172 35.1612 31.7832 34.1294 30.886 35.2247C29.1667 37.3225 30.0261 40.6337 30.4101 43.1101C30.9583 46.6452 30.5752 49.5144 30.184 53.0683L30.1835 53.0692Z" fill="#2E2F42"/>
<path d="M37.9592 61.4468C37.7551 61.0153 38.1125 59.5401 37.3721 59.0406C36.6322 58.5411 36.2492 59.8124 36.2492 60.2663C36.2492 60.7202 34.9597 61.4463 34.9586 61.4468C34.6669 61.611 34.9145 62.1128 34.9853 62.3217C35.1207 62.7208 34.9304 64.045 35.7277 63.8653C36.2364 63.7508 36.7799 63.2331 37.2244 62.9785C37.511 62.8139 37.8643 62.6716 38.0848 62.433C38.4145 62.0758 38.1371 61.8245 37.9587 61.4473L37.9592 61.4468Z" fill="#2E2F42"/>
<path d="M39.4677 63.4411C38.9488 63.0711 38.697 62.8764 38.1033 63.2513C37.7418 63.4794 37.4777 63.8033 37.1362 64.0514C36.4456 64.5527 35.8267 64.8342 35.6062 65.6575C35.415 66.3718 35.4837 67.1788 34.972 67.7982C34.3967 68.4943 35.7539 68.7475 35.7539 68.7475C38.7242 68.586 40.2291 67.0479 40.8556 65.8847C41.2048 65.2365 40.8987 64.5682 40.389 64.0692C40.1368 63.822 39.8102 63.6651 39.5112 63.4707C39.4974 63.4616 39.483 63.4516 39.4682 63.4411H39.4677Z" fill="#2E2F42"/>
<path d="M18.1131 68.9732C18.0875 68.8647 18.0393 68.757 17.9624 68.6498C17.5112 68.0203 16.5508 67.8347 16.3375 67.0214C15.9976 65.7259 12.5243 62.9886 12.0521 63.6099C11.4168 64.4464 10.8707 65.299 10.5841 66.2879C10.3354 67.145 10.198 68.0646 10.3575 68.945C10.5482 69.9973 11.2014 70.8854 11.8024 71.784C12.0603 72.1695 12.2977 72.6138 12.6714 72.9239C13.0745 73.2588 13.5728 73.4814 14.0856 73.2656C14.6347 73.0348 15.0767 72.6284 15.5423 72.2904C16.1704 71.8337 16.7328 71.3096 17.2189 70.7322C17.6245 70.2505 18.2618 69.6064 18.1131 68.9737V68.9732Z" fill="#2E2F42"/>
</svg>
