<svg width="58" height="113" viewBox="0 0 58 113" fill="none" xmlns="http://www.w3.org/2000/svg">
<path d="M14.5378 60.6917C14.5378 60.6917 14.0835 63.7047 15.4536 63.5565C15.4536 63.5565 17.664 63.0507 19.638 63.6763C20.8142 64.049 20.3517 60.6971 20.4922 59.6811C20.6071 58.8522 20.1143 57.8687 19.9185 57.084C19.2442 54.3832 19.3873 52.4878 18.9658 49.7492C18.5495 47.0431 18.3003 44.2176 17.1369 41.7103C16.8503 41.0926 16.5406 40.4351 16.0668 39.9239C14.7526 38.5053 10.8502 40.058 11.0866 41.9465C11.3229 43.8356 11.8244 45.6961 12.9201 47.2243C14.0158 48.7529 14.5378 53.0378 14.5378 60.6917Z" fill="#2E2F42"/>
<path d="M21.8715 36.9968C26.0006 36.4979 26.7092 37.4053 27.2542 40.2824C27.7993 43.1594 27.0471 44.7833 27.0471 46.5815C27.0471 49.7517 25.8411 52.3965 26.8958 55.4797C27.8485 58.2645 28.1443 62.3608 28.0997 63.1307C28.0551 63.9002 25.734 63.6011 25.2428 63.1307C24.7516 62.6603 23.8143 62.4467 22.5196 62.6176C21.2249 62.7885 21.1803 62.3612 21.3142 60.0956C21.4987 56.974 21.9689 54.5345 21.6295 51.3864C21.2762 48.1091 20.2246 45.3225 19.4642 42.1754C19.216 41.1486 19.2355 39.9985 19.3704 38.9551C19.3704 38.9551 19.6165 37.2688 21.871 36.9968H21.8715Z" fill="#2E2F42"/>
<path d="M11.9649 67.2909C11.4968 66.733 12.3664 65.5138 12.7899 65.0178C13.1549 64.5906 13.8405 64.268 14.4378 64.3431C16.559 64.6102 16.559 65.252 17.7311 64.7708C18.9033 64.2896 20.0759 64.7173 20.1872 65.4656C20.2989 66.214 20.4661 67.39 21.4152 67.9783C22.3642 68.5666 21.5269 73.2708 21.4152 73.5384C21.3034 73.8056 19.015 74.1797 17.8983 72.683C16.7821 71.1863 16.5585 70.1703 16.1678 69.6891C15.6761 69.0842 15.0967 68.5754 14.3876 68.2135C13.6887 67.857 12.8217 67.8015 12.15 67.4387C12.0731 67.3969 12.0121 67.3473 11.9644 67.2909H11.9649Z" fill="#2E2F42"/>
<path d="M19.5744 74.8451C18.975 75.1638 18.7074 75.9274 18.3116 76.4248C17.7245 77.1633 17.06 77.8474 16.3268 78.4548C15.9525 78.7646 15.4818 78.9674 15.0936 79.2645C14.9629 79.3647 14.6157 79.567 14.6368 79.7585C14.6696 80.0654 15.6679 80.0168 15.9099 80.0924C16.9138 80.4062 17.9147 80.8108 18.8069 81.3559C19.2524 81.6284 19.6734 81.9383 20.0436 82.3011C21.5808 83.8106 24.2009 81.183 24.5275 79.5724C24.8546 77.9623 22.1602 77.6333 21.4864 75.9671C21.2434 75.3666 20.5779 74.5254 19.8077 74.7503C19.7247 74.7744 19.6472 74.8068 19.5749 74.8451H19.5744Z" fill="#2E2F42"/>
<path d="M25.1946 77.7619C25.1946 77.7619 24.3834 77.8699 24.828 78.4587C25.273 79.0475 25.2833 80.5393 24.9443 81.0185C24.6054 81.4978 26.0519 81.8975 26.7748 81.8975C27.4978 81.8975 32.8467 82.4097 34.6295 76.0924C34.6295 76.0924 35.4022 73.0759 33.203 73.3037C31.0044 73.5316 31.0546 73.8699 29.8605 73.2914C29.8605 73.2914 29.0452 73.1014 29.3072 73.7859C29.5692 74.4699 30.2681 75.7251 28.9575 76.4223C27.647 77.1196 26.5836 77.8478 25.1935 77.7624L25.1946 77.7619Z" fill="#2E2F42"/>
<path d="M21.1998 64.3323C21.1998 64.3323 20.924 65.3576 21.5756 66.3225C22.2279 67.2874 22.6427 68.707 22.5832 69.4451C22.5237 70.1831 22.0494 73.452 22.2868 74.4857C22.5237 75.5198 22.9575 76.6826 24.2993 76.8967C25.6406 77.1108 27.7172 76.4381 28.4838 75.3671C29.2503 74.2966 28.292 72.4915 28.2284 71.6047C28.1643 70.7174 27.9731 69.4942 28.2925 68.821C28.612 68.1477 28.612 66.6491 28.1966 66.0068C27.7813 65.3645 28.8673 65.089 28.4202 64.6608C27.9731 64.2326 25.8903 64.9667 24.5521 63.8349C23.2139 62.703 21.1998 64.3328 21.1998 64.3328V64.3323Z" fill="#2E2F42"/>
<path d="M29.2508 65.2373C29.2508 65.2373 29.5723 65.5707 30.0748 65.418C30.5773 65.2648 31.3079 64.4777 31.7873 64.8278C32.2668 65.1779 33.1118 66.1182 33.6142 66.4026C34.1167 66.6869 34.6172 68.3682 34.5766 69.0596C34.5361 69.7505 33.8496 72.1498 33.5665 72.3432C33.2835 72.5367 31.5658 72.9266 30.8649 72.8082C30.164 72.6899 29.0309 72.5293 28.8273 71.1868C28.6243 69.8443 28.9565 69.4976 29.1539 68.7846C29.2237 68.5332 29.561 67.3665 29.1483 66.5965C28.736 65.8266 28.9437 65.0826 29.2503 65.2378L29.2508 65.2373Z" fill="#2E2F42"/>
<path d="M18.5105 87.712C17.745 86.1696 17.4389 84.6513 19.7447 85.0377C21.5264 85.3363 22.6006 84.449 24.1768 84.0321C25.9903 83.5528 27.7675 85.1458 29.5692 84.2059C31.3161 83.2945 32.6995 80.1523 33.646 81.3019C34.5925 82.4514 32.9651 85.0348 32.2652 86.5069C28.6253 94.1619 29.6328 107.742 29.4626 112.57H21.1234C21.2306 112.57 21.1337 95.0384 21.1214 94.8803C21.0029 93.332 20.7963 91.6757 20.039 90.3121C19.7754 89.8372 19.035 88.7692 18.511 87.712H18.5105Z" fill="#2E2F42"/>
<path d="M11.0953 112.57C11.6101 109.246 11.2188 89.2111 11.5367 87.5853C11.8541 85.9594 11.0953 82.7976 11.0953 82.7976C11.0953 82.7976 11.5162 80.6699 12.5268 81.379C13.5375 82.088 14.1266 82.5314 15.9791 82.7976C17.8316 83.0637 18.5895 83.0637 17.7475 84.4824C16.9056 85.901 15.3054 85.7237 15.3054 87.5853C15.3054 87.5853 15.1598 107.918 15.4243 111.456L11.0953 112.57Z" fill="#2E2F42"/>
<path d="M9.15764 63.7244C9.15764 63.7244 10.0057 67.1661 10.8133 66.5474C11.0563 65.9095 11.3814 65.2741 11.787 64.7168C12.3592 63.9316 13.7533 63.6861 13.8743 62.6313C14.1538 60.1948 12.9047 57.5107 12.3505 55.166C11.7916 52.8011 12.8745 54.8144 12.0074 50.7181C11.4768 48.2108 10.5292 44.5609 9.16943 43.1825C7.80965 41.8036 3.96001 43.4717 4.2574 45.3524C4.55479 47.2331 5.11675 49.078 6.26118 50.5732C7.40612 52.0684 8.17626 54.1475 9.15764 63.7244Z" fill="#2E2F42"/>
<path d="M0.485706 29.0693C0.485706 29.0693 1.81113 30.8047 1.54604 32.8867C1.28096 34.9688 2.07622 37.6297 2.40745 38.6128C2.73868 39.5959 1.60347 41.6347 2.80533 42.7774C4.00719 43.9195 5.78793 40.6374 8.10756 41.6784C8.10756 41.6784 7.64353 38.96 6.71548 37.5138C5.78742 36.0677 5.65513 31.9611 5.78741 31.5565C5.92021 31.1514 6.78162 28.4904 6.0525 27.5073C5.32339 26.5243 3.9313 27.276 3.13605 27.7391C2.34079 28.2017 0.219594 27.1027 0.484679 29.0693H0.485706Z" fill="#2E2F42"/>
<path d="M2.85352 26.2856C2.85352 26.2856 0.602602 27.4774 0.186259 27.0256C-0.230085 26.5738 1.08201 25.3379 1.24301 24.3199C1.40401 23.302 1.52451 20.2482 0.720021 19.4763C-0.0844655 18.7044 -0.277256 17.6511 0.462625 17.0898C0.978953 16.6975 1.3553 17.0844 1.86496 17.2484C2.68329 17.5116 3.54316 17.1409 4.35226 17.0171C4.74553 16.9572 5.74742 16.7907 5.66743 17.4409C5.50592 18.7584 5.12034 20.0788 5.27006 21.4149C5.41619 22.7211 6.24734 23.7803 6.60523 25.0246C6.71034 25.3899 6.86263 26.0023 6.39193 26.2164C5.38645 26.6725 3.94566 25.7631 2.85404 26.2866L2.85352 26.2856Z" fill="#2E2F42"/>
<path d="M2.8684 16.0247C2.8684 16.0247 1.33223 16.1494 1.04664 15.5258C0.761041 14.9022 1.86804 12.8138 1.95777 12.502C2.04699 12.1901 1.86856 8.82354 3.54726 8.94827C5.22597 9.07299 5.08342 11.1928 5.08342 11.9407C5.08342 12.6886 6.012 14.7775 4.72605 15.4944C3.4401 16.2113 3.72211 16.0468 2.8684 16.0242V16.0247Z" fill="#2E2F42"/>
<path d="M21.2726 20.0228C21.2726 20.0228 18.7392 20.9509 18.3577 20.5143C17.9767 20.0778 19.277 18.7274 19.4688 17.6741C19.6606 16.6204 19.8898 13.4831 19.1499 12.7426C18.41 12.0021 18.2649 10.935 18.993 10.3124C19.7211 9.68974 19.9574 10.5712 20.9599 10.4327C21.9617 10.2942 24.106 9.32636 23.9542 10.3414C23.8025 11.3563 22.9042 12.0207 23.4743 15.1006C23.8784 17.2818 25.2971 18.7579 24.3188 19.2897C23.341 19.8215 22.336 19.4173 21.2731 20.0233L21.2726 20.0228Z" fill="#2E2F42"/>
<path d="M21.3767 8.78081C21.3767 8.78081 19.9041 9.00424 19.6544 8.38945C19.4047 7.77466 20.5415 5.58411 20.6384 5.26198C20.7353 4.93986 20.6912 1.53298 22.2909 1.55361C23.8907 1.57423 23.6748 3.73532 23.6466 4.49497C23.6184 5.25462 24.428 7.31652 23.1718 8.12576C21.9161 8.935 22.1915 8.74988 21.3767 8.78081Z" fill="#2E2F42"/>
<path d="M35.1555 7.07984C35.1555 7.07984 33.5127 7.20456 33.2071 6.58094C32.9015 5.95731 34.086 3.86889 34.1813 3.55708C34.2767 3.24526 34.086 -0.121345 35.8816 0.00338008C37.6772 0.128106 37.5244 2.24795 37.5244 2.99581C37.5244 3.74367 39.0939 5.87088 37.7182 6.58781C36.3425 7.30474 36.0682 7.10144 35.1555 7.07935V7.07984Z" fill="#2E2F42"/>
<path d="M54.4735 34.2425C54.4735 34.2425 52.9091 34.2469 52.6666 33.6356C52.4246 33.0242 53.7033 31.1293 53.8172 30.841C53.931 30.5528 54.0043 27.3526 55.6948 27.5952C57.3853 27.8378 57.0807 29.8334 57.0238 30.5415C56.9674 31.2496 58.2923 33.3714 56.9361 33.9548C55.5799 34.5381 55.3354 34.327 54.4735 34.2425Z" fill="#2E2F42"/>
<path d="M31.4074 30.9982C31.2474 32.1089 30.8793 33.204 30.1533 34.2764C29.7754 34.8342 29.1898 35.3965 29.5498 36.0609C29.8836 36.6766 30.7357 36.7395 31.4166 36.5347C33.1246 36.0216 34.8504 36.1679 35.4975 36.6467C36.1446 37.125 37.0998 37.4014 37.2337 36.243C37.3675 35.0847 36.5763 33.4848 36.2169 31.2786C35.8575 29.0723 36.2169 25.5977 36.7922 24.4393C37.3675 23.2814 38.0863 20.2482 36.0015 20.2477C34.8602 20.2477 33.6142 19.9487 32.5016 20.2561C30.9813 20.6769 30.949 21.9124 30.9982 23.1179C31.05 24.3789 31.2654 25.632 31.3695 26.8901C31.4797 28.2218 31.5992 29.6684 31.4074 30.9982Z" fill="#2E2F42"/>
<path d="M32.1888 10.3802C32.1888 10.3802 33.2281 13.4305 32.8503 14.9145C32.4724 16.3984 30.9506 17.1762 32.1888 18.4706C33.4271 19.765 35.8282 19.0771 37.0537 19.0358C38.2791 18.9946 38.3735 17.2258 37.6192 16.6086C36.865 15.9913 36.6291 12.2068 36.9593 11.5488C37.2895 10.8908 38.4206 9.61559 37.8079 8.83385C37.1952 8.0521 32.5847 7.78105 32.3867 9.08085L32.1888 10.3806V10.3802Z" fill="#2E2F42"/>
<path d="M40.0009 60.5758C40.0009 60.5758 37.1649 61.0502 37.6469 62.4217C38.1289 63.7927 38.8031 64.4968 38.7965 65.3841C38.7898 66.2715 40.0276 66.9039 40.427 67.4313C40.8269 67.9587 41.1479 68.6447 42.7999 67.8119C44.452 66.979 44.5812 65.8153 44.5812 64.6127C44.5812 63.4101 45.1693 62.597 45.9533 61.5334C46.7373 60.4697 49.3789 54.1161 50.3013 53.0726C51.2237 52.0292 52.2492 50.8644 51.839 49.6795C51.4288 48.4946 49.4563 47.3775 47.4059 48.802C45.3554 50.2265 45.7236 50.2845 45.4195 51.7257C45.1155 53.1674 42.3175 59.4071 40.0004 60.5763L40.0009 60.5758Z" fill="#2E2F42"/>
<path d="M47.3197 47.0495C47.2105 46.9606 47.1208 46.8388 47.0577 46.6738C46.4881 45.184 48.6457 43.8861 49.4127 42.8608C50.4156 41.5198 50.9017 39.9072 51.0427 38.2774C51.1294 37.2737 50.9458 35.5045 52.1436 35.0188C52.8876 34.7173 53.8018 35.2246 54.5514 35.2796C55.2949 35.3346 56.6598 35.2143 56.8556 36.1492C57.0684 37.1657 55.5312 38.2642 55.0903 39.0842C54.3555 40.4498 54.3437 41.7963 54.0884 43.262C53.8541 44.6099 54.0812 46.0242 53.7295 47.3028C53.3777 48.5815 52.7866 48.8658 51.3786 47.8577C50.5992 47.2999 50.3398 47.159 49.3758 47.1737C48.7113 47.184 47.8145 47.4511 47.3208 47.049L47.3197 47.0495Z" fill="#2E2F42"/>
<path d="M25.6365 33.9719C25.3863 32.8091 25.1171 31.6832 25.0269 30.5096C24.85 28.2056 24.4085 25.8545 24.6598 23.5083C24.7393 22.7673 25.1971 21.8878 24.3434 21.3737C23.7297 21.0034 22.8216 21.3997 22.1479 21.6329C21.3844 21.8971 20.4917 21.737 19.7124 21.9521C18.8766 22.1829 18.8858 22.7069 19.0581 23.2072C19.778 25.2986 20.4999 27.4204 20.5881 29.6453C20.6255 30.5916 20.502 31.5535 20.2902 32.5135C19.6185 35.559 18.9648 37.0636 23.0867 35.0071C23.8507 34.626 26.1549 36.3805 25.6371 33.9714L25.6365 33.9719Z" fill="#2E2F42"/>
<path d="M11.6357 24.5159C11.6357 24.5159 9.66269 25.0374 9.26121 24.5645C8.85974 24.0911 10.0795 22.7496 10.2139 21.6624C10.3487 20.5752 10.4097 17.3206 9.63603 16.5138C8.86179 15.707 8.66131 14.5894 9.35145 13.9771C10.0416 13.3647 10.3231 14.2938 11.3111 14.199C12.2992 14.1042 13.8877 12.7583 14.0374 13.8013C14.2727 15.4443 13.6231 16.5256 14.0558 19.1807C14.1963 20.0434 15.832 23.4915 14.889 23.9968C13.9461 24.5021 12.6596 23.9379 11.6362 24.5164L11.6357 24.5159Z" fill="#2E2F42"/>
<path d="M11.668 12.7382C11.668 12.7382 10.2175 12.9007 9.93649 12.2422C9.65551 11.5837 10.6666 9.33816 10.7456 9.00425C10.8246 8.67034 10.5979 5.08866 12.1874 5.18883C13.7774 5.28949 13.679 7.54929 13.6918 8.34625C13.7046 9.14322 14.6193 11.3495 13.4154 12.1376C12.2115 12.9257 12.4751 12.745 11.668 12.7377V12.7382Z" fill="#2E2F42"/>
<path d="M16.4021 37.6459C16.3698 36.5003 15.7961 35.4058 15.6602 34.2671C15.3936 32.0318 14.8624 29.7352 15.0193 27.4842C15.0685 26.7732 15.4889 25.9502 14.6209 25.4042C13.9964 25.0113 13.1103 25.3418 12.4505 25.5284C11.7029 25.7396 10.8102 25.5333 10.0442 25.6968C9.22327 25.8717 9.25301 26.3784 9.44375 26.8714C10.2416 28.9328 11.042 31.0232 11.2173 33.1774C11.2922 34.0932 11.2265 35.0203 11.0348 35.9307C10.66 37.7122 10.6682 39.8807 13.9102 38.4999C14.6573 38.1817 16.4462 39.2247 16.4021 37.6464V37.6459Z" fill="#2E2F42"/>
<path d="M30.1835 57.1292C30.0215 58.7152 30.1635 60.2753 29.4995 61.7563C29.0478 62.7634 28.7637 63.8113 29.8348 63.9684C30.6075 64.0819 31.8104 62.6107 32.3862 63.7342C32.7046 64.3559 33.9691 65.7588 34.5792 65.0266C35.1894 64.2945 36.0174 62.2203 36.7184 62.3421C36.7184 62.3421 36.6548 60.3902 36.2723 58.5601C35.3909 54.3395 35.0781 49.8057 35.7057 45.5125C36.0231 43.3411 36.8732 38.5033 35.6647 38.1949C34.3172 37.8512 31.7832 36.7405 30.886 37.9195C29.1667 40.1778 30.0261 43.7423 30.4101 46.4082C30.9583 50.2138 30.5752 53.3024 30.184 57.1282L30.1835 57.1292Z" fill="#2E2F42"/>
<path d="M37.9592 66.1477C37.7551 65.6832 38.1125 64.0951 37.3721 63.5574C36.6322 63.0197 36.2492 64.3883 36.2492 64.8769C36.2492 65.3655 34.9597 66.1472 34.9586 66.1477C34.6669 66.3245 34.9145 66.8646 34.9853 67.0895C35.1207 67.5192 34.9304 68.9447 35.7277 68.7512C36.2364 68.628 36.7799 68.0706 37.2244 67.7966C37.511 67.6194 37.8643 67.4662 38.0848 67.2093C38.4145 66.8248 38.1371 66.5543 37.9587 66.1482L37.9592 66.1477Z" fill="#2E2F42"/>
<path d="M39.4677 68.2946C38.9488 67.8963 38.697 67.6866 38.1033 68.0903C37.7418 68.3358 37.4777 68.6844 37.1362 68.9516C36.4456 69.4912 35.8267 69.7942 35.6062 70.6805C35.415 71.4495 35.4837 72.3182 34.972 72.985C34.3967 73.7344 35.7539 74.0069 35.7539 74.0069C38.7242 73.8331 40.2291 72.1773 40.8556 70.9251C41.2048 70.2273 40.8987 69.5079 40.389 68.9707C40.1368 68.7046 39.8102 68.5357 39.5112 68.3265C39.4974 68.3167 39.483 68.3058 39.4682 68.2946H39.4677Z" fill="#2E2F42"/>
<path d="M18.1131 74.2499C18.0875 74.1331 18.0393 74.0172 17.9624 73.9018C17.5112 73.2242 16.5508 73.0243 16.3375 72.1488C15.9976 70.7542 12.5243 67.8074 12.0521 68.4762C11.4168 69.3768 10.8707 70.2946 10.5841 71.3592C10.3354 72.2818 10.198 73.2718 10.3575 74.2195C10.5482 75.3523 11.2014 76.3084 11.8024 77.2758C12.0603 77.6907 12.2977 78.169 12.6714 78.5029C13.0745 78.8633 13.5728 79.1029 14.0856 78.8707C14.6347 78.6222 15.0767 78.1847 15.5423 77.8208C16.1704 77.3293 16.7328 76.7651 17.2189 76.1434C17.6245 75.6249 18.2618 74.9315 18.1131 74.2504V74.2499Z" fill="#2E2F42"/>
</svg>
