<svg width="53" height="85" viewBox="0 0 53 85" fill="none" xmlns="http://www.w3.org/2000/svg">
<path d="M5.81957 29.0713C5.81957 29.0713 6.89261 33.079 7.77759 32.3261C8.02815 31.5698 8.37053 30.8141 8.80694 30.1463C9.42145 29.2063 10.9785 28.8716 11.0769 27.6301C11.3054 24.7638 11.208 26.5397 10.5033 23.8089C9.79259 21.0549 9.96295 22.4773 8.8451 17.7033C8.1609 14.7811 7.48721 10.5333 5.91194 8.96268C4.33722 7.39203 -0.376416 9.91259 0.0240383 12.1079C0.424493 14.3037 2.0772 15.9722 2.62533 18.0773C3.27082 20.557 2.05231 19.2148 5.81902 29.0708L5.81957 29.0713Z" fill="#2E2F42"/>
<path d="M12.0653 24.5381C12.0653 24.5381 11.8419 28.3018 13.4448 27.982C13.4448 27.982 16.0041 27.1378 18.4013 27.7131C19.8299 28.0561 18.935 23.966 18.9959 22.698C19.0451 21.6634 18.3609 20.4989 18.0478 19.5506C16.9703 16.2848 17.8172 15.788 17.0345 12.4503C16.2613 9.15245 16.9726 9.29795 15.3376 6.31985C14.9349 5.58625 14.5007 4.80563 13.8878 4.22196C12.1876 2.60262 7.73832 4.90632 8.21399 7.21389C8.68967 9.52146 9.56636 11.6597 10.4762 13.7676C11.5061 16.1532 10.4773 15.1972 12.0653 24.5381Z" fill="#2E2F42"/>
<path d="M9.32963 28.9734C8.1692 28.9734 7.79861 27.9494 7.65867 27.5643C7.65038 27.5416 7.64263 27.5206 7.63544 27.5007C7.58843 27.4426 7.42636 27.3181 7.3174 27.234C6.91307 26.9226 6.40974 26.5347 6.39868 25.9787C6.39204 25.6673 6.54304 25.3801 6.8467 25.1256C7.70569 24.4059 8.08402 24.2808 8.60726 24.1071C8.71346 24.0723 8.82796 24.0341 8.95738 23.9876C9.10728 23.9223 9.96848 23.5578 10.5454 23.5578C10.745 23.5578 10.9066 23.5981 11.0376 23.6822C11.5476 24.007 11.3767 24.8219 11.1206 25.774C11.1013 25.8449 11.0791 25.929 11.0664 25.9815C11.0747 26.0125 11.0869 26.054 11.0974 26.0899C11.1848 26.3904 11.3302 26.8927 11.2805 27.4111C11.2124 28.112 10.8103 28.6044 10.1167 28.834C9.83684 28.927 9.57189 28.9734 9.32908 28.9734H9.32963Z" fill="#2E2F42"/>
<path d="M10.5459 23.9766C10.6549 23.9766 10.7478 23.9937 10.8131 24.0352C11.1925 24.277 10.6549 25.7796 10.6416 25.9782C10.6278 26.1768 11.4823 27.94 9.98506 28.4362C9.73506 28.5192 9.51824 28.5546 9.32907 28.5546C8.38712 28.5546 8.14762 27.6683 8.01874 27.3309C7.86387 26.9259 6.13705 26.2659 7.11551 25.4465C8.09397 24.6266 8.36057 24.651 9.11336 24.3765C9.11336 24.3765 10.0194 23.9766 10.5459 23.9766ZM10.5459 23.1395C9.90542 23.1395 9.03315 23.4985 8.80251 23.5987C8.68525 23.6413 8.57905 23.6761 8.47617 23.7104C7.86996 23.9107 7.45401 24.0712 6.57788 24.8053C6.07233 25.2285 5.97388 25.6822 5.97996 25.9876C5.99545 26.7444 6.63706 27.239 7.06186 27.566C7.12712 27.6163 7.21783 27.686 7.2748 27.7347C7.43576 28.1779 7.90646 29.3922 9.32907 29.3922C9.61669 29.3922 9.92588 29.338 10.2478 29.2312C11.0985 28.9496 11.6129 28.3173 11.6964 27.4515C11.7539 26.8551 11.5891 26.2841 11.4995 25.976C11.5078 25.945 11.5166 25.9123 11.5244 25.8825C11.7556 25.0227 12.0725 23.8454 11.2622 23.3293C11.0647 23.2031 10.823 23.1395 10.5454 23.1395H10.5459Z" fill="#F7EEDF"/>
<path d="M17.498 24.5624C15.832 24.5624 15.5759 23.1511 15.4791 22.62C15.4731 22.5874 15.4681 22.5569 15.4626 22.5298C15.4249 22.4518 15.2474 22.2598 15.1285 22.1315C14.7302 21.7011 14.2346 21.1655 14.3259 20.5514C14.3762 20.2117 14.5958 19.9257 14.9791 19.7011C16.1086 19.04 16.5671 18.9697 17.2021 18.8729C17.3343 18.853 17.4764 18.8314 17.6379 18.8015C17.7563 18.7722 18.5334 18.5869 19.1596 18.5869C19.5788 18.5869 19.862 18.6671 20.0523 18.8386C20.544 19.2828 20.1922 20.1719 19.7188 21.202C19.6784 21.2895 19.6308 21.394 19.6065 21.4521C19.6098 21.4919 19.617 21.5534 19.6231 21.6048C19.6977 22.2538 19.9262 24.2277 18.0047 24.522C17.8282 24.5492 17.6579 24.563 17.4986 24.563L17.498 24.5624Z" fill="#2E2F42"/>
<path d="M19.1595 19.0051C19.4239 19.0051 19.654 19.0422 19.7718 19.149C20.1662 19.5053 19.2442 21.1478 19.1894 21.3769C19.1341 21.6054 19.7812 23.8261 17.941 24.1082C17.7806 24.1326 17.6335 24.1442 17.498 24.1442C16.0781 24.1442 15.962 22.8928 15.8702 22.4341C15.7695 21.9318 13.89 20.8242 15.1904 20.0629C16.4908 19.3017 16.7966 19.3824 17.7264 19.2115C17.7264 19.2115 18.5384 19.0057 19.1595 19.0057M19.1595 18.1686C18.5024 18.1686 17.7281 18.349 17.55 18.3927C17.4012 18.4198 17.2679 18.4403 17.139 18.4596C16.4117 18.5708 15.9083 18.6726 14.7678 19.3404C14.1478 19.7033 13.9603 20.1664 13.9122 20.4906C13.7916 21.3027 14.3873 21.9462 14.822 22.4164C14.9 22.5005 15.0106 22.62 15.0671 22.6919C15.0671 22.693 15.0671 22.6941 15.0676 22.6952C15.124 23.0067 15.2186 23.5284 15.5422 24.0086C15.8414 24.4523 16.4233 24.9818 17.498 24.9818C17.6783 24.9818 17.8702 24.9663 18.0677 24.9364C19.0506 24.7859 19.7304 24.1907 19.9815 23.2607C20.159 22.6034 20.0805 21.9235 20.0384 21.5578C20.0373 21.5456 20.0357 21.5329 20.034 21.5196C20.0545 21.4748 20.0777 21.4233 20.0993 21.3774C20.5186 20.4651 21.0927 19.2154 20.3333 18.5293C20.0656 18.287 19.6817 18.1697 19.1601 18.1697L19.1595 18.1686Z" fill="#F7EEDF"/>
<path d="M21.1641 23.4521C21.1641 23.4521 20.4776 26.9574 22.023 26.86C22.023 26.86 24.4164 27.2014 26.594 28.0456C27.8921 28.5485 28.604 24.3793 28.8214 23.1965C28.9984 22.2316 28.6112 19.3382 28.4375 18.4082C27.8396 15.2055 27.4696 15.5723 27.1576 12.3397C26.849 9.1458 27.8584 9.47056 26.7002 6.46756C26.4148 5.72788 26.0165 2.51631 25.5148 1.8906C24.1238 0.154525 18.6961 0.894211 18.6933 3.12654C18.6839 11.0777 19.8974 11.2271 20.1712 13.3847C20.6734 17.3415 20.9102 14.1991 21.1635 23.4526L21.1641 23.4521Z" fill="#2E2F42"/>
<path d="M30.1887 20.625C30.0067 22.4861 30.1666 24.3157 29.4204 26.0534C28.9126 27.2351 28.5941 28.4639 29.7971 28.6487C30.6649 28.7814 32.0162 27.0559 32.6633 28.3743C33.0212 29.1034 34.4416 30.7499 35.1263 29.8907C35.8116 29.0321 36.742 26.5984 37.5291 26.7416C37.5291 26.7416 37.4577 24.4518 37.0285 22.3047C36.0384 17.3531 35.1158 15.7687 35.8205 10.7325C36.1767 8.18483 37.1319 2.50968 35.774 2.14786C34.2607 1.74454 31.4144 0.441105 30.4061 1.82421C28.4746 4.47368 29.4403 8.65563 29.8712 11.7831C30.4868 16.2478 30.6279 16.1371 30.1887 20.6256V20.625Z" fill="#2E2F42"/>
<path d="M13.2744 18.2521C12.6162 18.2521 12.1455 17.7387 12.1041 16.9747C12.0194 15.4378 11.9331 13.8622 11.7019 12.3618C11.6024 11.7145 11.1942 11.0766 10.7616 10.4005C10.1438 9.43459 9.50442 8.43543 9.66925 7.22439C9.83242 6.02883 11.0581 5.63326 11.9531 5.34447C12.1765 5.27255 12.3873 5.2045 12.5371 5.13701C12.8391 5.00146 13.1511 4.8034 13.4813 4.59372C14.1733 4.15445 14.8884 3.70024 15.6822 3.70024C15.8337 3.70024 15.9853 3.71739 16.1313 3.75169C16.5135 3.84076 16.7878 4.05653 16.9482 4.39234C17.2657 5.059 16.9969 5.9973 16.8525 6.5013C16.3531 8.24623 16.4731 10.5555 17.1451 12.1178C17.3017 12.4824 17.5533 12.7657 17.8199 13.065C18.2392 13.5369 18.7149 14.0724 18.8139 14.9902C18.8858 15.6569 18.7265 16.276 18.352 16.7811C17.8869 17.409 17.2635 17.4937 16.7148 17.4937C16.5738 17.4937 16.4316 17.4881 16.2939 17.482C16.1606 17.4765 16.0278 17.471 15.8962 17.471C15.665 17.471 15.3685 17.4865 15.1241 17.6065C14.4802 17.9235 13.8148 18.2516 13.275 18.2516L13.2744 18.2521Z" fill="#2E2F42"/>
<path d="M15.6816 4.11906C15.8082 4.11906 15.936 4.1329 16.0649 4.16277C17.0339 4.3896 16.7651 5.52651 16.5251 6.36467C16.0063 8.17598 16.0959 10.5865 16.8381 12.312C17.29 13.3621 18.3299 13.7471 18.4704 15.0456C18.529 15.5872 18.399 16.0907 18.0943 16.5023C17.7314 16.9919 17.2364 17.0754 16.7142 17.0754C16.4438 17.0754 16.1661 17.0533 15.8956 17.0533C15.577 17.0533 15.2684 17.0843 14.9935 17.2198C14.3807 17.5219 13.7468 17.8339 13.2744 17.8339C12.8021 17.8339 12.4785 17.4942 12.4486 16.9471C12.3634 15.3963 12.2766 13.8135 12.0415 12.2849C11.7766 10.566 9.7616 9.11539 10.0099 7.29246C10.1731 6.09801 11.9154 5.86233 12.6566 5.52928C13.6107 5.10107 14.6113 4.11906 15.6816 4.11906ZM15.6816 3.28201C14.8032 3.28201 14.0156 3.78214 13.3203 4.22307C13.0001 4.42611 12.6975 4.61864 12.4165 4.74478C12.2821 4.80508 12.0791 4.87037 11.864 4.94007C10.9336 5.24048 9.52763 5.69414 9.32851 7.15636C9.13879 8.54831 9.85563 9.66863 10.4884 10.6573C10.8944 11.2918 11.2777 11.891 11.3623 12.4387C11.5896 13.9148 11.6759 15.4788 11.7589 16.9913V17.0024C11.8136 17.9844 12.4365 18.6704 13.275 18.6704C13.8823 18.6704 14.5792 18.3269 15.254 17.9949C15.4017 17.9224 15.5997 17.8898 15.8962 17.8898C16.0195 17.8898 16.1473 17.8948 16.2823 17.9003C16.4227 17.9058 16.5677 17.9119 16.7148 17.9119C17.3028 17.9119 18.05 17.8151 18.6092 17.0605C19.0467 16.4702 19.2409 15.7156 19.1562 14.9355C19.0406 13.8677 18.4942 13.2525 18.055 12.7579C17.8006 12.4713 17.581 12.224 17.4515 11.9236C16.8199 10.4559 16.7082 8.2822 17.1789 6.63797C17.3415 6.0709 17.6435 5.01476 17.2474 4.18269C17.1014 3.87619 16.8011 3.48118 16.1971 3.33955C16.0295 3.30027 15.8564 3.28035 15.6827 3.28035L15.6816 3.28201Z" fill="#F7EEDF"/>
<path d="M23.2222 15.1241C22.8306 15.1153 22.5347 14.9432 22.3427 14.6124C21.9152 13.8755 22.0396 12.8664 22.1486 11.9762C22.205 11.5153 22.2587 11.0799 22.2404 10.7137C22.2039 9.99005 21.8555 9.04899 21.5181 8.13891C20.9965 6.73202 20.4572 5.27699 20.8715 4.1611C21.1143 3.50662 21.6353 3.08284 22.4644 2.86541C22.6077 2.82779 22.8787 2.71438 23.1929 2.58271C24.0275 2.23306 25.2886 1.70471 26.2577 1.70471C27.5874 1.70471 27.8236 2.7188 27.8457 3.3235C27.8783 4.20758 27.5144 4.95998 27.1936 5.62332C26.9867 6.05042 26.7914 6.45373 26.7406 6.81113C26.5763 7.95966 26.5282 9.14027 26.6012 10.2263C26.6327 10.6938 26.8108 11.0827 26.9989 11.4943C27.2378 12.016 27.5083 12.6074 27.432 13.372C27.3639 14.0519 26.985 14.6766 26.5105 14.8907C26.4004 14.9405 26.2859 14.9654 26.1697 14.9654C25.9518 14.9654 25.7582 14.879 25.5879 14.8027C25.4844 14.7568 25.3871 14.7131 25.2942 14.692C25.2698 14.6865 25.24 14.6838 25.2057 14.6838C25.0032 14.6838 24.7079 14.7778 24.3954 14.8768C24.0109 14.9991 23.6133 15.1252 23.2548 15.1252H23.2228L23.2222 15.1241Z" fill="#2E2F42"/>
<path d="M26.2577 2.12296C26.9668 2.12296 27.4978 2.42669 27.5315 3.34396C27.5796 4.63799 26.5802 5.69192 26.4314 6.73257C26.2571 7.9497 26.2145 9.179 26.2876 10.2634C26.3694 11.4832 27.235 12.1659 27.12 13.3161C27.0674 13.8417 26.7743 14.3286 26.4092 14.4934C26.3263 14.5305 26.2466 14.546 26.1692 14.546C25.886 14.546 25.6299 14.343 25.3462 14.2788C25.303 14.2688 25.2554 14.2644 25.2051 14.2644C24.7012 14.2644 23.8671 14.7064 23.2543 14.7064C23.2454 14.7064 23.236 14.7064 23.2272 14.7064C22.9628 14.7009 22.7371 14.6091 22.5911 14.3579C22.0562 13.4356 22.6121 11.8462 22.554 10.6871C22.4274 8.17099 19.2265 4.14284 22.5247 3.27702C23.0834 3.13041 24.9662 2.12406 26.2571 2.12406M26.2571 1.28701C25.2394 1.28701 23.9506 1.82697 23.0977 2.18437C22.8051 2.30719 22.5291 2.42281 22.403 2.45601C21.4716 2.70054 20.8781 3.19791 20.5888 3.97687C20.1054 5.27809 20.6801 6.82717 21.2349 8.32535C21.5584 9.19891 21.8936 10.1018 21.9257 10.743C21.9417 11.0611 21.8908 11.4733 21.8372 11.9098C21.7177 12.8846 21.5817 13.9889 22.0927 14.8696C22.3461 15.3061 22.7238 15.533 23.2161 15.544C23.2288 15.544 23.241 15.544 23.2537 15.544C23.6492 15.544 24.0651 15.4118 24.4673 15.284C24.7482 15.1944 25.0392 15.102 25.2046 15.102C25.2294 15.102 25.24 15.1042 25.2405 15.1042C25.3096 15.1197 25.3959 15.1584 25.4872 15.1988C25.6714 15.2807 25.8998 15.383 26.1692 15.383C26.3196 15.383 26.4684 15.3504 26.6111 15.2862C27.2041 15.019 27.6593 14.2716 27.7439 13.4262C27.8352 12.515 27.5204 11.8279 27.2677 11.2758C27.0912 10.8907 26.9391 10.5588 26.9142 10.1881C26.8434 9.14027 26.8904 7.99949 27.0492 6.88858C27.089 6.61141 27.2682 6.24129 27.4579 5.84959C27.7876 5.16855 28.198 4.32099 28.1598 3.30247C28.1372 2.69612 27.9065 1.2859 26.2571 1.2859V1.28701Z" fill="#F7EEDF"/>
<path d="M5.19678 23.3287C4.71281 23.3287 4.39753 23.0228 4.35218 22.5105C4.24653 21.3077 3.89309 18.0774 3.64474 17.2187C3.5756 16.9792 3.21553 16.447 2.86762 15.9319C1.9406 14.5604 0.88968 13.0063 1.7896 12.2479C2.27247 11.8407 2.92293 11.59 3.55182 11.3472C4.18735 11.1021 4.84445 10.8482 5.30021 10.4465L5.33672 10.4144L5.37876 10.3928C5.52699 10.3176 6.85004 9.65591 7.67529 9.65591C7.92972 9.65591 8.12773 9.71566 8.28039 9.83904C8.7887 10.2495 8.55308 11.0445 8.30418 11.886C8.14377 12.4282 7.96235 13.0423 7.98835 13.5032C8.07408 15.003 8.68859 18.0801 9.43363 18.6079C10.1184 19.0931 10.5686 19.7769 10.6698 20.4845C10.744 21.0062 10.6228 21.4958 10.3192 21.9008C10.0675 22.2366 9.7832 22.3998 9.44857 22.3998C9.25719 22.3998 9.07798 22.3467 8.90431 22.2953C8.73007 22.2438 8.55031 22.1907 8.35396 22.1907C8.23725 22.1907 8.12275 22.209 8.00384 22.2471C7.74442 22.3296 7.39873 22.4989 7.03201 22.6776C6.37713 22.9973 5.70011 23.3276 5.19567 23.3276L5.19678 23.3287Z" fill="#2E2F42"/>
<path d="M7.67525 10.0758C7.83289 10.0758 7.96509 10.1057 8.05414 10.1771C8.57351 10.5964 7.53864 12.3253 7.60777 13.5308C7.67691 14.7363 8.24662 18.2666 9.22729 18.9609C10.2074 19.6552 10.6388 20.817 10.0249 21.6369C9.82687 21.9014 9.64268 21.9827 9.44965 21.9827C9.1399 21.9827 8.80637 21.7736 8.35559 21.7736C8.21565 21.7736 8.06465 21.7935 7.89927 21.8466C7.15256 22.0845 5.88151 22.9105 5.19786 22.9105C4.93679 22.9105 4.76145 22.7904 4.73324 22.4712C4.63202 21.3155 4.27526 18.0115 4.00977 17.0931C3.74427 16.1753 1.11919 13.3427 2.02353 12.5809C2.92732 11.8191 4.56565 11.6337 5.54079 10.774C5.54079 10.774 6.9114 10.0764 7.67636 10.0764M7.67636 9.23932C6.78806 9.23932 5.47386 9.8855 5.21943 10.015L5.1348 10.0581L5.06234 10.1223C4.65746 10.4791 4.03189 10.7203 3.42623 10.9544C2.76858 11.2078 2.0888 11.47 1.55781 11.9181C1.20548 12.2152 1.03512 12.6672 1.07771 13.1911C1.10371 13.5098 1.20824 13.8622 1.39796 14.2683C1.69111 14.8962 2.15407 15.58 2.56227 16.1842C2.84159 16.5969 3.22379 17.1628 3.28242 17.3493C3.50311 18.1122 3.84936 21.1429 3.97326 22.5531C4.03687 23.28 4.51753 23.7497 5.19786 23.7497C5.7836 23.7497 6.49823 23.4006 7.18962 23.0632C7.52813 22.8977 7.87769 22.7273 8.11221 22.6527C8.19573 22.6261 8.27538 22.6128 8.35559 22.6128C8.50105 22.6128 8.64265 22.6549 8.80637 22.703C8.99499 22.7589 9.20793 22.8219 9.44965 22.8219C9.89933 22.8219 10.2909 22.6029 10.6151 22.1702C10.9845 21.6773 11.1378 21.0571 11.0476 20.4236C10.9303 19.5982 10.4176 18.8098 9.64158 18.2599C9.20683 17.9518 8.48501 15.486 8.36997 13.4805C8.34784 13.0987 8.51765 12.525 8.66754 12.0188C8.7837 11.626 8.89377 11.2548 8.94023 10.9096C9.04643 10.124 8.76323 9.71234 8.50714 9.50543C8.28976 9.33005 8.00989 9.24098 7.67581 9.24098L7.67636 9.23932Z" fill="#F7EEDF"/>
<path d="M25.0541 21.7913C23.3876 21.7913 23.132 20.3799 23.0352 19.8488C23.0291 19.8162 23.0242 19.7858 23.0186 19.7587C22.981 19.6806 22.8035 19.4887 22.6851 19.3603C22.2869 18.9299 21.7913 18.3944 21.882 17.7803C21.9323 17.44 22.1519 17.154 22.5352 16.9299C23.6647 16.2688 24.1232 16.1985 24.7582 16.1017C24.8904 16.0818 25.0325 16.0597 25.194 16.0304C25.3124 16.001 26.089 15.8157 26.7157 15.8157C27.1349 15.8157 27.4187 15.8959 27.6084 16.0674C28.1001 16.5111 27.7483 17.4002 27.2749 18.4303C27.2345 18.5177 27.1864 18.6223 27.1626 18.6809C27.1659 18.7208 27.1731 18.7822 27.1792 18.8336C27.2538 19.482 27.4817 21.456 25.5602 21.7503C25.3838 21.7774 25.2134 21.7913 25.0541 21.7913Z" fill="#2E2F42"/>
<path d="M26.7157 16.2339C26.9801 16.2339 27.2102 16.271 27.328 16.3778C27.7223 16.7341 26.8003 18.3766 26.7455 18.6057C26.6902 18.8342 27.3374 21.0549 25.4972 21.337C25.3368 21.3614 25.1896 21.373 25.0541 21.373C23.6343 21.373 23.5181 20.1216 23.4263 19.6629C23.3256 19.1606 21.4462 18.053 22.7465 17.2917C24.0469 16.5305 24.3528 16.6113 25.2826 16.4403C25.2826 16.4403 26.0945 16.2345 26.7157 16.2345M26.7157 15.3974C26.0586 15.3974 25.2842 15.5778 25.1061 15.6215C24.9573 15.6486 24.824 15.6685 24.6951 15.6885C23.9678 15.7997 23.4645 15.9015 22.3239 16.5692C21.7039 16.9321 21.5164 17.3952 21.4683 17.7194C21.3477 18.5316 21.9434 19.175 22.3781 19.6452C22.4561 19.7293 22.5668 19.8488 22.6237 19.9213C22.6237 19.9224 22.6237 19.9235 22.6243 19.9246C22.6807 20.2361 22.7753 20.7578 23.0989 21.238C23.3981 21.6817 23.98 22.2112 25.0547 22.2112C25.235 22.2112 25.4269 22.1957 25.6244 22.1658C26.6073 22.0153 27.287 21.42 27.5382 20.49C27.7157 19.8328 27.6372 19.1528 27.5951 18.7872C27.594 18.775 27.5924 18.7623 27.5907 18.749C27.6112 18.7042 27.6344 18.6527 27.656 18.6068C28.0752 17.6945 28.6494 16.4447 27.8894 15.7587C27.6217 15.5169 27.2378 15.3991 26.7162 15.3991L26.7157 15.3974Z" fill="#F7EEDF"/>
<path d="M32.1008 15.4954C31.6782 15.4865 31.3585 15.3145 31.1516 14.9836C30.6903 14.2467 30.8242 13.2376 30.9426 12.3474C31.0034 11.8866 31.0615 11.4512 31.0416 11.0849C31.0023 10.3613 30.6256 9.42022 30.2617 8.51014C29.6986 7.10325 29.1167 5.64822 29.5642 4.53234C29.8264 3.87785 30.3889 3.45407 31.2833 3.23665C31.4376 3.19903 31.7308 3.08561 32.0698 2.95394C32.9703 2.60429 34.3315 2.07594 35.3774 2.07594C36.8122 2.07594 37.0672 3.09003 37.0915 3.69473C37.1269 4.57881 36.7342 5.33122 36.3874 5.99455C36.1645 6.42165 35.9538 6.82497 35.8985 7.18236C35.7209 8.33089 35.6689 9.51151 35.748 10.5975C35.7818 11.065 35.9742 11.4539 36.1772 11.8655C36.435 12.3873 36.727 12.9787 36.6446 13.7433C36.5716 14.4232 36.1623 15.0478 35.6501 15.2619C35.5312 15.3117 35.4079 15.3366 35.2823 15.3366C35.0472 15.3366 34.8387 15.2503 34.6545 15.1739C34.5433 15.128 34.4377 15.0843 34.337 15.0633C34.3105 15.0578 34.2784 15.055 34.2419 15.055C34.0234 15.055 33.7048 15.149 33.3674 15.2481C32.9526 15.3703 32.5234 15.4965 32.1367 15.4965H32.1019L32.1008 15.4954Z" fill="#2E2F42"/>
<path d="M35.3769 2.49419C36.1424 2.49419 36.7149 2.79792 36.7519 3.71519C36.8039 5.00922 35.7253 6.06315 35.5644 7.1038C35.3763 8.32093 35.3304 9.55023 35.409 10.6346C35.4975 11.8545 36.4317 12.5372 36.3072 13.6874C36.2503 14.213 35.9344 14.6998 35.5401 14.8647C35.4504 14.9017 35.3647 14.9172 35.2812 14.9172C34.9753 14.9172 34.6993 14.7142 34.3929 14.65C34.3464 14.64 34.295 14.6356 34.2408 14.6356C33.6971 14.6356 32.7966 15.0777 32.1351 15.0777C32.1251 15.0777 32.1157 15.0777 32.1058 15.0777C31.8204 15.0721 31.577 14.9803 31.4199 14.7291C30.8425 13.8069 31.4426 12.2174 31.3795 11.0584C31.2429 8.54223 27.7882 4.51408 31.348 3.64825C31.9509 3.50164 33.983 2.4953 35.3763 2.4953M35.3763 1.65824C34.2784 1.65824 32.8873 2.19821 31.9664 2.5556C31.6506 2.67842 31.3524 2.79405 31.2164 2.82724C30.2113 3.07177 29.5708 3.56914 29.2583 4.3481C28.7367 5.64933 29.3568 7.1984 29.9558 8.69658C30.3054 9.57015 30.6666 10.473 30.7014 11.1142C30.7186 11.4324 30.6638 11.8445 30.6063 12.281C30.4768 13.2558 30.3303 14.3601 30.8817 15.2409C31.155 15.6774 31.5632 15.9042 32.0941 15.9153C32.108 15.9153 32.1213 15.9153 32.1345 15.9153C32.5615 15.9153 33.0101 15.783 33.4443 15.6552C33.748 15.5656 34.0616 15.4732 34.2402 15.4732C34.2668 15.4732 34.2784 15.4754 34.2789 15.4754C34.3536 15.4909 34.4465 15.5297 34.545 15.57C34.7436 15.6519 34.9908 15.7543 35.2812 15.7543C35.4438 15.7543 35.6042 15.7216 35.758 15.6575C36.3979 15.3902 36.8891 14.6428 36.9804 13.7975C37.0788 12.8863 36.7392 12.1991 36.4665 11.647C36.2762 11.262 36.112 10.93 36.0854 10.5593C36.0091 9.5115 36.06 8.37072 36.2314 7.25981C36.274 6.98264 36.4676 6.61252 36.6723 6.22083C37.0279 5.53979 37.471 4.69222 37.43 3.6737C37.4057 3.06735 37.1568 1.65714 35.3769 1.65714L35.3763 1.65824Z" fill="#F7EEDF"/>
<path d="M34.2862 21.7913C32.6196 21.7913 32.3641 20.3799 32.2673 19.8488C32.2612 19.8162 32.2562 19.7858 32.2507 19.7587C32.2131 19.6806 32.0355 19.4887 31.9172 19.3603C31.5189 18.9299 31.0233 18.3944 31.114 17.7803C31.1644 17.44 31.384 17.154 31.7673 16.9299C32.8967 16.2688 33.3553 16.1985 33.9902 16.1017C34.1224 16.0818 34.2646 16.0597 34.4261 16.0304C34.5445 16.001 35.321 15.8157 35.9477 15.8157C36.367 15.8157 36.6507 15.8959 36.8404 16.0674C37.3322 16.5111 36.9804 17.4002 36.5069 18.4303C36.4665 18.5177 36.4184 18.6223 36.3946 18.6809C36.3979 18.7208 36.4051 18.7822 36.4112 18.8336C36.4859 19.482 36.7138 21.456 34.7923 21.7503C34.6158 21.7774 34.4455 21.7913 34.2862 21.7913Z" fill="#2E2F42"/>
<path d="M35.9482 16.2339C36.2126 16.2339 36.4427 16.271 36.5605 16.3778C36.9549 16.7341 36.0329 18.3766 35.9781 18.6057C35.9228 18.8342 36.5699 21.0549 34.7297 21.337C34.5693 21.3614 34.4222 21.373 34.2867 21.373C32.8668 21.373 32.7507 20.1216 32.6589 19.6629C32.5582 19.1606 30.6787 18.053 31.9791 17.2917C33.2795 16.5305 33.5853 16.6113 34.5151 16.4403C34.5151 16.4403 35.3271 16.2345 35.9482 16.2345M35.9482 15.3974C35.2911 15.3974 34.5168 15.5778 34.3387 15.6215C34.1899 15.6486 34.0566 15.6691 33.9277 15.6885C33.2004 15.7997 32.697 15.9015 31.5565 16.5692C30.9365 16.9321 30.749 17.3952 30.7009 17.7194C30.5803 18.5316 31.176 19.175 31.6107 19.6452C31.6887 19.7293 31.7993 19.8488 31.8563 19.9213C31.8563 19.9224 31.8563 19.9235 31.8569 19.9246C31.9133 20.2361 32.0079 20.7578 32.3314 21.238C32.6307 21.6817 33.2125 22.2112 34.2872 22.2112C34.4676 22.2112 34.6595 22.1957 34.857 22.1658C35.8398 22.0153 36.5196 21.42 36.7713 20.49C36.9488 19.8328 36.8703 19.1528 36.8283 18.7872C36.8266 18.775 36.8255 18.7623 36.8238 18.749C36.8443 18.7042 36.8675 18.6527 36.8891 18.6062C37.3084 17.694 37.8825 16.4442 37.1225 15.7582C36.8548 15.5164 36.4709 15.3986 35.9494 15.3986L35.9482 15.3974Z" fill="#F7EEDF"/>
<path d="M29.6267 11.0683C29.1405 11.8003 27.4933 12.1588 25.7024 12.4902C25.4391 12.5388 25.1398 12.5942 25.069 12.618C25.0242 12.6373 24.8273 12.7529 24.6536 12.8553C23.5751 13.4904 21.5667 14.6738 20.1441 14.2815C19.6651 14.1499 19.2995 13.8583 19.0567 13.4152C18.5982 12.577 18.6441 11.6885 19.1889 10.8459C19.7879 9.9209 20.8521 9.23875 21.4882 8.83157C21.5601 8.78565 21.6259 8.74305 21.6845 8.70487C21.8864 8.57265 22.2105 8.14721 22.5242 7.7356C23.4003 6.58651 24.7244 4.84989 26.3412 5.63549C27.8789 6.38237 28.1958 6.86258 28.6245 7.64652C28.7019 7.78815 28.7821 7.93476 28.88 8.09575C30.27 9.87498 29.7523 10.8736 29.6344 11.0561L29.6267 11.0683Z" fill="#2E2F42"/>
<path d="M20.7592 14.7784C20.5014 14.7784 20.257 14.7468 20.0329 14.6854C19.4406 14.5222 18.9887 14.1626 18.69 13.616C18.1606 12.6484 18.2132 11.5839 18.8382 10.618C19.4859 9.61716 20.5977 8.90459 21.262 8.47915C21.3333 8.43323 21.398 8.39174 21.455 8.35467C21.5966 8.26228 21.9534 7.79368 22.1895 7.48442C22.939 6.50131 24.069 5.01973 25.5226 5.01973C25.86 5.01973 26.1974 5.1005 26.5243 5.25928C28.1731 6.06038 28.536 6.61251 28.9917 7.44625C29.0653 7.58068 29.1389 7.71512 29.2251 7.85786C30.7318 9.79918 30.1887 10.9709 29.9857 11.2841L29.9774 11.2968C29.3977 12.1693 27.7334 12.5399 25.7787 12.9023C25.5995 12.9355 25.3157 12.9881 25.2178 13.0113C25.1542 13.0462 24.9628 13.159 24.8661 13.216C23.8738 13.8008 22.2139 14.7784 20.7586 14.7784H20.7592ZM25.5232 5.85678C24.4838 5.85678 23.5441 7.0894 22.8577 7.98953C22.4323 8.54664 22.158 8.89519 21.9141 9.05507C21.8549 9.0938 21.7874 9.13695 21.7144 9.18398C21.1065 9.57346 20.0905 10.2246 19.5412 11.0733C19.0783 11.7886 19.039 12.509 19.4245 13.2143C19.6131 13.559 19.8853 13.7764 20.2558 13.8782C20.4074 13.9197 20.5767 13.9413 20.7597 13.9413C21.9871 13.9413 23.5839 13.0008 24.4413 12.4957C24.7571 12.3092 24.8478 12.2578 24.9048 12.2334L24.9385 12.2207C25.027 12.1914 25.2151 12.1554 25.6227 12.0796C26.8324 11.8556 28.8501 11.4816 29.2782 10.8371L29.2838 10.8282C29.3391 10.743 29.7915 9.94247 28.5503 8.35356L28.5232 8.31428C28.4209 8.14665 28.3391 7.99728 28.26 7.85288C27.8916 7.17903 27.6504 6.73754 26.1587 6.01224C25.9435 5.90768 25.7355 5.85678 25.5232 5.85678Z" fill="#F7EEDF"/>
<path d="M44.1399 19.1335C42.5757 19.3642 41.4246 17.9285 40.5004 16.7755C40.163 16.3545 39.8444 15.9573 39.5545 15.6973C38.2188 14.499 36.4715 13.6824 34.3614 13.2719C34.1617 13.2331 33.9272 13.1988 33.6783 13.1634C32.3757 12.9753 30.5919 12.7175 30.1405 11.2094C29.9149 10.4553 30.2102 9.71121 30.4713 9.05507C30.5952 8.74359 30.7119 8.44927 30.7611 8.18924C30.7849 8.06366 30.8054 7.92092 30.8275 7.76933C30.9641 6.83159 31.1704 5.41418 32.4498 5.22553C32.4819 5.22055 32.5151 5.21668 32.5488 5.21391C33.6229 5.11875 34.5063 6.05318 35.2856 6.87751C35.6285 7.23988 35.9521 7.58234 36.2265 7.76435C37.3614 8.51676 38.56 8.80998 39.8294 9.1209C40.2399 9.22159 40.6646 9.3256 41.0955 9.44676C41.783 9.6404 42.5231 9.73776 43.2394 9.83126C44.1797 9.95463 45.1521 10.0819 46.0531 10.4288C46.6471 10.6573 47.4563 11.0478 47.6284 11.7969C47.7738 12.4287 47.4586 13.1181 46.6051 14.0315C45.8822 14.8055 45.7256 15.0046 45.6305 16.0176C45.6128 16.2063 45.6139 16.4253 45.6145 16.6566C45.6178 17.3764 45.6211 18.1924 45.0652 18.7169C44.8766 18.895 44.6393 19.0201 44.3594 19.0892C44.2864 19.1075 44.2123 19.1218 44.1388 19.1324L44.1399 19.1335Z" fill="#2E2F42"/>
<path d="M43.8075 19.5766C42.2095 19.5766 41.0812 18.1686 40.174 17.0372C39.8477 16.6301 39.5396 16.2456 39.2752 16.0088C37.9964 14.8613 36.3161 14.0785 34.2812 13.6824C34.0942 13.6459 33.868 13.6132 33.6285 13.5789C32.2833 13.3842 30.2672 13.0932 29.739 11.3289C29.4713 10.4349 29.8098 9.58398 30.0819 8.90017C30.1981 8.60861 30.3076 8.3331 30.3496 8.11125C30.3712 7.99784 30.3895 7.86948 30.4094 7.73283L30.4127 7.70849C30.5576 6.71265 30.8004 5.04519 32.3884 4.81116C32.4293 4.80508 32.4697 4.80065 32.5118 4.79678C32.5748 4.79125 32.6379 4.78848 32.7004 4.78848C33.8874 4.78848 34.7917 5.74559 35.5893 6.58984C35.9156 6.93506 36.2232 7.26036 36.4577 7.41527C37.5324 8.12729 38.6961 8.41221 39.929 8.71428L39.9456 8.71815C40.3544 8.81829 40.7769 8.92175 41.2095 9.04401C41.8671 9.22935 42.5917 9.32451 43.292 9.41634C44.2599 9.54359 45.2566 9.67415 46.2035 10.0387C46.8866 10.3015 47.8197 10.7602 48.0366 11.704C48.2163 12.4857 47.8695 13.2924 46.9115 14.3181C46.2367 15.04 46.1333 15.1512 46.0481 16.0575C46.0326 16.2251 46.0332 16.4337 46.0343 16.6539C46.0376 17.4206 46.042 18.3728 45.354 19.0223C45.1123 19.2508 44.8119 19.4101 44.4612 19.4964C44.3766 19.5174 44.2892 19.5346 44.2018 19.5473C44.0707 19.5667 43.938 19.5766 43.808 19.5766H43.8075ZM32.7004 5.62554C32.6622 5.62554 32.624 5.62719 32.5853 5.63051C32.5593 5.63273 32.5344 5.6355 32.5101 5.63937C31.6141 5.77159 31.3983 6.75083 31.2413 7.82965L31.2374 7.85399C31.2158 8.00281 31.1948 8.14223 31.1716 8.26616C31.1146 8.56767 30.9907 8.87915 30.8591 9.20943C30.6118 9.83072 30.3563 10.4736 30.5405 11.0888C30.9149 12.3408 32.4791 12.5671 33.7364 12.7485C33.9974 12.7861 34.2336 12.8204 34.4405 12.8608C36.6253 13.2863 38.4395 14.1355 39.8328 15.3858C40.1481 15.6685 40.4772 16.079 40.8256 16.5139C41.6204 17.5058 42.61 18.7396 43.8063 18.7396C43.896 18.7396 43.9872 18.7329 44.0779 18.7197C44.1388 18.7108 44.2002 18.6986 44.2594 18.6842C44.4684 18.6328 44.6427 18.5421 44.7782 18.4137C45.2019 18.0137 45.1985 17.3255 45.1958 16.6599C45.1947 16.4165 45.1941 16.188 45.2135 15.9794C45.3208 14.8392 45.5431 14.5554 46.2987 13.7466C47.2677 12.7087 47.2888 12.1909 47.2196 11.8915C47.0918 11.3366 46.4065 11.0147 45.9015 10.8205C45.047 10.4918 44.1006 10.3674 43.1852 10.2473C42.4518 10.151 41.6968 10.052 40.9805 9.85009C40.5623 9.73225 40.1464 9.63045 39.7448 9.53197L39.7288 9.5281C38.4234 9.20833 37.1906 8.90681 35.9942 8.11402C35.68 7.906 35.3404 7.54694 34.9809 7.16631C34.2983 6.44378 33.5256 5.62609 32.6993 5.62609L32.7004 5.62554Z" fill="#F7EEDF"/>
<path d="M10.2965 32.9994C9.79149 32.3709 10.7296 30.9972 11.1864 30.4384C11.5803 29.9571 12.3198 29.5936 12.9642 29.6782C15.2524 29.9792 15.2524 30.7023 16.5168 30.1601C17.7812 29.6179 19.0462 30.0998 19.1662 30.943C19.2868 31.7861 19.4671 33.1111 20.4909 33.7739C21.5147 34.4367 20.6115 39.7367 20.4909 40.0382C20.3704 40.3392 17.9018 40.7608 16.6971 39.0745C15.493 37.3882 15.2518 36.2436 14.8304 35.7014C14.2999 35.0198 13.6749 34.4466 12.9099 34.0389C12.1561 33.6372 11.2207 33.5747 10.4962 33.1659C10.4132 33.1189 10.3474 33.063 10.2959 32.9994H10.2965Z" fill="#2E2F42"/>
<path d="M18.5053 41.5104C17.8587 41.8695 17.5699 42.7292 17.1429 43.2902C16.5096 44.1223 15.7928 44.8929 15.0018 45.5773C14.5981 45.9264 14.0903 46.1549 13.6716 46.4896C13.5305 46.6024 13.1566 46.8304 13.1788 47.0462C13.2142 47.3919 14.2911 47.3372 14.5521 47.4224C15.6351 47.7759 16.7148 48.2318 17.6772 48.8458C18.1579 49.1529 18.612 49.502 19.0114 49.9108C20.6696 51.6115 23.496 48.6511 23.8483 46.8365C24.2012 45.0224 21.2946 44.6517 20.5678 42.7746C20.3056 42.098 19.5877 41.1503 18.7569 41.4036C18.6673 41.4308 18.5838 41.4673 18.5058 41.5104H18.5053Z" fill="#2E2F42"/>
<path d="M24.5679 44.7967C24.5679 44.7967 23.6929 44.9184 24.173 45.5817C24.6531 46.2451 24.6642 47.9258 24.2986 48.4658C23.933 49.0057 25.4933 49.4561 26.2732 49.4561C27.0531 49.4561 32.8232 50.0331 34.7464 42.9156C34.7464 42.9156 35.5799 39.5171 33.2076 39.7738C30.8353 40.0305 30.89 40.4117 29.6018 39.76C29.6018 39.76 28.7224 39.5459 29.005 40.3171C29.2877 41.0877 30.0416 42.5018 28.6278 43.2874C27.214 44.073 26.0669 44.8935 24.5674 44.7972L24.5679 44.7967Z" fill="#2E2F42"/>
<path d="M20.2586 29.6661C20.2586 29.6661 19.9611 30.8212 20.6646 31.9084C21.3682 32.9955 21.8156 34.5949 21.7515 35.4264C21.6873 36.2579 21.1757 39.9409 21.4318 41.1055C21.6873 42.2706 22.1553 43.5807 23.6028 43.8219C25.0497 44.0631 27.2898 43.3051 28.1167 42.0985C28.9436 40.8925 27.9099 38.8587 27.8413 37.8596C27.7721 36.8599 27.5658 35.4818 27.9104 34.7233C28.255 33.9648 28.255 32.2763 27.807 31.5526C27.359 30.829 28.5305 30.5186 28.0481 30.0362C27.5658 29.5538 25.3191 30.3809 23.8754 29.1056C22.4318 27.8304 20.2592 29.6666 20.2592 29.6666L20.2586 29.6661Z" fill="#2E2F42"/>
<path d="M28.9431 30.6857C28.9431 30.6857 29.2899 31.0614 29.8319 30.8893C30.374 30.7167 31.1622 29.8298 31.6793 30.2243C32.1965 30.6188 33.108 31.6782 33.6501 31.9985C34.1921 32.3189 34.732 34.2132 34.6883 34.9921C34.6446 35.7705 33.904 38.4737 33.5986 38.6917C33.2933 38.9096 31.4404 39.3489 30.6843 39.2156C29.9282 39.0822 28.7058 38.9013 28.4862 37.3888C28.2672 35.8762 28.6256 35.4856 28.8385 34.6823C28.9138 34.3991 29.2777 33.0846 28.8324 32.2171C28.3877 31.3496 28.6118 30.5114 28.9425 30.6863L28.9431 30.6857Z" fill="#2E2F42"/>
<path d="M38.3377 31.7114C38.1176 31.188 38.5031 29.3989 37.7044 28.7931C36.9062 28.1873 36.4931 29.7291 36.4931 30.2796C36.4931 30.8301 35.102 31.7109 35.1009 31.7114C34.7861 31.9106 35.0533 32.5191 35.1296 32.7725C35.2757 33.2566 35.0704 34.8627 35.9305 34.6447C36.4792 34.5058 37.0655 33.8779 37.5451 33.5692C37.8543 33.3695 38.2354 33.1969 38.4732 32.9075C38.8294 32.4743 38.5296 32.1695 38.3371 31.712L38.3377 31.7114Z" fill="#2E2F42"/>
<path d="M39.965 34.1302C39.4052 33.6815 39.1336 33.4453 38.4931 33.9C38.1032 34.1767 37.8183 34.5695 37.4499 34.8704C36.7049 35.4784 36.0373 35.8198 35.7994 36.8184C35.5931 37.6848 35.6673 38.6634 35.1152 39.4147C34.4947 40.259 35.9587 40.566 35.9587 40.566C39.1629 40.3702 40.7863 38.5047 41.4622 37.0939C41.8389 36.3077 41.5087 35.4972 40.9589 34.892C40.6868 34.5921 40.3344 34.4018 40.012 34.1661C39.997 34.1551 39.9815 34.1429 39.9655 34.1302H39.965Z" fill="#2E2F42"/>
<path d="M16.9283 40.8399C16.9006 40.7082 16.8487 40.5777 16.7657 40.4476C16.2789 39.6842 15.243 39.459 15.0129 38.4726C14.6462 36.9014 10.8994 33.5814 10.3899 34.3349C9.70463 35.3495 9.11556 36.3835 8.80637 37.583C8.53811 38.6225 8.38988 39.7378 8.5619 40.8056C8.76765 42.0819 9.47232 43.1591 10.1206 44.249C10.3982 44.7164 10.6549 45.2553 11.0581 45.6315C11.4928 46.0376 12.0305 46.3076 12.5836 46.0459C13.176 45.766 13.6528 45.273 14.155 44.8631C14.8326 44.3093 15.4393 43.6736 15.9637 42.9732C16.4012 42.389 17.0887 41.6078 16.9283 40.8404V40.8399Z" fill="#2E2F42"/>
<path d="M41.7554 27.9488C41.7554 27.9488 38.7935 28.8816 39.5114 30.3443C40.2299 31.8071 41.0552 32.4981 41.1796 33.4895C41.3035 34.4815 42.7211 35.0126 43.2267 35.5448C43.7322 36.077 44.1775 36.7979 45.8208 35.6328C47.4641 34.4682 47.4298 33.1498 47.2517 31.8071C47.0736 30.4638 47.5819 29.4724 48.2628 28.1729C48.9437 26.8739 50.827 19.4023 51.6589 18.1061C52.4908 16.8093 53.4145 15.3637 52.8005 14.0984C52.1866 12.8331 49.9116 11.8655 47.9298 13.7477C45.948 15.6298 46.3507 15.642 46.2389 17.295C46.1272 18.9481 44.0597 26.3145 41.7548 27.9494L41.7554 27.9488Z" fill="#2E2F42"/>
<path d="M18.284 56.0767C17.4582 54.339 17.128 52.6284 19.6154 53.0638C21.5374 53.4001 22.6962 52.4004 24.3965 51.9307C26.3528 51.3908 28.2699 53.1855 30.2136 52.1266C32.098 51.0998 33.5903 47.5596 34.6114 48.8547C35.6324 50.1498 33.8769 53.0604 33.1218 54.7191C29.1953 63.3435 30.2822 78.6434 30.0985 84.0835H21.1027C21.2183 84.0835 21.1137 64.3311 21.1005 64.1529C20.9727 62.4086 20.7498 60.5425 19.9328 59.0061C19.6485 58.4711 18.8498 57.2678 18.2846 56.0767H18.284Z" fill="#2E2F42"/>
<path d="M10.2849 84.0829C10.8402 80.338 10.4182 57.7658 10.7611 55.934C11.1035 54.1022 10.2849 50.5399 10.2849 50.5399C10.2849 50.5399 10.739 48.1427 11.8291 48.9416C12.9193 49.7404 13.5549 50.24 15.5533 50.5399C17.5517 50.8397 18.3692 50.8397 17.461 52.438C16.5527 54.0364 14.8265 53.8366 14.8265 55.934C14.8265 55.934 14.6694 78.8426 14.9548 82.8281L10.2849 84.0829Z" fill="#2E2F42"/>
</svg>
