<svg width="57" height="89" viewBox="0 0 57 89" fill="none" xmlns="http://www.w3.org/2000/svg">
<path d="M6.16338 29.8213C6.16338 29.8213 7.29981 34.0658 8.23708 33.2683C8.50244 32.4674 8.86505 31.667 9.32724 30.9598C9.97805 29.9643 11.6271 29.6098 11.7313 28.295C11.9733 25.2593 11.8702 27.1401 11.1239 24.248C10.3711 21.3313 10.5515 22.8377 9.36766 17.7817C8.64303 14.6869 7.92954 10.1881 6.26121 8.5247C4.59346 6.86126 -0.398654 9.53074 0.0254585 11.8557C0.449571 14.1812 2.19992 15.9484 2.78043 18.1778C3.46405 20.804 2.17355 19.3825 6.16279 29.8208L6.16338 29.8213Z" fill="#2E2F42"/>
<path d="M12.7781 25.0203C12.7781 25.0203 12.5415 29.0063 14.2391 28.6677C14.2391 28.6677 16.9496 27.7735 19.4884 28.3829C21.0015 28.7462 20.0537 24.4144 20.1181 23.0715C20.1702 21.9758 19.4456 20.7424 19.114 19.7382C17.9729 16.2794 18.8698 15.7533 18.0409 12.2184C17.2219 8.72568 17.9753 8.87978 16.2437 5.72574C15.8172 4.9488 15.3574 4.12206 14.7083 3.50391C12.9076 1.7889 8.19549 4.2287 8.69927 6.67259C9.20305 9.11649 10.1315 11.3811 11.0952 13.6135C12.1859 16.14 11.0963 15.1275 12.7781 25.0203Z" fill="#2E2F42"/>
<path d="M9.88082 29.7176C8.65183 29.7176 8.25935 28.6331 8.11114 28.2253C8.10236 28.2013 8.09416 28.179 8.08654 28.1579C8.03675 28.0964 7.86511 27.9646 7.74971 27.8755C7.3215 27.5456 6.78843 27.1349 6.77671 26.546C6.76968 26.2161 6.9296 25.9121 7.2512 25.6425C8.16094 24.8802 8.56162 24.7478 9.11578 24.5638C9.22825 24.5269 9.34951 24.4865 9.48658 24.4373C9.64533 24.3681 10.5574 23.982 11.1684 23.982C11.3799 23.982 11.5509 24.0248 11.6897 24.1138C12.2298 24.4578 12.0488 25.3209 11.7776 26.3292C11.7571 26.4042 11.7337 26.4933 11.7202 26.549C11.729 26.5818 11.7419 26.6257 11.753 26.6638C11.8456 26.982 11.9996 27.514 11.9469 28.063C11.8749 28.8054 11.449 29.3268 10.7144 29.57C10.418 29.6684 10.1374 29.7176 9.88023 29.7176H9.88082Z" fill="#2E2F42"/>
<path d="M11.169 24.4256C11.2844 24.4256 11.3828 24.4437 11.4519 24.4877C11.8537 24.7437 11.2844 26.3351 11.2703 26.5454C11.2557 26.7558 12.1607 28.6231 10.575 29.1487C10.3102 29.2366 10.0806 29.2741 9.88022 29.2741C8.88261 29.2741 8.62897 28.3354 8.49248 27.978C8.32846 27.5491 6.49962 26.8501 7.53588 25.9824C8.57215 25.114 8.8545 25.1398 9.65176 24.8492C9.65176 24.8492 10.6113 24.4256 11.169 24.4256ZM11.169 23.539C10.4906 23.539 9.56682 23.9193 9.32254 24.0254C9.19836 24.0705 9.08588 24.1074 8.97693 24.1437C8.3349 24.3558 7.89438 24.5257 6.96649 25.3033C6.43108 25.7515 6.32681 26.232 6.33325 26.5554C6.34965 27.3569 7.02917 27.8808 7.47906 28.227C7.54818 28.2804 7.64425 28.3542 7.70459 28.4057C7.87505 28.8751 8.37356 30.1612 9.88022 30.1612C10.1848 30.1612 10.5123 30.1038 10.8532 29.9907C11.7542 29.6924 12.2989 29.0227 12.3874 28.1057C12.4483 27.4741 12.2738 26.8695 12.1789 26.5431C12.1876 26.5103 12.197 26.4757 12.2052 26.4441C12.4501 25.5335 12.7857 24.2867 11.9276 23.74C11.7184 23.6064 11.4624 23.539 11.1684 23.539H11.169Z" fill="#F7EEDF"/>
<path d="M18.5318 25.046C16.7674 25.046 16.4961 23.5513 16.3936 22.9889C16.3872 22.9543 16.3819 22.9221 16.3761 22.8933C16.3362 22.8107 16.1482 22.6074 16.0222 22.4715C15.6005 22.0156 15.0756 21.4485 15.1723 20.7981C15.2256 20.4383 15.4581 20.1354 15.8641 19.8975C17.0603 19.1973 17.5459 19.1229 18.2184 19.0204C18.3584 18.9993 18.5089 18.9764 18.68 18.9448C18.8053 18.9137 19.6284 18.7175 20.2915 18.7175C20.7355 18.7175 21.0354 18.8024 21.2369 18.9841C21.7577 19.4546 21.3852 20.3961 20.8837 21.4871C20.841 21.5797 20.7906 21.6904 20.7648 21.752C20.7683 21.7942 20.7759 21.8592 20.7824 21.9137C20.8615 22.601 21.1034 24.6916 19.0684 25.0033C18.8815 25.032 18.7011 25.0466 18.5324 25.0466L18.5318 25.046Z" fill="#2E2F42"/>
<path d="M20.2915 19.1604C20.5715 19.1604 20.8152 19.1997 20.9399 19.3128C21.3576 19.6901 20.3811 21.4297 20.3231 21.6723C20.2645 21.9143 20.9499 24.2662 19.001 24.565C18.8311 24.5908 18.6753 24.6031 18.5318 24.6031C17.028 24.6031 16.905 23.2777 16.8078 22.792C16.7012 22.26 14.7106 21.0869 16.0878 20.2807C17.465 19.4745 17.789 19.56 18.7737 19.379C18.7737 19.379 19.6336 19.161 20.2915 19.161M20.2915 18.2745C19.5956 18.2745 18.7754 18.4655 18.5868 18.5118C18.4292 18.5405 18.2881 18.5622 18.1516 18.5827C17.3813 18.7005 16.8482 18.8083 15.6403 19.5155C14.9836 19.8999 14.785 20.3903 14.7341 20.7336C14.6064 21.5938 15.2373 22.2752 15.6977 22.7732C15.7803 22.8623 15.8975 22.9889 15.9572 23.065C15.9572 23.0662 15.9572 23.0674 15.9578 23.0685C16.0175 23.3984 16.1177 23.951 16.4604 24.4595C16.7773 24.9294 17.3936 25.4902 18.5318 25.4902C18.7227 25.4902 18.926 25.4738 19.1351 25.4421C20.1761 25.2828 20.896 24.6523 21.162 23.6674C21.35 22.9713 21.2668 22.2512 21.2223 21.8639C21.2211 21.851 21.2194 21.8375 21.2176 21.8235C21.2393 21.776 21.2639 21.7215 21.2867 21.6729C21.7308 20.7067 22.3388 19.3831 21.5345 18.6565C21.251 18.3999 20.8445 18.2757 20.2921 18.2757L20.2915 18.2745Z" fill="#F7EEDF"/>
<path d="M22.4144 23.8701C22.4144 23.8701 21.6874 27.5825 23.3241 27.4794C23.3241 27.4794 25.8588 27.8409 28.1651 28.735C29.54 29.2676 30.2939 24.8521 30.5241 23.5994C30.7115 22.5775 30.3015 19.5131 30.1175 18.5282C29.4843 15.1363 29.0924 15.5248 28.762 12.1012C28.4352 8.71864 29.5042 9.06258 28.2776 5.88217C27.9753 5.09879 27.5535 1.69749 27.0222 1.03481C25.549 -0.803826 19.8006 -0.0204418 19.7977 2.34377C19.7877 10.7647 21.0729 10.9229 21.3629 13.208C21.8948 17.3985 22.1455 14.0705 22.4138 23.8707L22.4144 23.8701Z" fill="#2E2F42"/>
<path d="M31.9722 20.876C31.7794 22.8471 31.9487 24.7847 31.1585 26.6251C30.6208 27.8767 30.2833 29.178 31.5574 29.3737C32.4765 29.5143 33.9076 27.6868 34.593 29.0831C34.972 29.8553 36.4763 31.599 37.2015 30.6891C37.9273 29.7797 38.9126 27.2023 39.7462 27.354C39.7462 27.354 39.6706 24.9289 39.2161 22.6549C38.1675 17.4109 37.1904 15.7328 37.9367 10.3991C38.3139 7.70089 39.3256 1.69047 37.8875 1.30727C36.2848 0.880131 33.2703 -0.500312 32.2024 0.964503C30.1568 3.7705 31.1796 8.19951 31.6359 11.5118C32.2879 16.2402 32.4373 16.123 31.9722 20.8766V20.876Z" fill="#2E2F42"/>
<path d="M14.0587 18.363C13.3616 18.363 12.8631 17.8192 12.8191 17.0101C12.7295 15.3824 12.6381 13.7137 12.3933 12.1246C12.2878 11.4391 11.8555 10.7635 11.3974 10.0475C10.7431 9.02449 10.0659 7.96631 10.2405 6.68371C10.4133 5.41753 11.7114 4.99859 12.6592 4.69274C12.8959 4.61657 13.1191 4.5445 13.2778 4.47302C13.5976 4.32947 13.928 4.1197 14.2777 3.89764C15.0106 3.43241 15.768 2.95137 16.6086 2.95137C16.7691 2.95137 16.9296 2.96953 17.0843 3.00586C17.4891 3.10019 17.7796 3.3287 17.9495 3.68436C18.2857 4.3904 18.001 5.38413 17.8481 5.91791C17.3192 7.76592 17.4463 10.2116 18.158 11.8662C18.3238 12.2524 18.5903 12.5523 18.8727 12.8693C19.3167 13.3691 19.8205 13.9363 19.9254 14.9084C20.0015 15.6144 19.8328 16.27 19.4362 16.805C18.9436 17.47 18.2834 17.5597 17.7023 17.5597C17.5529 17.5597 17.4024 17.5538 17.2565 17.5474C17.1153 17.5415 16.9747 17.5357 16.8353 17.5357C16.5904 17.5357 16.2765 17.5521 16.0175 17.6792C15.3357 18.0149 14.631 18.3624 14.0592 18.3624L14.0587 18.363Z" fill="#2E2F42"/>
<path d="M16.608 3.39493C16.7422 3.39493 16.8775 3.40958 17.014 3.44122C18.0403 3.68145 17.7556 4.88553 17.5014 5.7732C16.9519 7.69153 17.0468 10.2444 17.8329 12.0719C18.3115 13.184 19.4128 13.5918 19.5616 14.967C19.6237 15.5406 19.486 16.0738 19.1632 16.5097C18.779 17.0283 18.2547 17.1167 17.7017 17.1167C17.4152 17.1167 17.1212 17.0933 16.8347 17.0933C16.4973 17.0933 16.1704 17.1261 15.8793 17.2697C15.2302 17.5896 14.5589 17.92 14.0587 17.92C13.5584 17.92 13.2157 17.5603 13.1841 16.9808C13.0939 15.3384 13.0019 13.6621 12.7529 12.0432C12.4723 10.2227 10.3383 8.68643 10.6013 6.7558C10.7741 5.49079 12.6194 5.24119 13.4043 4.88846C14.4148 4.43495 15.4745 3.39493 16.608 3.39493ZM16.608 2.50843C15.6778 2.50843 14.8436 3.0381 14.1073 3.50508C13.7681 3.72012 13.4477 3.92402 13.1501 4.05762C13.0078 4.12148 12.7928 4.19062 12.5649 4.26445C11.5796 4.5826 10.0905 5.06306 9.87963 6.61166C9.6787 8.08585 10.4379 9.27235 11.108 10.3194C11.538 10.9915 11.944 11.626 12.0336 12.2061C12.2743 13.7693 12.3657 15.4257 12.4536 17.0277V17.0394C12.5116 18.0794 13.1712 18.806 14.0592 18.806C14.7024 18.806 15.4405 18.4421 16.1552 18.0905C16.3116 18.0138 16.5213 17.9792 16.8353 17.9792C16.9659 17.9792 17.1013 17.9845 17.2442 17.9903C17.393 17.9962 17.5465 18.0026 17.7023 18.0026C18.325 18.0026 19.1164 17.9001 19.7086 17.1009C20.172 16.4757 20.3776 15.6765 20.288 14.8504C20.1655 13.7195 19.5868 13.068 19.1217 12.5442C18.8522 12.2407 18.6196 11.9787 18.4826 11.6606C17.8136 10.1061 17.6953 7.80402 18.1938 6.06265C18.366 5.46208 18.6858 4.34355 18.2664 3.46231C18.1117 3.13771 17.7937 2.71936 17.154 2.56936C16.9765 2.52776 16.7931 2.50667 16.6092 2.50667L16.608 2.50843Z" fill="#F7EEDF"/>
<path d="M24.5941 15.0502C24.1794 15.0408 23.866 14.8586 23.6627 14.5082C23.2099 13.7277 23.3417 12.659 23.4571 11.7162C23.5169 11.2282 23.5737 10.767 23.5544 10.3792C23.5157 9.61277 23.1466 8.61612 22.7893 7.65227C22.2369 6.16226 21.6658 4.62127 22.1045 3.43946C22.3617 2.74631 22.9135 2.29749 23.7916 2.06722C23.9433 2.02738 24.2304 1.90727 24.5631 1.76782C25.447 1.39751 26.7826 0.837952 27.809 0.837952C29.2172 0.837952 29.4673 1.91195 29.4908 2.55237C29.5253 3.48868 29.1399 4.28554 28.8001 4.98806C28.581 5.4404 28.3742 5.86754 28.3203 6.24605C28.1464 7.46243 28.0954 8.71279 28.1727 9.86296C28.2061 10.3581 28.3947 10.77 28.5939 11.2059C28.847 11.7584 29.1334 12.3848 29.0526 13.1945C28.9805 13.9146 28.5793 14.5762 28.0767 14.8029C27.9601 14.8556 27.8388 14.882 27.7158 14.882C27.485 14.882 27.28 14.7906 27.0996 14.7097C26.99 14.6611 26.8869 14.6148 26.7885 14.5926C26.7627 14.5867 26.7311 14.5838 26.6948 14.5838C26.4804 14.5838 26.1676 14.6834 25.8366 14.7883C25.4295 14.9177 25.0083 15.0513 24.6287 15.0513H24.5947L24.5941 15.0502Z" fill="#2E2F42"/>
<path d="M27.8089 1.2809C28.5599 1.2809 29.1223 1.60257 29.158 2.57404C29.209 3.94452 28.1505 5.06071 27.9929 6.16283C27.8084 7.45187 27.7632 8.7538 27.8406 9.90221C27.9273 11.1942 28.844 11.9172 28.7222 13.1353C28.6665 13.692 28.3561 14.2076 27.9694 14.3822C27.8816 14.4215 27.7972 14.4379 27.7152 14.4379C27.4153 14.4379 27.1441 14.2228 26.8436 14.1549C26.7979 14.1443 26.7475 14.1396 26.6942 14.1396C26.1605 14.1396 25.2771 14.6078 24.6281 14.6078C24.6187 14.6078 24.6088 14.6078 24.5994 14.6078C24.3194 14.6019 24.0804 14.5047 23.9257 14.2386C23.3593 13.2619 23.948 11.5785 23.8865 10.351C23.7523 7.68624 20.3624 3.42011 23.8554 2.50314C24.4471 2.34787 26.4411 1.28207 27.8084 1.28207M27.8084 0.395567C26.7305 0.395567 25.3656 0.967429 24.4623 1.34594C24.1524 1.47601 23.8601 1.59847 23.7266 1.63362C22.7401 1.8926 22.1115 2.41935 21.8052 3.24434C21.2932 4.62243 21.9018 6.26303 22.4894 7.84971C22.8321 8.77489 23.187 9.73112 23.221 10.4102C23.238 10.7471 23.1841 11.1836 23.1273 11.6459C23.0008 12.6783 22.8567 13.8478 23.3979 14.7806C23.6662 15.2429 24.0663 15.4832 24.5877 15.4949C24.6011 15.4949 24.614 15.4949 24.6275 15.4949C25.0463 15.4949 25.4869 15.3548 25.9127 15.2195C26.2103 15.1246 26.5184 15.0267 26.6936 15.0267C26.72 15.0267 26.7311 15.0291 26.7317 15.0291C26.8049 15.0455 26.8963 15.0865 26.9929 15.1293C27.188 15.216 27.4299 15.3244 27.7152 15.3244C27.8745 15.3244 28.0321 15.2898 28.1833 15.2218C28.8112 14.9388 29.2933 14.1472 29.383 13.2519C29.4796 12.2869 29.1463 11.5592 28.8786 10.9745C28.6917 10.5667 28.5306 10.2151 28.5043 9.82252C28.4293 8.71278 28.4791 7.5046 28.6472 6.32806C28.6894 6.03452 28.8792 5.64253 29.0801 5.22769C29.4292 4.50642 29.8639 3.60878 29.8235 2.53009C29.7995 1.88792 29.5552 0.394394 27.8084 0.394394V0.395567Z" fill="#F7EEDF"/>
<path d="M5.50379 23.7394C4.99122 23.7394 4.65732 23.4154 4.60929 22.8729C4.4974 21.5991 4.12308 18.1778 3.86006 17.2685C3.78684 17.0148 3.40549 16.4511 3.03702 15.9056C2.05524 14.4531 0.942235 12.8072 1.89532 12.0039C2.40671 11.5727 3.0956 11.3073 3.76165 11.0501C4.43472 10.7905 5.13064 10.5216 5.61333 10.0962L5.652 10.0622L5.69652 10.0393C5.85351 9.95965 7.25472 9.25888 8.12872 9.25888C8.39818 9.25888 8.6079 9.32216 8.76958 9.45282C9.30792 9.88758 9.05837 10.7296 8.79476 11.6207C8.62489 12.195 8.43275 12.8453 8.46028 13.3334C8.55108 14.9219 9.20189 18.1808 9.99095 18.7397C10.7162 19.2536 11.193 19.9778 11.3002 20.7272C11.3787 21.2797 11.2504 21.7983 10.9288 22.2272C10.6623 22.5828 10.3612 22.7557 10.0068 22.7557C9.80408 22.7557 9.61429 22.6994 9.43035 22.6449C9.24582 22.5904 9.05544 22.5342 8.84749 22.5342C8.72388 22.5342 8.60263 22.5535 8.47668 22.594C8.20194 22.6813 7.83583 22.8606 7.44745 23.0498C6.75387 23.3885 6.03686 23.7383 5.50262 23.7383L5.50379 23.7394Z" fill="#2E2F42"/>
<path d="M8.1287 9.70359C8.29565 9.70359 8.43565 9.73523 8.52996 9.81081C9.08002 10.2549 7.98401 12.086 8.05723 13.3627C8.13045 14.6394 8.73382 18.3782 9.77243 19.1136C10.8104 19.8489 11.2674 21.0793 10.6171 21.9477C10.4074 22.2278 10.2124 22.3139 10.0079 22.3139C9.67987 22.3139 9.32664 22.0924 8.84922 22.0924C8.70102 22.0924 8.54109 22.1135 8.36594 22.1697C7.57513 22.4217 6.22898 23.2965 5.50494 23.2965C5.22845 23.2965 5.04275 23.1693 5.01287 22.8313C4.90567 21.6073 4.52784 18.1081 4.24666 17.1355C3.96548 16.1634 1.18532 13.1635 2.14308 12.3567C3.10027 11.5498 4.83538 11.3536 5.86813 10.443C5.86813 10.443 7.31972 9.70418 8.12987 9.70418M8.12987 8.81767C7.18909 8.81767 5.79725 9.50203 5.52779 9.63914L5.43816 9.68484L5.36142 9.75281C4.93262 10.1307 4.27009 10.3862 3.62865 10.634C2.93215 10.9024 2.21221 11.1801 1.64985 11.6547C1.2767 11.9694 1.09628 12.4481 1.14138 13.0029C1.16891 13.3404 1.27963 13.7137 1.48055 14.1437C1.79102 14.8088 2.28133 15.533 2.71364 16.1728C3.00947 16.6099 3.41425 17.2093 3.47635 17.4068C3.71008 18.2147 4.07678 21.4245 4.208 22.918C4.27536 23.6879 4.78442 24.1853 5.50494 24.1853C6.12529 24.1853 6.88213 23.8156 7.61437 23.4582C7.97288 23.283 8.3431 23.1025 8.59147 23.0234C8.67993 22.9953 8.76428 22.9813 8.84922 22.9813C9.00328 22.9813 9.15325 23.0258 9.32664 23.0768C9.5264 23.1359 9.75193 23.2027 10.0079 23.2027C10.4842 23.2027 10.8989 22.9707 11.2422 22.5125C11.6335 21.9905 11.7958 21.3336 11.7003 20.6628C11.5761 19.7885 11.0331 18.9536 10.2112 18.3712C9.75075 18.0448 8.9863 15.4334 8.86445 13.3094C8.84102 12.9051 9.02086 12.2975 9.17961 11.7614C9.30262 11.3454 9.4192 10.9522 9.4684 10.5866C9.58087 9.75457 9.28095 9.31864 9.00973 9.0995C8.77951 8.91376 8.4831 8.81943 8.12928 8.81943L8.12987 8.81767Z" fill="#F7EEDF"/>
<path d="M26.5343 22.1112C24.7693 22.1112 24.4986 20.6165 24.3961 20.054C24.3897 20.0194 24.3844 19.9872 24.3785 19.9585C24.3387 19.8759 24.1507 19.6725 24.0253 19.5366C23.6035 19.0808 23.0787 18.5136 23.1747 17.8632C23.2281 17.5029 23.4606 17.1999 23.8666 16.9626C25.0628 16.2625 25.5484 16.188 26.2209 16.0855C26.3609 16.0644 26.5114 16.041 26.6825 16.0099C26.8078 15.9789 27.6303 15.7826 28.294 15.7826C28.738 15.7826 29.0385 15.8675 29.2394 16.0492C29.7602 16.5191 29.3876 17.4607 28.8862 18.5517C28.8434 18.6442 28.7925 18.755 28.7673 18.8171C28.7708 18.8593 28.7784 18.9243 28.7849 18.9788C28.8639 19.6655 29.1053 21.7561 27.0703 22.0678C26.8834 22.0965 26.703 22.1112 26.5343 22.1112Z" fill="#2E2F42"/>
<path d="M28.294 16.2255C28.574 16.2255 28.8177 16.2648 28.9424 16.3779C29.3601 16.7552 28.3836 18.4948 28.3256 18.7374C28.267 18.9794 28.9524 21.3313 27.0035 21.6301C26.8336 21.6559 26.6778 21.6682 26.5343 21.6682C25.0305 21.6682 24.9075 20.3428 24.8103 19.8571C24.7037 19.3251 22.7131 18.1521 24.0903 17.3458C25.4675 16.5396 25.7915 16.6251 26.7762 16.4441C26.7762 16.4441 27.6361 16.2261 28.294 16.2261M28.294 15.3396C27.5981 15.3396 26.7779 15.5306 26.5893 15.5769C26.4317 15.6056 26.2906 15.6267 26.1541 15.6478C25.3838 15.7656 24.8507 15.8734 23.6428 16.5806C22.9861 16.965 22.7875 17.4554 22.7366 17.7988C22.6089 18.6589 23.2398 19.3403 23.7002 19.8384C23.7828 19.9274 23.9 20.054 23.9603 20.1307C23.9603 20.1319 23.9603 20.1331 23.9609 20.1342C24.0206 20.4641 24.1208 21.0167 24.4635 21.5252C24.7804 21.9951 25.3967 22.5559 26.5348 22.5559C26.7258 22.5559 26.9291 22.5395 27.1382 22.5078C28.1792 22.3485 28.8991 21.718 29.165 20.7331C29.3531 20.037 29.2699 19.3169 29.2254 18.9296C29.2242 18.9167 29.2225 18.9032 29.2207 18.8892C29.2424 18.8417 29.267 18.7872 29.2898 18.7386C29.7338 17.7724 30.3419 16.4488 29.537 15.7222C29.2535 15.4662 28.847 15.3414 28.2946 15.3414L28.294 15.3396Z" fill="#F7EEDF"/>
<path d="M33.9972 15.4433C33.5497 15.4339 33.2111 15.2517 32.992 14.9013C32.5035 14.1209 32.6452 13.0521 32.7706 12.1094C32.835 11.6213 32.8965 11.1602 32.8754 10.7723C32.8339 10.0059 32.4349 9.00926 32.0495 8.04541C31.4531 6.5554 30.8369 5.01442 31.3108 3.83261C31.5885 3.13946 32.1842 2.69064 33.1314 2.46037C33.2949 2.42053 33.6053 2.30041 33.9644 2.16096C34.9181 1.79065 36.3597 1.23109 37.4675 1.23109C38.987 1.23109 39.2571 2.3051 39.2828 2.94551C39.3203 3.88182 38.9044 4.67868 38.5371 5.38121C38.301 5.83354 38.0779 6.26068 38.0193 6.63919C37.8312 7.85557 37.7762 9.10594 37.8599 10.2561C37.8957 10.7512 38.0995 11.1631 38.3145 11.5991C38.5875 12.1516 38.8968 12.7779 38.8095 13.5877C38.7322 14.3078 38.2987 14.9693 37.7563 15.1961C37.6303 15.2488 37.4997 15.2751 37.3667 15.2751C37.1177 15.2751 36.8969 15.1837 36.7018 15.1029C36.5841 15.0543 36.4722 15.008 36.3656 14.9857C36.3375 14.9798 36.3035 14.9769 36.2648 14.9769C36.0334 14.9769 35.696 15.0765 35.3387 15.1814C34.8994 15.3109 34.4448 15.4445 34.0353 15.4445H33.9984L33.9972 15.4433Z" fill="#2E2F42"/>
<path d="M37.4669 1.67406C38.2776 1.67406 38.8839 1.99573 38.9232 2.9672C38.9782 4.33768 37.8359 5.45387 37.6655 6.55599C37.4663 7.84503 37.4177 9.14696 37.5009 10.2954C37.5946 11.5873 38.584 12.3104 38.4522 13.5285C38.3919 14.0851 38.0574 14.6007 37.6397 14.7754C37.5448 14.8146 37.454 14.831 37.3655 14.831C37.0416 14.831 36.7493 14.616 36.4248 14.548C36.3756 14.5375 36.3211 14.5328 36.2637 14.5328C35.6878 14.5328 34.7342 15.0009 34.0336 15.0009C34.023 15.0009 34.0131 15.0009 34.0025 15.0009C33.7002 14.9951 33.4425 14.8978 33.2761 14.6318C32.6646 13.6551 33.3002 11.9717 33.2334 10.7442C33.0887 8.0794 29.4298 3.81328 33.2 2.8963C33.8385 2.74103 35.9907 1.67523 37.4663 1.67523M37.4663 0.788725C36.3035 0.788725 34.8302 1.36059 33.8549 1.7391C33.5204 1.86917 33.2047 1.99163 33.0606 2.02679C31.9962 2.28577 31.3178 2.81251 30.9869 3.6375C30.4345 5.01559 31.0911 6.65619 31.7255 8.24287C32.0958 9.16805 32.4783 10.1243 32.5152 10.8034C32.5334 11.1403 32.4754 11.5768 32.4144 12.0391C32.2774 13.0715 32.1221 14.241 32.7062 15.1738C32.9955 15.6361 33.4279 15.8763 33.9902 15.888C34.0049 15.888 34.0189 15.888 34.033 15.888C34.4852 15.888 34.9603 15.748 35.4201 15.6126C35.7417 15.5177 36.0739 15.4199 36.2631 15.4199C36.2912 15.4199 36.3035 15.4222 36.3041 15.4222C36.3832 15.4386 36.4816 15.4796 36.5859 15.5224C36.7962 15.6091 37.058 15.7175 37.3655 15.7175C37.5378 15.7175 37.7076 15.683 37.8705 15.615C38.5483 15.332 39.0684 14.5404 39.1651 13.6451C39.2694 12.6801 38.9097 11.9524 38.6209 11.3676C38.4194 10.9598 38.2454 10.6083 38.2173 10.2157C38.1364 9.10594 38.1903 7.89776 38.3719 6.72122C38.417 6.42767 38.6221 6.03569 38.8388 5.62086C39.2155 4.89958 39.6847 4.00194 39.6413 2.92325C39.6156 2.28108 39.352 0.787552 37.4669 0.787552L37.4663 0.788725Z" fill="#F7EEDF"/>
<path d="M36.3117 22.1112C34.5467 22.1112 34.2761 20.6165 34.1736 20.054C34.1671 20.0194 34.1619 19.9872 34.156 19.9585C34.1162 19.8759 33.9281 19.6725 33.8028 19.5366C33.381 19.0808 32.8561 18.5136 32.9522 17.8632C33.0055 17.5029 33.2381 17.1999 33.644 16.9626C34.8402 16.2625 35.3258 16.188 35.9983 16.0855C36.1383 16.0644 36.2889 16.041 36.4599 16.0099C36.5853 15.9789 37.4077 15.7826 38.0714 15.7826C38.5155 15.7826 38.816 15.8675 39.0169 16.0492C39.5377 16.5191 39.1651 17.4607 38.6637 18.5517C38.6209 18.6442 38.5699 18.755 38.5447 18.8171C38.5483 18.8593 38.5559 18.9243 38.5623 18.9788C38.6414 19.6655 38.8827 21.7561 36.8477 22.0678C36.6608 22.0965 36.4804 22.1112 36.3117 22.1112Z" fill="#2E2F42"/>
<path d="M38.072 16.2255C38.352 16.2255 38.5957 16.2648 38.7205 16.3779C39.1381 16.7552 38.1616 18.4948 38.1036 18.7374C38.045 18.9794 38.7304 21.3313 36.7815 21.6301C36.6116 21.6559 36.4558 21.6682 36.3123 21.6682C34.8085 21.6682 34.6855 20.3428 34.5883 19.8571C34.4817 19.3251 32.4912 18.1521 33.8684 17.3458C35.2455 16.5396 35.5695 16.6251 36.5542 16.4441C36.5542 16.4441 37.4141 16.2261 38.072 16.2261M38.072 15.3396C37.3761 15.3396 36.556 15.5306 36.3673 15.5769C36.2098 15.6056 36.0686 15.6273 35.9321 15.6478C35.1618 15.7656 34.6287 15.8734 33.4208 16.5806C32.7641 16.965 32.5656 17.4554 32.5146 17.7988C32.3869 18.6589 33.0178 19.3403 33.4782 19.8384C33.5608 19.9274 33.678 20.054 33.7383 20.1307C33.7383 20.1319 33.7383 20.1331 33.7389 20.1342C33.7986 20.4641 33.8988 21.0167 34.2415 21.5252C34.5584 21.9951 35.1747 22.5559 36.3129 22.5559C36.5038 22.5559 36.7071 22.5395 36.9162 22.5078C37.9572 22.3485 38.6771 21.718 38.9436 20.7331C39.1317 20.037 39.0485 19.3169 39.004 18.9296C39.0022 18.9167 39.0011 18.9032 38.9993 18.8892C39.021 18.8417 39.0456 18.7872 39.0684 18.738C39.5124 17.7718 40.1205 16.4482 39.3156 15.7216C39.0321 15.4656 38.6256 15.3408 38.0732 15.3408L38.072 15.3396Z" fill="#F7EEDF"/>
<path d="M31.377 10.7547C30.8621 11.5299 29.1176 11.9096 27.2208 12.2606C26.942 12.3121 26.625 12.3707 26.5501 12.3959C26.5026 12.4164 26.2941 12.5389 26.1101 12.6473C24.9678 13.3199 22.8408 14.5732 21.3342 14.1578C20.8269 14.0183 20.4397 13.7096 20.1825 13.2402C19.6969 12.3526 19.7455 11.4116 20.3225 10.5192C20.9569 9.53952 22.084 8.81708 22.7577 8.38584C22.8338 8.3372 22.9035 8.29208 22.9656 8.25166C23.1794 8.11162 23.5227 7.66105 23.8548 7.22512C24.7827 6.00815 26.1851 4.16893 27.8974 5.00094C29.5259 5.79194 29.8615 6.30052 30.3155 7.13078C30.3975 7.28078 30.4825 7.43605 30.5862 7.60655C32.0583 9.49089 31.51 10.5485 31.3852 10.7418L31.377 10.7547Z" fill="#2E2F42"/>
<path d="M21.9856 14.6839C21.7126 14.6839 21.4537 14.6505 21.2165 14.5855C20.5891 14.4127 20.1105 14.0318 19.7942 13.4529C19.2336 12.4281 19.2892 11.3008 19.9512 10.2778C20.6371 9.21784 21.8146 8.46317 22.5181 8.0126C22.5937 7.96396 22.6622 7.92002 22.7225 7.88076C22.8725 7.78291 23.2503 7.28663 23.5005 6.9591C24.2942 5.91791 25.491 4.3488 27.0304 4.3488C27.3878 4.3488 27.7451 4.43435 28.0913 4.60251C29.8375 5.45093 30.2218 6.03568 30.7045 6.91867C30.7824 7.06105 30.8603 7.20343 30.9517 7.3546C32.5474 9.41061 31.9722 10.6516 31.7572 10.9832L31.7484 10.9967C31.1345 11.9207 29.3718 12.3133 27.3017 12.6971C27.1119 12.7322 26.8114 12.7879 26.7077 12.8125C26.6403 12.8494 26.4376 12.9689 26.3351 13.0293C25.2842 13.6486 23.5262 14.6839 21.985 14.6839H21.9856ZM27.031 5.23531C25.9303 5.23531 24.9351 6.54075 24.2081 7.49405C23.7576 8.08408 23.4671 8.45321 23.2087 8.62254C23.1461 8.66356 23.0746 8.70926 22.9973 8.75906C22.3535 9.17156 21.2774 9.86119 20.6957 10.76C20.2054 11.5176 20.1638 12.2805 20.5721 13.0275C20.7718 13.3926 21.0601 13.6228 21.4525 13.7306C21.613 13.7746 21.7923 13.7974 21.9862 13.7974C23.2861 13.7974 24.9772 12.8014 25.8852 12.2664C26.2197 12.069 26.3158 12.0145 26.3761 11.9887L26.4118 11.9752C26.5056 11.9442 26.7047 11.9061 27.1365 11.8258C28.4176 11.5885 30.5546 11.1924 31.008 10.5098L31.0138 10.5004C31.0724 10.4102 31.5516 9.56237 30.2371 7.87959L30.2084 7.83799C30.1 7.66045 30.0133 7.50225 29.9295 7.34933C29.5394 6.63567 29.284 6.1681 27.7041 5.39995C27.4762 5.28921 27.256 5.23531 27.031 5.23531Z" fill="#F7EEDF"/>
<path d="M46.7476 19.2964C45.0909 19.5407 43.8719 18.0202 42.8931 16.7991C42.5357 16.3533 42.1983 15.9326 41.8914 15.6572C40.4767 14.3881 38.6262 13.5232 36.3914 13.0885C36.1799 13.0475 35.9315 13.0111 35.6679 12.9736C34.2884 12.7744 32.3992 12.5014 31.9212 10.9041C31.6822 10.1055 31.995 9.31746 32.2715 8.62255C32.4027 8.29268 32.5263 7.98096 32.5784 7.70558C32.6036 7.57257 32.6253 7.42141 32.6487 7.26086C32.7934 6.26772 33.0119 4.76658 34.3669 4.56678C34.4008 4.5615 34.436 4.5574 34.4717 4.55447C35.6093 4.45369 36.5448 5.44332 37.3702 6.31635C37.7334 6.70013 38.0761 7.06282 38.3667 7.25559C39.5687 8.05245 40.8381 8.36299 42.1825 8.69228C42.6172 8.79892 43.067 8.90907 43.5234 9.03739C44.2515 9.24247 45.0353 9.34559 45.7939 9.44461C46.7897 9.57527 47.8196 9.71003 48.7738 10.0774C49.403 10.3194 50.26 10.7331 50.4422 11.5264C50.5962 12.1955 50.2623 12.9256 49.3584 13.893C48.5928 14.7127 48.427 14.9236 48.3263 15.9964C48.3075 16.1962 48.3087 16.4283 48.3093 16.6732C48.3128 17.4355 48.3163 18.2997 47.7276 18.8552C47.5278 19.0438 47.2765 19.1763 46.9801 19.2495C46.9028 19.2688 46.8243 19.2841 46.7464 19.2952L46.7476 19.2964Z" fill="#2E2F42"/>
<path d="M46.3955 19.7657C44.7032 19.7657 43.5081 18.2745 42.5474 17.0763C42.2018 16.6451 41.8755 16.2378 41.5955 15.9871C40.2412 14.7718 38.4616 13.9428 36.3064 13.5232C36.1084 13.4846 35.8688 13.45 35.6152 13.4137C34.1906 13.2074 32.0553 12.8992 31.4959 11.0307C31.2124 10.0839 31.5709 9.1827 31.8591 8.4585C31.9821 8.14972 32.0981 7.85792 32.1426 7.62297C32.1655 7.50285 32.1848 7.36692 32.2059 7.22219L32.2094 7.19641C32.3629 6.14175 32.62 4.37577 34.3019 4.12792C34.3452 4.12147 34.388 4.11679 34.4325 4.11268C34.4993 4.10682 34.566 4.1039 34.6322 4.1039C35.8893 4.1039 36.8471 5.11755 37.6918 6.01167C38.0374 6.37729 38.3631 6.72181 38.6115 6.88587C39.7497 7.63996 40.9822 7.94171 42.2879 8.26163L42.3055 8.26573C42.7384 8.37178 43.186 8.48135 43.6441 8.61084C44.3406 8.80712 45.1079 8.9079 45.8496 9.00516C46.8747 9.13993 47.9303 9.27821 48.9332 9.66433C49.6566 9.94265 50.6448 10.4284 50.8745 11.428C51.0649 12.2559 50.6976 13.1102 49.683 14.1965C48.9683 14.9611 48.8588 15.0789 48.7686 16.0386C48.7521 16.2162 48.7527 16.4371 48.7539 16.6702C48.7574 17.4823 48.7621 18.4907 48.0334 19.1786C47.7774 19.4206 47.4593 19.5893 47.0879 19.6807C46.9983 19.703 46.9057 19.7212 46.8132 19.7346C46.6743 19.7551 46.5338 19.7657 46.3961 19.7657H46.3955ZM34.6322 4.9904C34.5918 4.9904 34.5514 4.99216 34.5104 4.99567C34.4829 4.99802 34.4565 5.00095 34.4307 5.00505C33.4817 5.14509 33.2533 6.18217 33.0869 7.32473L33.0828 7.35051C33.06 7.50812 33.0377 7.65578 33.0131 7.78703C32.9528 8.10636 32.8216 8.43623 32.6821 8.78603C32.4203 9.44402 32.1497 10.1249 32.3447 10.7764C32.7413 12.1024 34.3979 12.342 35.7294 12.5342C36.0059 12.574 36.2561 12.6104 36.4751 12.6531C38.789 13.1037 40.7104 14.0031 42.186 15.3273C42.5199 15.6267 42.8685 16.0615 43.2375 16.522C44.0793 17.5726 45.1273 18.8792 46.3943 18.8792C46.4892 18.8792 46.5859 18.8722 46.682 18.8581C46.7464 18.8487 46.8114 18.8358 46.8741 18.8206C47.0955 18.7661 47.2801 18.67 47.4236 18.5341C47.8723 18.1105 47.8688 17.3816 47.8658 16.6767C47.8647 16.4189 47.8641 16.1769 47.8846 15.956C47.9982 14.7484 48.2337 14.4478 49.0339 13.5912C50.0602 12.492 50.0825 11.9436 50.0093 11.6266C49.8739 11.0389 49.1481 10.6979 48.6133 10.4922C47.7083 10.1442 46.706 10.0124 45.7365 9.88523C44.9597 9.78327 44.1601 9.67839 43.4015 9.46453C42.9587 9.33973 42.5182 9.23192 42.0929 9.12762L42.0759 9.12352C40.6934 8.78486 39.3877 8.46553 38.1206 7.6259C37.7879 7.40559 37.4282 7.02532 37.0475 6.62221C36.3246 5.85699 35.5062 4.99099 34.6311 4.99099L34.6322 4.9904Z" fill="#F7EEDF"/>
<path d="M10.9048 33.9814C10.3699 33.3158 11.3634 31.8609 11.8473 31.2692C12.2644 30.7594 13.0476 30.3745 13.73 30.4641C16.1535 30.7828 16.1535 31.5487 17.4926 30.9744C18.8317 30.4002 20.1714 30.9106 20.2985 31.8035C20.4262 32.6965 20.6172 34.0998 21.7015 34.8017C22.7858 35.5036 21.8292 41.1168 21.7015 41.4361C21.5738 41.7549 18.9594 42.2014 17.6835 40.4155C16.4083 38.6296 16.1529 37.4173 15.7065 36.8431C15.1447 36.1212 14.4828 35.5142 13.6726 35.0824C12.8742 34.657 11.8836 34.5908 11.1162 34.1578C11.0284 34.108 10.9587 34.0488 10.9042 33.9814H10.9048Z" fill="#2E2F42"/>
<path d="M19.5985 42.9953C18.9137 43.3756 18.608 44.2861 18.1557 44.8802C17.485 45.7615 16.7258 46.5776 15.8881 47.3024C15.4605 47.6722 14.9227 47.9141 14.4793 48.2686C14.3299 48.3882 13.9339 48.6296 13.9574 48.8581C13.9948 49.2243 15.1354 49.1663 15.4119 49.2565C16.5589 49.6309 17.7023 50.1137 18.7216 50.7641C19.2306 51.0893 19.7116 51.459 20.1345 51.892C21.8907 53.6931 24.8841 50.5578 25.2573 48.636C25.631 46.7148 22.5527 46.3222 21.7829 44.3341C21.5053 43.6176 20.7449 42.6139 19.8651 42.8822C19.7702 42.9109 19.6817 42.9496 19.5991 42.9953H19.5985Z" fill="#2E2F42"/>
<path d="M26.0194 46.4757C26.0194 46.4757 25.0926 46.6046 25.6011 47.3071C26.1096 48.0096 26.1213 49.7897 25.7341 50.3616C25.3469 50.9334 26.9994 51.4104 27.8254 51.4104C28.6513 51.4104 34.7623 52.0215 36.7991 44.4835C36.7991 44.4835 37.6819 40.8842 35.1694 41.1561C32.657 41.4279 32.715 41.8316 31.3506 41.1414C31.3506 41.1414 30.4192 40.9147 30.7186 41.7314C31.0179 42.5476 31.8164 44.0453 30.3191 44.8773C28.8218 45.7093 27.6069 46.5782 26.0188 46.4763L26.0194 46.4757Z" fill="#2E2F42"/>
<path d="M21.4555 30.4512C21.4555 30.4512 21.1403 31.6746 21.8854 32.826C22.6306 33.9773 23.1045 35.6712 23.0365 36.5519C22.9686 37.4325 22.4267 41.333 22.6979 42.5664C22.9686 43.8004 23.4641 45.1878 24.9972 45.4433C26.5296 45.6988 28.902 44.896 29.7778 43.6181C30.6536 42.3408 29.5587 40.187 29.4861 39.1288C29.4129 38.07 29.1944 36.6105 29.5593 35.8072C29.9242 35.0039 29.9242 33.2156 29.4498 32.4492C28.9753 31.6828 30.216 31.3541 29.7052 30.8432C29.1944 30.3323 26.8149 31.2082 25.286 29.8577C23.757 28.5071 21.4561 30.4518 21.4561 30.4518L21.4555 30.4512Z" fill="#2E2F42"/>
<path d="M30.653 31.5311C30.653 31.5311 31.0203 31.9289 31.5943 31.7467C32.1684 31.5639 33.0032 30.6247 33.5509 31.0424C34.0986 31.4602 35.064 32.5822 35.6381 32.9215C36.2121 33.2607 36.7839 35.2669 36.7376 36.0919C36.6913 36.9163 35.9069 39.7792 35.5836 40.01C35.2602 40.2409 33.2978 40.7061 32.497 40.5649C31.6963 40.4237 30.4017 40.2321 30.1691 38.6302C29.9371 37.0282 30.3167 36.6146 30.5423 35.7638C30.6219 35.4638 31.0074 34.0717 30.5358 33.1529C30.0648 32.2342 30.3021 31.3465 30.6524 31.5317L30.653 31.5311Z" fill="#2E2F42"/>
<path d="M40.6026 32.6174C40.3695 32.0631 40.7778 30.1682 39.9319 29.5266C39.0866 28.885 38.649 30.518 38.649 31.101C38.649 31.684 37.1757 32.6168 37.1746 32.6174C36.8413 32.8283 37.1242 33.4728 37.205 33.7412C37.3597 34.2539 37.1423 35.9548 38.0533 35.724C38.6344 35.5769 39.2553 34.9119 39.7632 34.5849C40.0906 34.3734 40.4942 34.1906 40.7461 33.8841C41.1234 33.4254 40.8059 33.1025 40.602 32.618L40.6026 32.6174Z" fill="#2E2F42"/>
<path d="M42.326 35.1791C41.7332 34.7039 41.4456 34.4537 40.7672 34.9353C40.3542 35.2283 40.0526 35.6443 39.6624 35.963C38.8734 36.607 38.1663 36.9685 37.9144 38.0261C37.6959 38.9436 37.7744 39.9801 37.1898 40.7758C36.5325 41.6699 38.0831 41.9951 38.0831 41.9951C41.4766 41.7877 43.1959 39.812 43.9117 38.3179C44.3107 37.4853 43.961 36.6269 43.3787 35.9859C43.0905 35.6683 42.7173 35.4667 42.3758 35.2171C42.36 35.2054 42.3436 35.1925 42.3266 35.1791H42.326Z" fill="#2E2F42"/>
<path d="M17.9284 42.2852C17.8991 42.1457 17.844 42.0074 17.7562 41.8697C17.2407 41.0612 16.1435 40.8227 15.8998 39.778C15.5114 38.114 11.5433 34.5978 11.0038 35.3958C10.278 36.4704 9.6541 37.5655 9.32664 38.8358C9.04253 39.9368 8.88554 41.118 9.06772 42.2488C9.28563 43.6006 10.0319 44.7414 10.7185 45.8956C11.0125 46.3907 11.2844 46.9614 11.7114 47.3599C12.1718 47.7899 12.7412 48.0759 13.327 47.7987C13.9544 47.5022 14.4593 46.9802 14.9912 46.546C15.7088 45.9595 16.3514 45.2863 16.9068 44.5445C17.3701 43.9257 18.0983 43.0984 17.9284 42.2857V42.2852Z" fill="#2E2F42"/>
<path d="M44.2222 28.6325C44.2222 28.6325 41.0853 29.6204 41.8457 31.1696C42.6066 32.7187 43.4806 33.4506 43.6124 34.5005C43.7436 35.5511 45.245 36.1136 45.7804 36.6773C46.3159 37.2409 46.7874 38.0044 48.5278 36.7704C50.2682 35.537 50.2319 34.1408 50.0432 32.7187C49.8546 31.2961 50.393 30.2461 51.1141 28.8698C51.8352 27.494 53.8298 19.5811 54.7108 18.2083C55.5919 16.8349 56.5701 15.3039 55.9199 13.9638C55.2697 12.6238 52.8603 11.5991 50.7614 13.5924C48.6625 15.5857 49.089 15.5986 48.9707 17.3493C48.8523 19.1001 46.6626 26.9017 44.2216 28.6331L44.2222 28.6325Z" fill="#2E2F42"/>
<path d="M19.3642 58.4221C18.4896 56.5818 18.1399 54.7701 20.7742 55.2312C22.8098 55.5874 24.037 54.5287 25.8378 54.0312C27.9097 53.4594 29.9401 55.3601 31.9985 54.2386C33.9943 53.1512 35.5748 49.4018 36.6562 50.7735C37.7375 52.1451 35.8782 55.2277 35.0786 56.9843C30.9201 66.1183 32.0712 82.3221 31.8767 88.0835H22.3494C22.4718 88.0835 22.3611 67.1642 22.347 66.9755C22.2117 65.1281 21.9756 63.1517 21.1104 61.5246C20.8093 60.958 19.9635 59.6836 19.3648 58.4221H19.3642Z" fill="#2E2F42"/>
<path d="M10.8925 88.0829C11.4806 84.1167 11.0336 60.211 11.3968 58.271C11.7594 56.331 10.8925 52.5582 10.8925 52.5582C10.8925 52.5582 11.3734 50.0194 12.528 50.8655C13.6826 51.7115 14.3557 52.2406 16.4721 52.5582C18.5886 52.8758 19.4544 52.8758 18.4925 54.5685C17.5306 56.2612 15.7024 56.0497 15.7024 58.271C15.7024 58.271 15.536 82.533 15.8383 86.754L10.8925 88.0829Z" fill="#2E2F42"/>
</svg>
