<svg width="247" height="2" viewBox="0 0 247 2" fill="none" xmlns="http://www.w3.org/2000/svg">
<path d="M247 2C245.763 2 245.132 1.59897 244.576 1.24444C244.069 0.921964 243.669 0.666667 242.814 0.666667C241.958 0.666667 241.557 0.921964 241.051 1.24444C240.495 1.59897 239.864 2 238.627 2C237.39 2 236.76 1.59897 236.203 1.24444C235.696 0.921964 235.297 0.666667 234.441 0.666667C233.584 0.666667 233.184 0.921964 232.678 1.24444C232.122 1.59897 231.491 2 230.254 2C229.017 2 228.387 1.59897 227.83 1.24444C227.323 0.921964 226.924 0.666667 226.068 0.666667C225.211 0.666667 224.811 0.921964 224.305 1.24444C223.749 1.59897 223.118 2 221.881 2C220.644 2 220.014 1.59897 219.457 1.24444C218.95 0.921964 218.551 0.666667 217.695 0.666667C216.838 0.666667 216.438 0.921964 215.932 1.24444C215.376 1.59897 214.745 2 213.508 2C212.271 2 211.641 1.59897 211.084 1.24444C210.577 0.921964 210.178 0.666667 209.322 0.666667C208.465 0.666667 208.065 0.921964 207.559 1.24444C207.003 1.59897 206.373 2 205.135 2C203.898 2 203.268 1.59897 202.711 1.24444C202.204 0.921964 201.805 0.666667 200.949 0.666667C200.092 0.666667 199.692 0.921964 199.186 1.24444C198.63 1.59897 198 2 196.762 2C195.525 2 194.895 1.59897 194.338 1.24444C193.831 0.921964 193.432 0.666667 192.576 0.666667C191.719 0.666667 191.319 0.921964 190.813 1.24444C190.257 1.59897 189.627 2 188.389 2C187.152 2 186.522 1.59897 185.965 1.24444C185.458 0.921964 185.059 0.666667 184.203 0.666667C183.346 0.666667 182.946 0.921964 182.44 1.24444C181.884 1.59897 181.254 2 180.016 2C178.779 2 178.149 1.59897 177.592 1.24444C177.085 0.921964 176.686 0.666667 175.83 0.666667C174.973 0.666667 174.574 0.921964 174.067 1.24444C173.511 1.59897 172.881 2 171.643 2C170.406 2 169.776 1.59897 169.219 1.24444C168.712 0.921964 168.313 0.666667 167.457 0.666667C166.6 0.666667 166.201 0.921964 165.694 1.24444C165.138 1.59897 164.508 2 163.27 2C162.033 2 161.403 1.59897 160.846 1.24444C160.339 0.921964 159.94 0.666667 159.084 0.666667C158.227 0.666667 157.827 0.921964 157.321 1.24444C156.765 1.59897 156.135 2 154.897 2C153.66 2 153.03 1.59897 152.473 1.24444C151.966 0.921964 151.567 0.666667 150.711 0.666667C149.854 0.666667 149.454 0.921964 148.948 1.24444C148.392 1.59897 147.762 2 146.524 2C145.287 2 144.658 1.59897 144.101 1.24444C143.593 0.921964 143.194 0.666667 142.338 0.666667C141.481 0.666667 141.082 0.921964 140.575 1.24444C140.019 1.59897 139.389 2 138.151 2C136.914 2 136.285 1.59897 135.728 1.24444C135.22 0.921964 134.821 0.666667 133.965 0.666667C133.108 0.666667 132.708 0.921964 132.202 1.24444C131.646 1.59897 131.016 2 129.778 2C128.541 2 127.912 1.59897 127.355 1.24444C126.847 0.921964 126.448 0.666667 125.592 0.666667C124.735 0.666667 124.335 0.921964 123.829 1.24444C123.273 1.59897 122.643 2 121.405 2C120.168 2 119.539 1.59897 118.982 1.24444C118.474 0.921964 118.075 0.666667 117.219 0.666667C116.362 0.666667 115.963 0.921964 115.456 1.24444C114.9 1.59897 114.27 2 113.032 2C111.795 2 111.166 1.59897 110.609 1.24444C110.101 0.921964 109.702 0.666667 108.846 0.666667C107.989 0.666667 107.59 0.921964 107.083 1.24444C106.527 1.59897 105.897 2 104.659 2C103.422 2 102.793 1.59897 102.236 1.24444C101.728 0.921964 101.329 0.666667 100.473 0.666667C99.6162 0.666667 99.2173 0.921964 98.71 1.24444C98.1545 1.59897 97.5237 2 96.2863 2C95.0489 2 94.4196 1.59897 93.8626 1.24444C93.3553 0.921964 92.9564 0.666667 92.0998 0.666667C91.2432 0.666667 90.8443 0.921964 90.337 1.24444C89.7815 1.59897 89.1507 2 87.9133 2C86.6759 2 86.0466 1.59897 85.4896 1.24444C84.9823 0.921964 84.5834 0.666667 83.7268 0.666667C82.8703 0.666667 82.4713 0.921964 81.964 1.24444C81.4085 1.59897 80.7778 2 79.5403 2C78.3029 2 77.6736 1.59897 77.1166 1.24444C76.6093 0.921964 76.2104 0.666667 75.3538 0.666667C74.4973 0.666667 74.0983 0.921964 73.591 1.24444C73.0355 1.59897 72.4048 2 71.1673 2C69.9299 2 69.3007 1.59897 68.7437 1.24444C68.2364 0.921964 67.8374 0.666667 66.9809 0.666667C66.1243 0.666667 65.7254 0.921964 65.218 1.24444C64.6626 1.59897 64.0318 2 62.7944 2C61.5569 2 60.9277 1.59897 60.3707 1.24444C59.8634 0.921964 59.4644 0.666667 58.6079 0.666667C57.7513 0.666667 57.3524 0.921964 56.8451 1.24444C56.2896 1.59897 55.6588 2 54.4214 2C53.1839 2 52.5547 1.59897 51.9977 1.24444C51.4904 0.921964 51.0915 0.666667 50.2349 0.666667C49.3783 0.666667 48.9794 0.921964 48.4721 1.24444C47.9166 1.59897 47.2858 2 46.0484 2C44.811 2 44.1817 1.59897 43.6247 1.24444C43.1174 0.921964 42.7185 0.666667 41.8619 0.666667C41.0053 0.666667 40.6064 0.921964 40.0991 1.24444C39.5436 1.59897 38.9128 2 37.6754 2C36.438 2 35.8087 1.59897 35.2517 1.24444C34.7444 0.921964 34.3455 0.666667 33.4889 0.666667C32.6324 0.666667 32.2334 0.921964 31.7261 1.24444C31.1706 1.59897 30.5399 2 29.3024 2C28.065 2 27.4357 1.59897 26.8788 1.24444C26.3714 0.921964 25.9725 0.666667 25.1159 0.666667C24.2594 0.666667 23.8604 0.921964 23.3531 1.24444C22.7976 1.59897 22.1669 2 20.9294 2C19.692 2 19.0628 1.59897 18.5058 1.24444C17.9985 0.921964 17.5995 0.666667 16.743 0.666667C15.8864 0.666667 15.4875 0.921964 14.9801 1.24444C14.4247 1.59897 13.7939 2 12.558 2C11.322 2 10.6913 1.59897 10.1343 1.24444C9.62698 0.921964 9.22805 0.666667 8.37148 0.666667C7.51491 0.666667 7.11598 0.921964 6.60867 1.24444C6.05318 1.59897 5.42242 2 4.18499 2C2.94755 2 2.3183 1.59897 1.76281 1.24444C1.2555 0.921964 0.856567 0.666667 0 0.666667V0C1.23743 0 1.86668 0.401034 2.42217 0.755556C2.92949 1.07804 3.32842 1.33333 4.18499 1.33333C5.04155 1.33333 5.44048 1.07804 5.9478 0.755556C6.50329 0.401034 7.13405 0 8.37148 0C9.60891 0 10.2382 0.401034 10.7952 0.755556C11.3025 1.07804 11.7014 1.33333 12.558 1.33333C13.4145 1.33333 13.8135 1.07804 14.3208 0.755556C14.8763 0.401034 15.507 0 16.743 0C17.9789 0 18.6096 0.401034 19.1666 0.755556C19.674 1.07804 20.0729 1.33333 20.9294 1.33333C21.786 1.33333 22.1849 1.07804 22.6923 0.755556C23.2477 0.401034 23.8785 0 25.1159 0C26.3534 0 26.9826 0.401034 27.5396 0.755556C28.0469 1.07804 28.4459 1.33333 29.3024 1.33333C30.159 1.33333 30.5579 1.07804 31.0652 0.755556C31.6207 0.401034 32.2515 0 33.4889 0C34.7264 0 35.3556 0.401034 35.9111 0.755556C36.4184 1.07804 36.8173 1.33333 37.6739 1.33333C38.5305 1.33333 38.9309 1.07804 39.4367 0.755556C39.9922 0.401034 40.623 0 41.8604 0C43.0978 0 43.7271 0.401034 44.2841 0.755556C44.7914 1.07804 45.1903 1.33333 46.0469 1.33333C46.9035 1.33333 47.3024 1.07804 47.8097 0.755556C48.3652 0.401034 48.996 0 50.2334 0C51.4708 0 52.1001 0.401034 52.6571 0.755556C53.1644 1.07804 53.5633 1.33333 54.4199 1.33333C55.2764 1.33333 55.6754 1.07804 56.1827 0.755556C56.7382 0.401034 57.3689 0 58.6064 0C59.8438 0 60.473 0.401034 61.03 0.755556C61.5374 1.07804 61.9363 1.33333 62.7929 1.33333C63.6494 1.33333 64.0499 1.07804 64.5557 0.755556C65.1112 0.401034 65.7419 0 66.9793 0C68.2168 0 68.846 0.401034 69.403 0.755556C69.9103 1.07804 70.3093 1.33333 71.1658 1.33333C72.0224 1.33333 72.4213 1.07804 72.9287 0.755556C73.4841 0.401034 74.1149 0 75.3523 0C76.5898 0 77.219 0.401034 77.776 0.755556C78.2833 1.07804 78.6823 1.33333 79.5388 1.33333C80.3954 1.33333 80.7943 1.07804 81.3016 0.755556C81.8571 0.401034 82.4879 0 83.7253 0C84.9627 0 85.592 0.401034 86.149 0.755556C86.6563 1.07804 87.0552 1.33333 87.9118 1.33333C88.7684 1.33333 89.1673 1.07804 89.6746 0.755556C90.2301 0.401034 90.8609 0 92.0983 0C93.3357 0 93.965 0.401034 94.522 0.755556C95.0293 1.07804 95.4282 1.33333 96.2848 1.33333C97.1413 1.33333 97.5418 1.07804 98.0476 0.755556C98.6031 0.401034 99.2338 0 100.471 0C101.709 0 102.338 0.401034 102.895 0.755556C103.402 1.07804 103.801 1.33333 104.658 1.33333C105.514 1.33333 105.913 1.07804 106.421 0.755556C106.976 0.401034 107.607 0 108.844 0C110.082 0 110.711 0.401034 111.268 0.755556C111.775 1.07804 112.174 1.33333 113.031 1.33333C113.887 1.33333 114.286 1.07804 114.794 0.755556C115.349 0.401034 115.98 0 117.217 0C118.455 0 119.084 0.401034 119.641 0.755556C120.148 1.07804 120.547 1.33333 121.404 1.33333C122.26 1.33333 122.661 1.07804 123.167 0.755556C123.722 0.401034 124.353 0 125.59 0C126.828 0 127.457 0.401034 128.014 0.755556C128.521 1.07804 128.92 1.33333 129.777 1.33333C130.633 1.33333 131.032 1.07804 131.54 0.755556C132.095 0.401034 132.726 0 133.963 0C135.201 0 135.83 0.401034 136.387 0.755556C136.894 1.07804 137.293 1.33333 138.15 1.33333C139.006 1.33333 139.405 1.07804 139.913 0.755556C140.468 0.401034 141.099 0 142.336 0C143.574 0 144.203 0.401034 144.76 0.755556C145.267 1.07804 145.666 1.33333 146.523 1.33333C147.379 1.33333 147.78 1.07804 148.285 0.755556C148.841 0.401034 149.472 0 150.709 0C151.947 0 152.576 0.401034 153.133 0.755556C153.64 1.07804 154.039 1.33333 154.896 1.33333C155.752 1.33333 156.153 1.07804 156.658 0.755556C157.214 0.401034 157.845 0 159.082 0C160.32 0 160.949 0.401034 161.506 0.755556C162.013 1.07804 162.412 1.33333 163.269 1.33333C164.125 1.33333 164.524 1.07804 165.031 0.755556C165.587 0.401034 166.218 0 167.455 0C168.693 0 169.322 0.401034 169.879 0.755556C170.386 1.07804 170.785 1.33333 171.642 1.33333C172.498 1.33333 172.897 1.07804 173.404 0.755556C173.96 0.401034 174.591 0 175.828 0C177.066 0 177.695 0.401034 178.252 0.755556C178.759 1.07804 179.158 1.33333 180.015 1.33333C180.871 1.33333 181.272 1.07804 181.777 0.755556C182.333 0.401034 182.964 0 184.201 0C185.439 0 186.068 0.401034 186.625 0.755556C187.132 1.07804 187.531 1.33333 188.388 1.33333C189.244 1.33333 189.645 1.07804 190.15 0.755556C190.706 0.401034 191.337 0 192.574 0C193.812 0 194.441 0.401034 194.998 0.755556C195.505 1.07804 195.904 1.33333 196.761 1.33333C197.617 1.33333 198.018 1.07804 198.523 0.755556C199.079 0.401034 199.71 0 200.947 0C202.185 0 202.814 0.401034 203.371 0.755556C203.878 1.07804 204.277 1.33333 205.134 1.33333C205.99 1.33333 206.391 1.07804 206.896 0.755556C207.452 0.401034 208.083 0 209.32 0C210.558 0 211.187 0.401034 211.744 0.755556C212.251 1.07804 212.651 1.33333 213.507 1.33333C214.362 1.33333 214.764 1.07804 215.269 0.755556C215.825 0.401034 216.456 0 217.693 0C218.93 0 219.56 0.401034 220.117 0.755556C220.624 1.07804 221.023 1.33333 221.88 1.33333C222.736 1.33333 223.137 1.07804 223.642 0.755556C224.198 0.401034 224.829 0 226.066 0C227.303 0 227.933 0.401034 228.49 0.755556C228.997 1.07804 229.396 1.33333 230.253 1.33333C231.109 1.33333 231.51 1.07804 232.015 0.755556C232.571 0.401034 233.202 0 234.439 0C235.676 0 236.306 0.401034 236.863 0.755556C237.37 1.07804 237.769 1.33333 238.626 1.33333C239.482 1.33333 239.882 1.07804 240.388 0.755556C240.944 0.401034 241.575 0 242.812 0C244.049 0 244.68 0.401034 245.236 0.755556C245.743 1.07804 246.143 1.33333 246.998 1.33333V2H247Z" fill="black"/>
</svg>
