<svg width="48" height="85" viewBox="0 0 48 85" fill="none" xmlns="http://www.w3.org/2000/svg">
<path d="M5.27055 29.0713C5.27055 29.0713 6.24236 33.079 7.04386 32.3261C7.27078 31.5698 7.58086 30.8141 7.9761 30.1463C8.53263 29.2063 9.94276 28.8716 10.0319 27.6301C10.2388 24.7638 10.1506 26.5397 9.51246 23.8089C8.86876 21.0549 9.02305 22.4773 8.01066 17.7033C7.391 14.7811 6.78087 10.5333 5.35421 8.96268C3.92805 7.39203 -0.340905 9.91259 0.0217706 12.1079C0.384446 14.3037 1.88124 15.9722 2.37766 18.0773C2.96225 20.557 1.85869 19.2148 5.27005 29.0708L5.27055 29.0713Z" fill="#2E2F42"/>
<path d="M10.9271 24.5381C10.9271 24.5381 10.7247 28.3018 12.1764 27.982C12.1764 27.982 14.4942 27.1378 16.6653 27.7131C17.9592 28.0561 17.1487 23.966 17.2038 22.698C17.2484 21.6634 16.6287 20.4989 16.3452 19.5506C15.3694 16.2848 16.1363 15.788 15.4275 12.4503C14.7272 9.15245 15.3714 9.29795 13.8906 6.31985C13.5259 5.58625 13.1327 4.80563 12.5777 4.22196C11.0378 2.60262 7.00828 4.90632 7.43908 7.21389C7.86988 9.52146 8.66386 11.6597 9.4879 13.7676C10.4206 16.1532 9.4889 15.1972 10.9271 24.5381Z" fill="#2E2F42"/>
<path d="M8.44947 28.9734C7.39851 28.9734 7.06288 27.9494 6.93615 27.5643C6.92863 27.5416 6.92162 27.5206 6.91511 27.5007C6.87253 27.4426 6.72575 27.3181 6.62707 27.234C6.26089 26.9226 5.80504 26.5347 5.79502 25.9787C5.78901 25.6673 5.92576 25.3801 6.20078 25.1256C6.97873 24.4059 7.32137 24.2808 7.79525 24.1071C7.89143 24.0723 7.99512 24.0341 8.11234 23.9876C8.24809 23.9223 9.02805 23.5578 9.55052 23.5578C9.73136 23.5578 9.87763 23.5981 9.99635 23.6822C10.4582 24.007 10.3034 24.8219 10.0715 25.774C10.054 25.8449 10.0339 25.929 10.0224 25.9815C10.0299 26.0125 10.0409 26.054 10.0505 26.0899C10.1296 26.3904 10.2613 26.8927 10.2163 27.4111C10.1546 28.112 9.79047 28.6044 9.1623 28.834C8.90882 28.927 8.66888 28.9734 8.44897 28.9734H8.44947Z" fill="#2E2F42"/>
<path d="M9.55103 23.9766C9.64971 23.9766 9.73387 23.9937 9.79298 24.0352C10.1366 24.277 9.64971 25.7796 9.63769 25.9782C9.62517 26.1768 10.3991 27.94 9.04308 28.4362C8.81666 28.5192 8.62029 28.5546 8.44897 28.5546C7.59588 28.5546 7.37898 27.6683 7.26226 27.3309C7.122 26.9259 5.55809 26.2659 6.44424 25.4465C7.33039 24.6266 7.57184 24.651 8.25361 24.3765C8.25361 24.3765 9.07414 23.9766 9.55103 23.9766ZM9.55103 23.1395C8.97095 23.1395 8.18098 23.4985 7.97209 23.5987C7.86589 23.6413 7.76971 23.6761 7.67654 23.7104C7.12751 23.9107 6.75081 24.0712 5.95733 24.8053C5.49948 25.2285 5.41031 25.6822 5.41582 25.9876C5.42985 26.7444 6.01093 27.239 6.39565 27.566C6.45476 27.6163 6.53691 27.686 6.58851 27.7347C6.73428 28.1779 7.16057 29.3922 8.44897 29.3922C8.70946 29.3922 8.98948 29.338 9.28103 29.2312C10.0515 28.9496 10.5173 28.3173 10.593 27.4515C10.6451 26.8551 10.4958 26.2841 10.4146 25.976C10.4222 25.945 10.4302 25.9123 10.4372 25.8825C10.6466 25.0227 10.9336 23.8454 10.1997 23.3293C10.0209 23.2031 9.802 23.1395 9.55053 23.1395H9.55103Z" fill="#F7EEDF"/>
<path d="M15.8473 24.5624C14.3384 24.5624 14.1065 23.1511 14.0188 22.62C14.0133 22.5874 14.0088 22.5569 14.0038 22.5298C13.9698 22.4518 13.809 22.2598 13.7013 22.1315C13.3406 21.7011 12.8917 21.1655 12.9744 20.5514C13.02 20.2117 13.2189 19.9257 13.566 19.7011C14.5889 19.04 15.0042 18.9697 15.5793 18.8729C15.699 18.853 15.8277 18.8314 15.974 18.8015C16.0812 18.7722 16.785 18.5869 17.3521 18.5869C17.7318 18.5869 17.9882 18.6671 18.1606 18.8386C18.6059 19.2828 18.2873 20.1719 17.8585 21.202C17.8219 21.2895 17.7789 21.394 17.7568 21.4521C17.7598 21.4919 17.7663 21.5534 17.7718 21.6048C17.8395 22.2538 18.0464 24.2277 16.3061 24.522C16.1463 24.5492 15.992 24.563 15.8478 24.563L15.8473 24.5624Z" fill="#2E2F42"/>
<path d="M17.352 19.0051C17.5915 19.0051 17.7999 19.0422 17.9066 19.149C18.2637 19.5053 17.4287 21.1478 17.3791 21.3769C17.329 21.6054 17.9151 23.8261 16.2485 24.1082C16.1032 24.1326 15.97 24.1442 15.8472 24.1442C14.5613 24.1442 14.4562 22.8928 14.373 22.4341C14.2818 21.9318 12.5797 20.8242 13.7573 20.0629C14.935 19.3017 15.2121 19.3824 16.0541 19.2115C16.0541 19.2115 16.7895 19.0057 17.352 19.0057M17.352 18.1686C16.7569 18.1686 16.0556 18.349 15.8943 18.3927C15.7596 18.4198 15.6389 18.4403 15.5221 18.4596C14.8634 18.5708 14.4076 18.6726 13.3746 19.3404C12.8131 19.7033 12.6433 20.1664 12.5997 20.4906C12.4905 21.3027 13.03 21.9462 13.4237 22.4164C13.4944 22.5005 13.5945 22.62 13.6456 22.6919C13.6456 22.693 13.6456 22.6941 13.6461 22.6952C13.6972 23.0067 13.7829 23.5284 14.0759 24.0086C14.3469 24.4523 14.8739 24.9818 15.8472 24.9818C16.0105 24.9818 16.1844 24.9663 16.3632 24.9364C17.2534 24.7859 17.869 24.1907 18.0964 23.2607C18.2572 22.6034 18.1861 21.9235 18.148 21.5578C18.147 21.5456 18.1455 21.5329 18.144 21.5196C18.1626 21.4748 18.1836 21.4233 18.2031 21.3774C18.5828 20.4651 19.1028 19.2154 18.415 18.5293C18.1726 18.287 17.8249 18.1697 17.3525 18.1697L17.352 18.1686Z" fill="#F7EEDF"/>
<path d="M19.1674 23.4521C19.1674 23.4521 18.5458 26.9574 19.9454 26.86C19.9454 26.86 22.1129 27.2014 24.0851 28.0456C25.2608 28.5485 25.9055 24.3793 26.1024 23.1965C26.2627 22.2316 25.912 19.3382 25.7547 18.4082C25.2132 15.2055 24.8781 15.5723 24.5956 12.3397C24.316 9.1458 25.2302 9.47056 24.1813 6.46756C23.9228 5.72788 23.5621 2.51631 23.1078 1.8906C21.8479 0.154525 16.9323 0.894211 16.9298 3.12654C16.9213 11.0777 18.0203 11.2271 18.2683 13.3847C18.7231 17.3415 18.9375 14.1991 19.1669 23.4526L19.1674 23.4521Z" fill="#2E2F42"/>
<path d="M27.3407 20.625C27.1759 22.4861 27.3207 24.3157 26.6449 26.0534C26.185 27.2351 25.8965 28.4639 26.986 28.6487C27.772 28.7814 28.9958 27.0559 29.5819 28.3743C29.906 29.1034 31.1924 30.7499 31.8125 29.8907C32.4332 29.0321 33.2758 26.5984 33.9886 26.7416C33.9886 26.7416 33.924 24.4518 33.5352 22.3047C32.6386 17.3531 31.803 15.7687 32.4412 10.7325C32.7638 8.18483 33.6289 2.50968 32.3991 2.14786C31.0286 1.74454 28.4508 0.441105 27.5376 1.82421C25.7883 4.47368 26.6629 8.65563 27.0532 11.7831C27.6107 16.2478 27.7384 16.1371 27.3407 20.6256V20.625Z" fill="#2E2F42"/>
<path d="M12.0222 18.2521C11.426 18.2521 10.9997 17.7387 10.9622 16.9747C10.8855 15.4378 10.8074 13.8622 10.598 12.3618C10.5078 11.7145 10.1381 11.0766 9.74641 10.4005C9.18687 9.43459 8.60779 8.43543 8.75707 7.22439C8.90484 6.02883 10.0149 5.63326 10.8254 5.34447C11.0278 5.27255 11.2187 5.2045 11.3544 5.13701C11.6279 5.00146 11.9104 4.8034 12.2095 4.59372C12.8362 4.15445 13.4839 3.70024 14.2027 3.70024C14.34 3.70024 14.4772 3.71739 14.6095 3.75169C14.9556 3.84076 15.2041 4.05653 15.3494 4.39234C15.6369 5.059 15.3934 5.9973 15.2627 6.5013C14.8103 8.24623 14.9191 10.5555 15.5277 12.1178C15.6694 12.4824 15.8974 12.7657 16.1388 13.065C16.5185 13.5369 16.9493 14.0724 17.039 14.9902C17.1041 15.6569 16.9599 16.276 16.6207 16.7811C16.1994 17.409 15.6349 17.4937 15.138 17.4937C15.0102 17.4937 14.8815 17.4881 14.7567 17.482C14.636 17.4765 14.5158 17.471 14.3966 17.471C14.1872 17.471 13.9187 17.4865 13.6973 17.6065C13.1142 17.9235 12.5116 18.2516 12.0227 18.2516L12.0222 18.2521Z" fill="#2E2F42"/>
<path d="M14.2022 4.11906C14.3169 4.11906 14.4326 4.1329 14.5493 4.16277C15.427 4.3896 15.1835 5.52651 14.9661 6.36467C14.4962 8.17598 14.5774 10.5865 15.2496 12.312C15.6589 13.3621 16.6006 13.7471 16.7279 15.0456C16.781 15.5872 16.6633 16.0907 16.3872 16.5023C16.0586 16.9919 15.6103 17.0754 15.1374 17.0754C14.8925 17.0754 14.641 17.0533 14.396 17.0533C14.1075 17.0533 13.828 17.0843 13.579 17.2198C13.024 17.5219 12.4499 17.8339 12.0221 17.8339C11.5943 17.8339 11.3013 17.4942 11.2742 16.9471C11.1971 15.3963 11.1184 13.8135 10.9055 12.2849C10.6656 10.566 8.84068 9.11539 9.0656 7.29246C9.21337 6.09801 10.7913 5.86233 11.4626 5.52928C12.3267 5.10107 13.2329 4.11906 14.2022 4.11906ZM14.2022 3.28201C13.4067 3.28201 12.6934 3.78214 12.0637 4.22307C11.7736 4.42611 11.4996 4.61864 11.2452 4.74478C11.1234 4.80508 10.9396 4.87037 10.7447 4.94007C9.90215 5.24048 8.62878 5.69414 8.44844 7.15636C8.27662 8.54831 8.92583 9.66863 9.4989 10.6573C9.86659 11.2918 10.2137 11.891 10.2904 12.4387C10.4963 13.9148 10.5744 15.4788 10.6495 16.9913V17.0024C10.6991 17.9844 11.2632 18.6704 12.0226 18.6704C12.5726 18.6704 13.2038 18.3269 13.8149 17.9949C13.9487 17.9224 14.128 17.8898 14.3965 17.8898C14.5082 17.8898 14.624 17.8948 14.7462 17.9003C14.8734 17.9058 15.0047 17.9119 15.1379 17.9119C15.6704 17.9119 16.3472 17.8151 16.8536 17.0605C17.2498 16.4702 17.4257 15.7156 17.349 14.9355C17.2443 13.8677 16.7494 13.2525 16.3517 12.7579C16.1212 12.4713 15.9224 12.224 15.8052 11.9236C15.2331 10.4559 15.1319 8.2822 15.5582 6.63797C15.7055 6.0709 15.979 5.01476 15.6203 4.18269C15.4881 3.87619 15.2161 3.48118 14.669 3.33955C14.5173 3.30027 14.3605 3.28035 14.2032 3.28035L14.2022 3.28201Z" fill="#F7EEDF"/>
<path d="M21.0314 15.1241C20.6768 15.1153 20.4088 14.9432 20.2349 14.6124C19.8477 13.8755 19.9604 12.8664 20.0591 11.9762C20.1102 11.5153 20.1588 11.0799 20.1423 10.7137C20.1092 9.99005 19.7936 9.04899 19.488 8.13891C19.0157 6.73202 18.5272 5.27699 18.9024 4.1611C19.1224 3.50662 19.5942 3.08284 20.3451 2.86541C20.4749 2.82779 20.7203 2.71438 21.0049 2.58271C21.7608 2.23306 22.9029 1.70471 23.7805 1.70471C24.9848 1.70471 25.1987 2.7188 25.2187 3.3235C25.2483 4.20758 24.9187 4.95998 24.6281 5.62332C24.4408 6.05042 24.2639 6.45373 24.2179 6.81113C24.0691 7.95966 24.0255 9.14027 24.0916 10.2263C24.1202 10.6938 24.2815 11.0827 24.4518 11.4943C24.6682 12.016 24.9131 12.6074 24.844 13.372C24.7824 14.0519 24.4393 14.6766 24.0095 14.8907C23.9098 14.9405 23.8061 14.9654 23.7009 14.9654C23.5035 14.9654 23.3282 14.879 23.1739 14.8027C23.0802 14.7568 22.9921 14.7131 22.9079 14.692C22.8859 14.6865 22.8588 14.6838 22.8278 14.6838C22.6444 14.6838 22.3769 14.7778 22.0939 14.8768C21.7457 14.9991 21.3856 15.1252 21.061 15.1252H21.0319L21.0314 15.1241Z" fill="#2E2F42"/>
<path d="M23.7805 2.12296C24.4227 2.12296 24.9036 2.42669 24.9342 3.34396C24.9778 4.63799 24.0726 5.69192 23.9378 6.73257C23.78 7.9497 23.7415 9.179 23.8076 10.2634C23.8817 11.4832 24.6657 12.1659 24.5615 13.3161C24.5139 13.8417 24.2484 14.3286 23.9178 14.4934C23.8426 14.5305 23.7705 14.546 23.7004 14.546C23.4439 14.546 23.212 14.343 22.955 14.2788C22.9159 14.2688 22.8728 14.2644 22.8273 14.2644C22.3709 14.2644 21.6155 14.7064 21.0605 14.7064C21.0524 14.7064 21.0439 14.7064 21.0359 14.7064C20.7965 14.7009 20.5921 14.6091 20.4598 14.3579C19.9754 13.4356 20.4789 11.8462 20.4263 10.6871C20.3116 8.17099 17.4127 4.14284 20.3997 3.27702C20.9057 3.13041 22.6109 2.12406 23.78 2.12406M23.78 1.28701C22.8583 1.28701 21.6911 1.82697 20.9187 2.18437C20.6537 2.30719 20.4037 2.42281 20.2895 2.45601C19.446 2.70054 18.9085 3.19791 18.6465 3.97687C18.2086 5.27809 18.7291 6.82717 19.2316 8.32535C19.5246 9.19891 19.8282 10.1018 19.8572 10.743C19.8717 11.0611 19.8257 11.4733 19.7771 11.9098C19.6689 12.8846 19.5456 13.9889 20.0085 14.8696C20.2379 15.3061 20.5801 15.533 21.0259 15.544C21.0374 15.544 21.0484 15.544 21.06 15.544C21.4181 15.544 21.7948 15.4118 22.159 15.284C22.4135 15.1944 22.677 15.102 22.8268 15.102C22.8493 15.102 22.8588 15.1042 22.8593 15.1042C22.9219 15.1197 23.0001 15.1584 23.0827 15.1988C23.2495 15.2807 23.4564 15.383 23.7004 15.383C23.8366 15.383 23.9714 15.3504 24.1006 15.2862C24.6376 15.019 25.0499 14.2716 25.1265 13.4262C25.2092 12.515 24.9242 11.8279 24.6952 11.2758C24.5354 10.8907 24.3977 10.5588 24.3751 10.1881C24.311 9.14027 24.3536 7.99949 24.4974 6.88858C24.5334 6.61141 24.6957 6.24129 24.8676 5.84959C25.1661 5.16855 25.5378 4.32099 25.5032 3.30247C25.4827 2.69612 25.2738 1.2859 23.78 1.2859V1.28701Z" fill="#F7EEDF"/>
<path d="M4.7065 23.3287C4.26819 23.3287 3.98265 23.0228 3.94158 22.5105C3.8459 21.3077 3.5258 18.0774 3.30088 17.2187C3.23827 16.9792 2.91216 16.447 2.59707 15.9319C1.75751 14.5604 0.805733 13.0063 1.62075 12.2479C2.05807 11.8407 2.64716 11.59 3.21673 11.3472C3.7923 11.1021 4.38741 10.8482 4.80018 10.4465L4.83324 10.4144L4.87131 10.3928C5.00556 10.3176 6.20379 9.65591 6.95119 9.65591C7.18162 9.65591 7.36095 9.71566 7.49921 9.83904C7.95957 10.2495 7.74617 11.0445 7.52075 11.886C7.37548 12.4282 7.21117 13.0423 7.23471 13.5032C7.31236 15.003 7.8689 18.0801 8.54365 18.6079C9.16381 19.0931 9.57157 19.7769 9.66324 20.4845C9.73037 21.0062 9.62066 21.4958 9.34565 21.9008C9.11772 22.2366 8.86024 22.3998 8.55718 22.3998C8.38386 22.3998 8.22155 22.3467 8.06426 22.2953C7.90647 22.2438 7.74366 22.1907 7.56583 22.1907C7.46013 22.1907 7.35644 22.209 7.24874 22.2471C7.0138 22.3296 6.70072 22.4989 6.3686 22.6776C5.77549 22.9973 5.16235 23.3276 4.7055 23.3276L4.7065 23.3287Z" fill="#2E2F42"/>
<path d="M6.95116 10.0758C7.09393 10.0758 7.21365 10.1057 7.2943 10.1771C7.76468 10.5964 6.82743 12.3253 6.89005 13.5308C6.95267 14.7363 7.46863 18.2666 8.35678 18.9609C9.24444 19.6552 9.63517 20.817 9.07913 21.6369C8.8998 21.9014 8.73299 21.9827 8.55816 21.9827C8.27764 21.9827 7.97557 21.7736 7.56731 21.7736C7.44058 21.7736 7.30382 21.7935 7.15404 21.8466C6.47778 22.0845 5.32664 22.9105 4.70748 22.9105C4.47104 22.9105 4.31225 22.7904 4.2867 22.4712C4.19503 21.3155 3.87193 18.0115 3.63148 17.0931C3.39103 16.1753 1.0136 13.3427 1.83263 12.5809C2.65115 11.8191 4.13492 11.6337 5.01806 10.774C5.01806 10.774 6.25938 10.0764 6.95217 10.0764M6.95217 9.23932C6.14767 9.23932 4.95745 9.8855 4.72702 10.015L4.65038 10.0581L4.58475 10.1223C4.21807 10.4791 3.65152 10.7203 3.10299 10.9544C2.50738 11.2078 1.89174 11.47 1.41084 11.9181C1.09174 12.2152 0.937457 12.6672 0.976029 13.1911C0.999573 13.5098 1.09425 13.8622 1.26607 14.2683C1.53156 14.8962 1.95085 15.58 2.32053 16.1842C2.57351 16.5969 2.91965 17.1628 2.97275 17.3493C3.17262 18.1122 3.48621 21.1429 3.59842 22.5531C3.65602 23.28 4.09133 23.7497 4.70748 23.7497C5.23797 23.7497 5.88518 23.4006 6.51134 23.0632C6.81792 22.8977 7.13451 22.7273 7.3469 22.6527C7.42254 22.6261 7.49468 22.6128 7.56731 22.6128C7.69906 22.6128 7.8273 22.6549 7.97557 22.703C8.14639 22.7589 8.33925 22.8219 8.55816 22.8219C8.96542 22.8219 9.32008 22.6029 9.61363 22.1702C9.94825 21.6773 10.087 21.0571 10.0054 20.4236C9.89916 19.5982 9.43479 18.8098 8.73198 18.2599C8.33825 17.9518 7.68453 15.486 7.58034 13.4805C7.5603 13.0987 7.71409 12.525 7.84984 12.0188C7.95504 11.626 8.05472 11.2548 8.0968 10.9096C8.19298 10.124 7.9365 9.71234 7.70457 9.50543C7.5077 9.33005 7.25423 9.24098 6.95167 9.24098L6.95217 9.23932Z" fill="#F7EEDF"/>
<path d="M22.6905 21.7913C21.1812 21.7913 20.9498 20.3799 20.8621 19.8488C20.8566 19.8162 20.8521 19.7858 20.8471 19.7587C20.813 19.6806 20.6522 19.4887 20.545 19.3603C20.1843 18.9299 19.7355 18.3944 19.8176 17.7803C19.8632 17.44 20.0621 17.154 20.4092 16.9299C21.4322 16.2688 21.8474 16.1985 22.4225 16.1017C22.5422 16.0818 22.671 16.0597 22.8172 16.0304C22.9244 16.001 23.6277 15.8157 24.1953 15.8157C24.575 15.8157 24.832 15.8959 25.0038 16.0674C25.4491 16.5111 25.1305 17.4002 24.7017 18.4303C24.6652 18.5177 24.6216 18.6223 24.6001 18.6809C24.6031 18.7208 24.6096 18.7822 24.6151 18.8336C24.6827 19.482 24.8891 21.456 23.1488 21.7503C22.9891 21.7774 22.8348 21.7913 22.6905 21.7913Z" fill="#2E2F42"/>
<path d="M24.1953 16.2339C24.4348 16.2339 24.6431 16.271 24.7498 16.3778C25.107 16.7341 24.272 18.3766 24.2224 18.6057C24.1723 18.8342 24.7584 21.0549 23.0918 21.337C22.9465 21.3614 22.8132 21.373 22.6905 21.373C21.4046 21.373 21.2994 20.1216 21.2163 19.6629C21.1251 19.1606 19.4229 18.053 20.6006 17.2917C21.7783 16.5305 22.0553 16.6113 22.8974 16.4403C22.8974 16.4403 23.6328 16.2345 24.1953 16.2345M24.1953 15.3974C23.6002 15.3974 22.8989 15.5778 22.7376 15.6215C22.6028 15.6486 22.4821 15.6685 22.3654 15.6885C21.7067 15.7997 21.2508 15.9015 20.2179 16.5692C19.6563 16.9321 19.4865 17.3952 19.443 17.7194C19.3337 18.5316 19.8733 19.175 20.267 19.6452C20.3376 19.7293 20.4378 19.8488 20.4894 19.9213C20.4894 19.9224 20.4894 19.9235 20.4899 19.9246C20.541 20.2361 20.6267 20.7578 20.9197 21.238C21.1907 21.6817 21.7177 22.2112 22.691 22.2112C22.8543 22.2112 23.0281 22.1957 23.207 22.1658C24.0971 22.0153 24.7128 21.42 24.9402 20.49C25.101 19.8328 25.0299 19.1528 24.9918 18.7872C24.9908 18.775 24.9893 18.7623 24.9878 18.749C25.0063 18.7042 25.0274 18.6527 25.0469 18.6068C25.4266 17.6945 25.9466 16.4447 25.2583 15.7587C25.0158 15.5169 24.6682 15.3991 24.1958 15.3991L24.1953 15.3974Z" fill="#F7EEDF"/>
<path d="M29.0724 15.4954C28.6897 15.4865 28.4001 15.3145 28.2128 14.9836C27.795 14.2467 27.9162 13.2376 28.0234 12.3474C28.0785 11.8866 28.1311 11.4512 28.1131 11.0849C28.0775 10.3613 27.7364 9.42022 27.4068 8.51014C26.8968 7.10325 26.3699 5.64822 26.7751 4.53234C27.0126 3.87785 27.522 3.45407 28.332 3.23665C28.4718 3.19903 28.7373 3.08561 29.0443 2.95394C29.8599 2.60429 31.0927 2.07594 32.0399 2.07594C33.3394 2.07594 33.5703 3.09003 33.5923 3.69473C33.6244 4.57881 33.2687 5.33122 32.9546 5.99455C32.7528 6.42165 32.5619 6.82497 32.5118 7.18236C32.351 8.33089 32.3039 9.51151 32.3756 10.5975C32.4061 11.065 32.5804 11.4539 32.7643 11.8655C32.9977 12.3873 33.2622 12.9787 33.1876 13.7433C33.1214 14.4232 32.7508 15.0478 32.2869 15.2619C32.1792 15.3117 32.0675 15.3366 31.9538 15.3366C31.7409 15.3366 31.552 15.2503 31.3852 15.1739C31.2845 15.128 31.1888 15.0843 31.0977 15.0633C31.0736 15.0578 31.0446 15.055 31.0115 15.055C30.8136 15.055 30.5251 15.149 30.2195 15.2481C29.8438 15.3703 29.4551 15.4965 29.105 15.4965H29.0734L29.0724 15.4954Z" fill="#2E2F42"/>
<path d="M32.0394 2.49419C32.7327 2.49419 33.2512 2.79792 33.2848 3.71519C33.3319 5.00922 32.355 6.06315 32.2093 7.1038C32.0389 8.32093 31.9974 9.55023 32.0685 10.6346C32.1486 11.8545 32.9947 12.5372 32.882 13.6874C32.8304 14.213 32.5444 14.6998 32.1872 14.8647C32.1061 14.9017 32.0284 14.9172 31.9528 14.9172C31.6758 14.9172 31.4258 14.7142 31.1483 14.65C31.1062 14.64 31.0596 14.6356 31.0105 14.6356C30.5181 14.6356 29.7026 15.0777 29.1035 15.0777C29.0945 15.0777 29.0859 15.0777 29.0769 15.0777C28.8184 15.0721 28.598 14.9803 28.4558 14.7291C27.9328 13.8069 28.4763 12.2174 28.4192 11.0584C28.2955 8.54223 25.1666 4.51408 28.3906 3.64825C28.9367 3.50164 30.7771 2.4953 32.0389 2.4953M32.0389 1.65824C31.0446 1.65824 29.7847 2.19821 28.9507 2.5556C28.6647 2.67842 28.3947 2.79405 28.2714 2.82724C27.3612 3.07177 26.7811 3.56914 26.4981 4.3481C26.0257 5.64933 26.5873 7.1984 27.1298 8.69658C27.4464 9.57015 27.7735 10.473 27.8051 11.1142C27.8206 11.4324 27.771 11.8445 27.7189 12.281C27.6017 13.2558 27.4689 14.3601 27.9684 15.2409C28.2158 15.6774 28.5855 15.9042 29.0664 15.9153C29.0789 15.9153 29.091 15.9153 29.103 15.9153C29.4897 15.9153 29.896 15.783 30.2892 15.6552C30.5642 15.5656 30.8482 15.4732 31.01 15.4732C31.0341 15.4732 31.0446 15.4754 31.0451 15.4754C31.1127 15.4909 31.1969 15.5297 31.286 15.57C31.4659 15.6519 31.6898 15.7543 31.9528 15.7543C32.1001 15.7543 32.2453 15.7216 32.3846 15.6575C32.9642 15.3902 33.409 14.6428 33.4917 13.7975C33.5808 12.8863 33.2732 12.1991 33.0263 11.647C32.854 11.262 32.7052 10.93 32.6811 10.5593C32.612 9.5115 32.6581 8.37072 32.8134 7.25981C32.852 6.98264 33.0273 6.61252 33.2126 6.22083C33.5347 5.53979 33.936 4.69222 33.8989 3.6737C33.8769 3.06735 33.6514 1.65714 32.0394 1.65714L32.0389 1.65824Z" fill="#F7EEDF"/>
<path d="M31.0516 21.7913C29.5423 21.7913 29.3109 20.3799 29.2232 19.8488C29.2177 19.8162 29.2132 19.7858 29.2082 19.7587C29.1741 19.6806 29.0133 19.4887 28.9061 19.3603C28.5454 18.9299 28.0966 18.3944 28.1788 17.7803C28.2243 17.44 28.4232 17.154 28.7704 16.9299C29.7933 16.2688 30.2085 16.1985 30.7836 16.1017C30.9033 16.0818 31.0321 16.0597 31.1783 16.0304C31.2855 16.001 31.9889 15.8157 32.5564 15.8157C32.9361 15.8157 33.1931 15.8959 33.3649 16.0674C33.8102 16.5111 33.4917 17.4002 33.0629 18.4303C33.0263 18.5177 32.9827 18.6223 32.9612 18.6809C32.9642 18.7208 32.9707 18.7822 32.9762 18.8336C33.0438 19.482 33.2502 21.456 31.51 21.7503C31.3502 21.7774 31.1959 21.7913 31.0516 21.7913Z" fill="#2E2F42"/>
<path d="M32.5569 16.2339C32.7963 16.2339 33.0047 16.271 33.1114 16.3778C33.4686 16.7341 32.6335 18.3766 32.5839 18.6057C32.5339 18.8342 33.1199 21.0549 31.4533 21.337C31.3081 21.3614 31.1748 21.373 31.0521 21.373C29.7662 21.373 29.661 20.1216 29.5778 19.6629C29.4867 19.1606 27.7845 18.053 28.9622 17.2917C30.1399 16.5305 30.4169 16.6113 31.259 16.4403C31.259 16.4403 31.9943 16.2345 32.5569 16.2345M32.5569 15.3974C31.9618 15.3974 31.2605 15.5778 31.0992 15.6215C30.9644 15.6486 30.8437 15.6691 30.727 15.6885C30.0683 15.7997 29.6124 15.9015 28.5795 16.5692C28.0179 16.9321 27.8481 17.3952 27.8045 17.7194C27.6953 18.5316 28.2348 19.175 28.6286 19.6452C28.6992 19.7293 28.7994 19.8488 28.851 19.9213C28.851 19.9224 28.851 19.9235 28.8515 19.9246C28.9026 20.2361 28.9882 20.7578 29.2813 21.238C29.5523 21.6817 30.0793 22.2112 31.0526 22.2112C31.2159 22.2112 31.3897 22.1957 31.5686 22.1658C32.4587 22.0153 33.0744 21.42 33.3023 20.49C33.4631 19.8328 33.392 19.1528 33.3539 18.7872C33.3524 18.775 33.3514 18.7623 33.3499 18.749C33.3684 18.7042 33.3894 18.6527 33.409 18.6062C33.7887 17.694 34.3087 16.4442 33.6204 15.7582C33.3779 15.5164 33.0303 15.3986 32.5579 15.3986L32.5569 15.3974Z" fill="#F7EEDF"/>
<path d="M26.8317 11.0683C26.3914 11.8003 24.8996 12.1588 23.2776 12.4902C23.0392 12.5388 22.7682 12.5942 22.704 12.618C22.6635 12.6373 22.4851 12.7529 22.3278 12.8553C21.351 13.4904 19.5321 14.6738 18.2437 14.2815C17.8099 14.1499 17.4788 13.8583 17.2589 13.4152C16.8436 12.577 16.8852 11.6885 17.3786 10.8459C17.9211 9.9209 18.8849 9.23875 19.461 8.83157C19.5261 8.78565 19.5857 8.74305 19.6388 8.70487C19.8217 8.57265 20.1152 8.14721 20.3992 7.7356C21.1927 6.58651 22.392 4.84989 23.8562 5.63549C25.2488 6.38237 25.5358 6.86258 25.924 7.64652C25.9942 7.78815 26.0668 7.93476 26.1555 8.09575C27.4143 9.87498 26.9454 10.8736 26.8387 11.0561L26.8317 11.0683Z" fill="#2E2F42"/>
<path d="M18.8008 14.7784C18.5673 14.7784 18.3459 14.7468 18.143 14.6854C17.6065 14.5222 17.1973 14.1626 16.9268 13.616C16.4474 12.6484 16.495 11.5839 17.061 10.618C17.6476 9.61716 18.6545 8.90459 19.2561 8.47915C19.3207 8.43323 19.3793 8.39174 19.4309 8.35467C19.5592 8.26228 19.8823 7.79368 20.0962 7.48442C20.7749 6.50131 21.7983 5.01973 23.1148 5.01973C23.4204 5.01973 23.7259 5.1005 24.022 5.25928C25.5153 6.06038 25.8439 6.61251 26.2566 7.44625C26.3233 7.58068 26.3899 7.71512 26.468 7.85786C27.8326 9.79918 27.3407 10.9709 27.1568 11.2841L27.1493 11.2968C26.6243 12.1693 25.117 12.5399 23.3467 12.9023C23.1844 12.9355 22.9274 12.9881 22.8388 13.0113C22.7812 13.0462 22.6078 13.159 22.5202 13.216C21.6215 13.8008 20.1182 14.7784 18.8003 14.7784H18.8008ZM23.1153 5.85678C22.174 5.85678 21.323 7.0894 20.7013 7.98953C20.3161 8.54664 20.0676 8.89519 19.8467 9.05507C19.7931 9.0938 19.732 9.13695 19.6659 9.18398C19.1153 9.57346 18.1951 10.2246 17.6977 11.0733C17.2784 11.7886 17.2428 12.509 17.592 13.2143C17.7628 13.559 18.0093 13.7764 18.3449 13.8782C18.4822 13.9197 18.6354 13.9413 18.8013 13.9413C19.9128 13.9413 21.359 13.0008 22.1355 12.4957C22.4215 12.3092 22.5037 12.2578 22.5552 12.2334L22.5858 12.2207C22.666 12.1914 22.8363 12.1554 23.2055 12.0796C24.301 11.8556 26.1284 11.4816 26.5161 10.8371L26.5211 10.8282C26.5712 10.743 26.981 9.94247 25.8569 8.35356L25.8324 8.31428C25.7397 8.14665 25.6655 7.99728 25.5939 7.85288C25.2603 7.17903 25.0419 6.73754 23.6909 6.01224C23.496 5.90768 23.3076 5.85678 23.1153 5.85678Z" fill="#F7EEDF"/>
<path d="M39.9757 19.1335C38.5591 19.3642 37.5166 17.9285 36.6796 16.7755C36.374 16.3545 36.0855 15.9573 35.823 15.6973C34.6132 14.499 33.0308 13.6824 31.1197 13.2719C30.9389 13.2331 30.7265 13.1988 30.5011 13.1634C29.3214 12.9753 27.7059 12.7175 27.2971 11.2094C27.0927 10.4553 27.3602 9.71121 27.5967 9.05507C27.7089 8.74359 27.8146 8.44927 27.8591 8.18924C27.8807 8.06366 27.8992 7.92092 27.9193 7.76933C28.043 6.83159 28.2298 5.41418 29.3885 5.22553C29.4175 5.22055 29.4476 5.21668 29.4782 5.21391C30.451 5.11875 31.251 6.05318 31.9568 6.87751C32.2674 7.23988 32.5604 7.58234 32.8089 7.76435C33.8368 8.51676 34.9223 8.80998 36.0719 9.1209C36.4436 9.22159 36.8284 9.3256 37.2186 9.44676C37.8412 9.6404 38.5115 9.73776 39.1602 9.83126C40.0118 9.95463 40.8924 10.0819 41.7085 10.4288C42.2465 10.6573 42.9793 11.0478 43.1351 11.7969C43.2669 12.4287 42.9813 13.1181 42.2084 14.0315C41.5537 14.8055 41.4119 15.0046 41.3257 16.0176C41.3097 16.2063 41.3107 16.4253 41.3112 16.6566C41.3142 17.3764 41.3172 18.1924 40.8138 18.7169C40.643 18.895 40.4281 19.0201 40.1746 19.0892C40.1085 19.1075 40.0413 19.1218 39.9747 19.1324L39.9757 19.1335Z" fill="#2E2F42"/>
<path d="M39.6747 19.5766C38.2275 19.5766 37.2056 18.1686 36.384 17.0372C36.0885 16.6301 35.8095 16.2456 35.57 16.0088C34.4119 14.8613 32.89 14.0785 31.0471 13.6824C30.8778 13.6459 30.6729 13.6132 30.456 13.5789C29.2377 13.3842 27.4118 13.0932 26.9334 11.3289C26.691 10.4349 26.9975 9.58398 27.244 8.90017C27.3492 8.60861 27.4484 8.3331 27.4865 8.11125C27.506 7.99784 27.5225 7.86948 27.5406 7.73283L27.5436 7.70849C27.6748 6.71265 27.8947 5.04519 29.3329 4.81116C29.37 4.80508 29.4065 4.80065 29.4446 4.79678C29.5017 4.79125 29.5588 4.78848 29.6154 4.78848C30.6904 4.78848 31.5095 5.74559 32.2318 6.58984C32.5273 6.93506 32.8059 7.26036 33.0183 7.41527C33.9916 8.12729 35.0455 8.41221 36.1621 8.71428L36.1771 8.71815C36.5473 8.81829 36.9301 8.92175 37.3218 9.04401C37.9174 9.22935 38.5736 9.32451 39.2078 9.41634C40.0844 9.54359 40.9871 9.67415 41.8447 10.0387C42.4634 10.3015 43.3084 10.7602 43.5048 11.704C43.6676 12.4857 43.3535 13.2924 42.4859 14.3181C41.8748 15.04 41.7811 15.1512 41.704 16.0575C41.6899 16.2251 41.6904 16.4337 41.6914 16.6539C41.6944 17.4206 41.6984 18.3728 41.0753 19.0223C40.8564 19.2508 40.5844 19.4101 40.2668 19.4964C40.1901 19.5174 40.111 19.5346 40.0318 19.5473C39.9131 19.5667 39.7929 19.5766 39.6752 19.5766H39.6747ZM29.6154 5.62554C29.5809 5.62554 29.5463 5.62719 29.5112 5.63051C29.4877 5.63273 29.4651 5.6355 29.4431 5.63937C28.6316 5.77159 28.4362 6.75083 28.294 7.82965L28.2905 7.85399C28.2709 8.00281 28.2519 8.14223 28.2308 8.26616C28.1792 8.56767 28.067 8.87915 27.9478 9.20943C27.7239 9.83072 27.4925 10.4736 27.6593 11.0888C27.9984 12.3408 29.415 12.5671 30.5537 12.7485C30.7901 12.7861 31.004 12.8204 31.1914 12.8608C33.17 13.2863 34.8131 14.1355 36.075 15.3858C36.3605 15.6685 36.6585 16.079 36.9741 16.5139C37.694 17.5058 38.5901 18.7396 39.6737 18.7396C39.7548 18.7396 39.8375 18.7329 39.9196 18.7197C39.9747 18.7108 40.0303 18.6986 40.0839 18.6842C40.2733 18.6328 40.4311 18.5421 40.5538 18.4137C40.9375 18.0137 40.9345 17.3255 40.932 16.6599C40.931 16.4165 40.9305 16.188 40.948 15.9794C41.0452 14.8392 41.2466 14.5554 41.9309 13.7466C42.8085 12.7087 42.8275 12.1909 42.7649 11.8915C42.6492 11.3366 42.0286 11.0147 41.5712 10.8205C40.7973 10.4918 39.9402 10.3674 39.1111 10.2473C38.4469 10.151 37.7631 10.052 37.1144 9.85009C36.7357 9.73225 36.359 9.63045 35.9953 9.53197L35.9808 9.5281C34.7986 9.20833 33.682 8.90681 32.5985 8.11402C32.314 7.906 32.0064 7.54694 31.6808 7.16631C31.0626 6.44378 30.3628 5.62609 29.6144 5.62609L29.6154 5.62554Z" fill="#F7EEDF"/>
<path d="M9.32511 32.9994C8.86776 32.3709 9.71734 30.9972 10.1311 30.4384C10.4878 29.9571 11.1575 29.5936 11.7411 29.6782C13.8135 29.9792 13.8135 30.7023 14.9586 30.1601C16.1037 29.6179 17.2494 30.0998 17.3581 30.943C17.4673 31.7861 17.6306 33.1111 18.5578 33.7739C19.485 34.4367 18.667 39.7367 18.5578 40.0382C18.4486 40.3392 16.2129 40.7608 15.1219 39.0745C14.0314 37.3882 13.813 36.2436 13.4313 35.7014C12.9509 35.0198 12.3848 34.4466 11.692 34.0389C11.0092 33.6372 10.1622 33.5747 9.50595 33.1659C9.43081 33.1189 9.37119 33.063 9.32461 32.9994H9.32511Z" fill="#2E2F42"/>
<path d="M16.7595 41.5104C16.1739 41.8695 15.9124 42.7292 15.5257 43.2902C14.9521 44.1223 14.3029 44.8929 13.5866 45.5773C13.2209 45.9264 12.761 46.1549 12.3818 46.4896C12.2541 46.6024 11.9154 46.8304 11.9355 47.0462C11.9675 47.3919 12.9429 47.3372 13.1793 47.4224C14.1601 47.7759 15.138 48.2318 16.0096 48.8458C16.4449 49.1529 16.8562 49.502 17.2178 49.9108C18.7196 51.6115 21.2794 48.6511 21.5985 46.8365C21.9181 45.0224 19.2857 44.6517 18.6275 42.7746C18.39 42.098 17.7398 41.1503 16.9874 41.4036C16.9062 41.4308 16.8306 41.4673 16.76 41.5104H16.7595Z" fill="#2E2F42"/>
<path d="M22.2502 44.7967C22.2502 44.7967 21.4577 44.9184 21.8925 45.5817C22.3273 46.2451 22.3374 47.9258 22.0063 48.4658C21.6751 49.0057 23.0883 49.4561 23.7946 49.4561C24.5009 49.4561 29.7266 50.0331 31.4684 42.9156C31.4684 42.9156 32.2233 39.5171 30.0748 39.7738C27.9263 40.0305 27.9759 40.4117 26.8092 39.76C26.8092 39.76 26.0127 39.5459 26.2687 40.3171C26.5247 41.0877 27.2074 42.5018 25.9271 43.2874C24.6467 44.073 23.6077 44.8935 22.2497 44.7972L22.2502 44.7967Z" fill="#2E2F42"/>
<path d="M18.3474 29.6661C18.3474 29.6661 18.0779 30.8212 18.7151 31.9084C19.3523 32.9955 19.7576 34.5949 19.6994 35.4264C19.6413 36.2579 19.178 39.9409 19.4099 41.1055C19.6413 42.2706 20.0651 43.5807 21.3761 43.8219C22.6865 44.0631 24.7153 43.3051 25.4642 42.0985C26.2131 40.8925 25.2768 38.8587 25.2147 37.8596C25.1521 36.8599 24.9653 35.4818 25.2773 34.7233C25.5894 33.9648 25.5894 32.2763 25.1837 31.5526C24.7779 30.829 25.8389 30.5186 25.4021 30.0362C24.9653 29.5538 22.9305 30.3809 21.623 29.1056C20.3156 27.8304 18.3479 29.6666 18.3479 29.6666L18.3474 29.6661Z" fill="#2E2F42"/>
<path d="M26.2126 30.6857C26.2126 30.6857 26.5267 31.0614 27.0176 30.8893C27.5085 30.7167 28.2223 29.8298 28.6907 30.2243C29.1591 30.6188 29.9846 31.6782 30.4755 31.9985C30.9664 32.3189 31.4553 34.2132 31.4158 34.9921C31.3762 35.7705 30.7055 38.4737 30.4289 38.6917C30.1524 38.9096 28.4743 39.3489 27.7895 39.2156C27.1047 39.0822 25.9977 38.9013 25.7988 37.3888C25.6004 35.8762 25.925 35.4856 26.1179 34.6823C26.186 34.3991 26.5156 33.0846 26.1124 32.2171C25.7096 31.3496 25.9125 30.5114 26.2121 30.6863L26.2126 30.6857Z" fill="#2E2F42"/>
<path d="M34.7209 31.7114C34.5216 31.188 34.8707 29.3989 34.1474 28.7931C33.4245 28.1873 33.0503 29.7291 33.0503 30.2796C33.0503 30.8301 31.7905 31.7109 31.7895 31.7114C31.5044 31.9106 31.7464 32.5191 31.8155 32.7725C31.9478 33.2566 31.7619 34.8627 32.5409 34.6447C33.0378 34.5058 33.5688 33.8779 34.0031 33.5692C34.2831 33.3695 34.6283 33.1969 34.8437 32.9075C35.1663 32.4743 34.8948 32.1695 34.7204 31.712L34.7209 31.7114Z" fill="#2E2F42"/>
<path d="M36.1947 34.1302C35.6877 33.6815 35.4418 33.4453 34.8617 33.9C34.5085 34.1767 34.2506 34.5695 33.9169 34.8704C33.2422 35.4784 32.6375 35.8198 32.4221 36.8184C32.2353 37.6848 32.3024 38.6634 31.8025 39.4147C31.2404 40.259 32.5664 40.566 32.5664 40.566C35.4683 40.3702 36.9386 38.5047 37.5507 37.0939C37.8918 36.3077 37.5928 35.4972 37.0949 34.892C36.8484 34.5921 36.5293 34.4018 36.2373 34.1661C36.2237 34.1551 36.2097 34.1429 36.1952 34.1302H36.1947Z" fill="#2E2F42"/>
<path d="M15.3313 40.8399C15.3062 40.7082 15.2591 40.5777 15.184 40.4476C14.7432 39.6842 13.8049 39.459 13.5965 38.4726C13.2644 36.9014 9.8711 33.5814 9.40974 34.3349C8.78908 35.3495 8.25559 36.3835 7.97557 37.583C7.73262 38.6225 7.59837 39.7378 7.75416 40.8056C7.9405 42.0819 8.57869 43.1591 9.16579 44.249C9.41726 44.7164 9.64969 45.2553 10.0149 45.6315C10.4086 46.0376 10.8955 46.3076 11.3964 46.0459C11.9329 45.766 12.3647 45.273 12.8196 44.8631C13.4332 44.3093 13.9828 43.6736 14.4576 42.9732C14.8539 42.389 15.4765 41.6078 15.3313 40.8404V40.8399Z" fill="#2E2F42"/>
<path d="M37.8162 27.9488C37.8162 27.9488 35.1337 28.8816 35.7839 30.3443C36.4346 31.8071 37.182 32.4981 37.2947 33.4895C37.4069 34.4815 38.6908 35.0126 39.1487 35.5448C39.6065 36.077 40.0098 36.7979 41.4981 35.6328C42.9863 34.4682 42.9553 33.1498 42.794 31.8071C42.6327 30.4638 43.093 29.4724 43.7097 28.1729C44.3263 26.8739 46.032 19.4023 46.7854 18.1061C47.5388 16.8093 48.3754 15.3637 47.8193 14.0984C47.2633 12.8331 45.203 11.8655 43.4081 13.7477C41.6133 15.6298 41.978 15.642 41.8768 17.295C41.7756 18.9481 39.9031 26.3145 37.8157 27.9494L37.8162 27.9488Z" fill="#2E2F42"/>
<path d="M16.5591 56.0767C15.8112 54.339 15.5121 52.6284 17.7648 53.0638C19.5056 53.4001 20.555 52.4004 22.0949 51.9307C23.8667 51.3908 25.6029 53.1855 27.3632 52.1266C29.0699 51.0998 30.4214 47.5596 31.3462 48.8547C32.2709 50.1498 30.6809 53.0604 29.9971 54.7191C26.441 63.3435 27.4253 78.6434 27.259 84.0835H19.1119C19.2165 84.0835 19.1219 64.3311 19.1098 64.1529C18.9941 62.4086 18.7923 60.5425 18.0524 59.0061C17.7949 58.4711 17.0715 57.2678 16.5596 56.0767H16.5591Z" fill="#2E2F42"/>
<path d="M9.31458 84.0829C9.81751 80.338 9.4353 57.7658 9.74588 55.934C10.056 54.1022 9.31458 50.5399 9.31458 50.5399C9.31458 50.5399 9.72584 48.1427 10.7132 48.9416C11.7005 49.7404 12.2761 50.24 14.086 50.5399C15.8958 50.8397 16.6362 50.8397 15.8137 52.438C14.9912 54.0364 13.4277 53.8366 13.4277 55.934C13.4277 55.934 13.2855 78.8426 13.544 82.8281L9.31458 84.0829Z" fill="#2E2F42"/>
</svg>
