<svg width="45" height="116" viewBox="0 0 45 116" fill="none" xmlns="http://www.w3.org/2000/svg">
<path d="M10.2609 67.9833C9.79614 67.4242 10.6595 66.2006 11.0799 65.7035C11.4426 65.275 12.123 64.9513 12.7159 65.0269C14.8214 65.2951 14.8214 65.9384 15.9853 65.4559C17.1488 64.9735 18.3127 65.4025 18.4237 66.1532C18.5347 66.9039 18.7009 68.0836 19.6429 68.6735C20.5849 69.2634 19.7539 73.9819 19.6429 74.2501C19.5319 74.5183 17.2603 74.8934 16.1521 73.392C15.0439 71.8906 14.8224 70.8717 14.4342 70.3892C13.9461 69.7822 13.3714 69.272 12.667 68.909C11.973 68.551 11.1128 68.4956 10.4459 68.132C10.3698 68.0902 10.3088 68.0403 10.2614 67.9838L10.2609 67.9833Z" fill="#2E2F42"/>
<path d="M17.8146 75.5604C17.2196 75.88 16.9539 76.6459 16.5611 77.145C15.978 77.8856 15.3184 78.5718 14.5906 79.1808C14.2191 79.4914 13.7517 79.695 13.3667 79.993C13.237 80.0933 12.8926 80.2965 12.9129 80.4886C12.9457 80.7961 13.9362 80.7477 14.1764 80.8234C15.1731 81.138 16.1666 81.5438 17.0519 82.0903C17.4942 82.3636 17.9121 82.6741 18.2794 83.0387C19.8049 84.5527 22.4059 81.9169 22.7304 80.3016C23.055 78.6862 20.3801 78.3565 19.7117 76.6857C19.4704 76.0832 18.8098 75.2397 18.0454 75.4651C17.9631 75.4893 17.886 75.5216 17.8141 75.5604H17.8146Z" fill="#2E2F42"/>
<path d="M23.3932 78.4856C23.3932 78.4856 22.5877 78.594 23.0295 79.1843C23.4713 79.7747 23.4818 81.2711 23.1452 81.752C22.8086 82.233 24.2445 82.6338 24.9625 82.6338C25.6805 82.6338 30.9897 83.1476 32.7596 76.8112C32.7596 76.8112 33.5265 73.7857 31.3439 74.0141C29.1614 74.2425 29.2114 74.5818 28.0261 74.002C28.0261 74.002 27.2169 73.8115 27.4769 74.4976C27.7369 75.1838 28.4309 76.4427 27.1299 77.142C25.829 77.8412 24.7734 78.5718 23.3937 78.4861L23.3932 78.4856Z" fill="#2E2F42"/>
<path d="M19.4277 65.0158C19.4277 65.0158 19.1537 66.0438 19.8013 67.0118C20.4484 67.9798 20.8605 69.403 20.8017 70.1437C20.7428 70.8838 20.2723 74.1624 20.5073 75.1994C20.7428 76.2365 21.1731 77.4026 22.5049 77.6174C23.8366 77.8322 25.8977 77.1571 26.6584 76.0832C27.4196 75.0093 26.4682 73.1994 26.4047 72.3096C26.3411 71.4197 26.151 70.1926 26.4683 69.5175C26.7856 68.8424 26.7856 67.339 26.3729 66.6947C25.9608 66.0504 27.0388 65.7741 26.5949 65.3445C26.151 64.915 24.0836 65.6516 22.755 64.5162C21.4264 63.3808 19.4272 65.0158 19.4272 65.0158H19.4277Z" fill="#2E2F42"/>
<path d="M27.4196 65.9238C27.4196 65.9238 27.7385 66.2586 28.2371 66.1048C28.7357 65.951 29.461 65.1615 29.9372 65.5124C30.4134 65.8633 31.2517 66.8066 31.7509 67.0915C32.2495 67.3768 32.7465 69.0632 32.7064 69.756C32.6663 70.4492 31.9843 72.8556 31.7035 73.0497C31.4226 73.2438 29.7173 73.635 29.0218 73.516C28.3262 73.397 27.2008 73.2362 26.9992 71.8896C26.7975 70.543 27.1273 70.1956 27.3232 69.4802C27.3925 69.2276 27.727 68.0579 27.318 67.2856C26.909 66.5132 27.1148 65.7675 27.4196 65.9228V65.9238Z" fill="#2E2F42"/>
<path d="M36.0644 66.8368C35.8617 66.371 36.2165 64.7778 35.4819 64.2389C34.7473 63.6994 34.3674 65.0723 34.3674 65.5623C34.3674 66.0524 33.0873 66.8363 33.0868 66.8368C32.7971 67.0143 33.043 67.5558 33.1128 67.7812C33.2467 68.2122 33.0586 69.642 33.8501 69.4479C34.3549 69.3239 34.8947 68.7653 35.3355 68.4905C35.6205 68.313 35.9706 68.1593 36.1894 67.9011C36.5172 67.5155 36.2415 67.2442 36.0644 66.8368Z" fill="#2E2F42"/>
<path d="M37.5613 68.9901C37.046 68.5908 36.7964 68.3801 36.2071 68.7854C35.8487 69.032 35.5866 69.3819 35.2469 69.6496C34.5613 70.191 33.947 70.4946 33.7281 71.3834C33.538 72.1543 33.6062 73.026 33.0982 73.6945C32.5272 74.4457 33.8745 74.7189 33.8745 74.7189C36.823 74.5445 38.3168 72.8843 38.9388 71.6279C39.2853 70.9281 38.9816 70.2067 38.4757 69.6677C38.2251 69.401 37.901 69.2316 37.604 69.0214C37.5899 69.0113 37.5759 69.0007 37.5613 68.9896V68.9901Z" fill="#2E2F42"/>
<path d="M16.3636 74.963C16.3386 74.846 16.2901 74.729 16.2141 74.6141C15.766 73.9345 14.813 73.7343 14.601 72.8556C14.2639 71.457 10.8158 68.5011 10.3474 69.1721C9.71695 70.0751 9.17457 70.9957 8.89009 72.0635C8.64365 72.9892 8.50662 73.9819 8.66501 74.9322C8.85414 76.0686 9.50281 77.027 10.0989 77.998C10.3547 78.4145 10.5907 78.8939 10.9617 79.2292C11.3618 79.5907 11.8563 79.8312 12.3653 79.5982C12.9108 79.3487 13.349 78.9106 13.8111 78.545C14.4348 78.052 14.9928 77.4863 15.4758 76.8627C15.878 76.3424 16.511 75.6471 16.3636 74.964V74.963Z" fill="#2E2F42"/>
<path d="M18.4529 36.8497C22.5137 36.1131 23.2718 36.9808 23.9903 39.8298C24.7088 42.6788 24.0648 44.3481 24.1763 46.1485C24.3727 49.3227 23.8944 52.7939 25.1308 55.8204C26.2473 58.5539 26.7949 62.6377 26.7986 63.4111C26.8022 64.1839 24.4837 64.0181 23.9679 63.5754C23.452 63.1328 22.51 62.9729 21.2377 63.2185C19.9654 63.464 19.8951 63.0385 19.8867 60.7627C19.8758 57.6268 19.6382 54.4027 19.1062 51.2708C18.5529 48.0104 17.3374 45.2808 16.3891 42.1732C16.0796 41.1593 16.0275 40.0068 16.0963 38.9546C16.0963 38.9546 16.2354 37.2525 18.4524 36.8502L18.4529 36.8497Z" fill="#2E2F42"/>
<path d="M6.01721 64.8388C6.01721 64.8388 6.97067 68.2833 7.75688 67.6365C7.97936 66.9861 8.28364 66.3367 8.67128 65.763C9.21731 64.9548 10.6006 64.6674 10.6881 63.6006C10.8908 61.1368 9.56066 58.4677 8.93492 56.1203C8.30344 53.7533 8.91511 54.9764 7.92204 50.873C7.31401 48.3613 6.25479 44.7101 4.85585 43.36C3.45639 42.0098 -0.331939 43.8021 0.0233965 45.6892C0.378732 47.5763 0.996661 49.4195 2.18563 50.8932C3.37459 52.3668 4.73915 55.2149 6.01721 64.8388Z" fill="#2E2F42"/>
<path d="M11.566 60.9427C11.566 60.9427 11.3675 64.1774 12.7915 63.9026C12.7915 63.9026 15.0652 63.1766 17.1951 63.6717C18.4643 63.9666 17.6698 60.4511 17.7234 59.3611C17.7672 58.4718 17.1592 57.471 16.8815 56.6558C15.9244 53.8486 15.2934 51.0394 14.5979 48.1707C13.9106 45.3363 13.3886 42.3607 11.9354 39.8011C11.5775 39.1704 11.1919 38.4998 10.6475 37.9982C9.13704 36.6062 5.18407 38.5865 5.60661 40.5694C6.02916 42.5528 6.80809 44.391 7.61671 46.2024C8.53162 48.2529 10.1551 52.9139 11.566 60.9427Z" fill="#2E2F42"/>
<path d="M5.63215 53.7331C5.5962 53.7331 5.55817 53.7331 5.51858 53.7316C5.13563 53.7236 4.78915 53.6131 4.48904 53.4034C3.65801 52.8226 3.71063 52.3951 3.89611 51.7593C3.93519 51.6252 3.98 51.473 4.01752 51.2955C4.10765 50.87 4.09567 50.8534 3.89091 50.5771C3.81588 50.4752 3.7221 50.3487 3.61425 50.1793C3.33654 49.7427 3.00778 49.3041 2.68996 48.8796C2.32056 48.3865 1.93917 47.8773 1.60884 47.3388C1.59842 47.3222 1.58435 47.3025 1.56872 47.2808C1.40304 47.0459 1.10605 46.6244 1.2905 46.1263C1.3551 45.9514 1.53747 45.6363 2.03244 45.4951C2.26325 45.4296 2.48624 45.418 2.66547 45.4084C2.77332 45.4028 2.90826 45.3958 2.96036 45.3766C2.99684 45.3635 3.02394 45.3529 3.04478 45.3444C3.1 45.2339 3.19118 45.125 3.37822 44.9874C3.51108 44.8901 3.64394 44.7928 3.77941 44.6985C4.21654 44.3965 4.70057 44.1167 5.27629 44.1167H5.3133C5.54255 44.1223 5.76293 44.1737 5.96873 44.2705C7.15405 44.8286 7.14884 45.9917 7.14572 46.6869C7.1452 46.8659 7.14364 47.1614 7.17751 47.2536C7.2343 47.3348 7.29264 47.4139 7.35152 47.4931C7.77302 48.0648 8.25133 48.7127 8.29718 50.1516C8.31176 50.6028 8.46025 50.6028 8.54934 50.6028C8.67908 50.6028 8.81767 50.5519 8.8703 50.5327C8.91094 50.5176 8.9672 50.4974 9.04431 50.4974H9.173L9.47206 50.6991L9.55439 50.9113C9.78364 51.4997 9.65599 51.9136 9.50855 52.1571C9.14435 52.7581 8.41597 52.865 7.77303 52.9597C7.58129 52.988 7.22491 53.0404 7.13426 53.0923C7.01546 53.1745 6.91699 53.2481 6.83258 53.3112C6.4512 53.5955 6.2407 53.7321 5.63215 53.7321V53.7331Z" fill="#2E2F42"/>
<path d="M5.27629 44.515C5.28567 44.515 5.29505 44.515 5.30391 44.515C5.47376 44.5185 5.63684 44.5568 5.78846 44.6284C6.74141 45.0771 6.73724 46.0068 6.73412 46.6854C6.73256 47.0005 6.7315 47.3262 6.82893 47.4659C7.28795 48.1228 7.83711 48.6426 7.88556 50.1641C7.90745 50.8468 8.24402 51.0011 8.54882 51.0011C8.80047 51.0011 9.03076 50.8957 9.04379 50.8957L9.13133 50.9547L9.16884 51.0515C9.30691 51.4064 9.3017 51.7109 9.15269 51.9565C8.88801 52.3936 8.28936 52.4818 7.70999 52.567C7.39842 52.6129 7.04464 52.6648 6.89771 52.7666C6.28499 53.1906 6.25633 53.3353 5.63059 53.3353C5.59724 53.3353 5.56234 53.3353 5.52586 53.3343C5.22732 53.3278 4.959 53.2426 4.72819 53.0812C3.89404 52.4984 4.22696 52.2811 4.4187 51.3762C4.58386 50.5977 4.39108 50.6441 3.96281 49.9716C3.67677 49.5223 3.34332 49.0777 3.02133 48.6471C2.65766 48.1621 2.282 47.66 1.96053 47.1366C1.94438 47.1104 1.92354 47.0812 1.90062 47.0484C1.76568 46.8573 1.56195 46.5685 1.67554 46.2604C1.72243 46.1334 1.84226 45.9635 2.14654 45.8772C2.33046 45.8248 2.51958 45.8147 2.68579 45.8062C2.84313 45.7981 2.99215 45.79 3.10365 45.7492C3.58507 45.5737 3.21358 45.6065 3.62519 45.3045C3.75492 45.2092 3.88465 45.1139 4.01699 45.0227C4.3989 44.7585 4.81572 44.515 5.27526 44.515H5.27629ZM5.27629 43.7194C4.5823 43.7194 4.00918 44.0512 3.54027 44.3758C3.39699 44.4747 3.26099 44.5745 3.1297 44.6713C2.97912 44.7817 2.86502 44.8891 2.77853 45.004C2.73581 45.0076 2.68267 45.0101 2.64255 45.0121C2.45238 45.0222 2.19238 45.0358 1.91624 45.1144C1.41971 45.2556 1.05969 45.5677 0.902859 45.9937C0.648602 46.6824 1.05084 47.2536 1.22277 47.4971L1.22954 47.5067C1.23944 47.5208 1.24882 47.5339 1.25663 47.546C1.5953 48.0981 1.98242 48.6149 2.35703 49.1145C2.67017 49.5324 2.99371 49.964 3.26464 50.389C3.37979 50.57 3.47773 50.7026 3.55693 50.8095C3.59236 50.8574 3.63509 50.9148 3.65697 50.9486C3.65593 50.9824 3.64864 51.06 3.61529 51.2163C3.5809 51.3792 3.54027 51.5178 3.50119 51.6519C3.29539 52.3573 3.20889 53.0006 4.24885 53.7271C4.61773 53.9847 5.04185 54.1203 5.50972 54.1304H5.5191C5.55869 54.1314 5.59673 54.1314 5.63268 54.1314C6.37044 54.1314 6.66482 53.9398 7.08372 53.6277C7.15666 53.5733 7.23845 53.5123 7.33536 53.4442C7.44165 53.412 7.69435 53.3752 7.83555 53.354C8.4962 53.2572 9.40069 53.1241 9.86387 52.3593C10.0567 52.0412 10.226 51.5077 9.93994 50.7717L9.90243 50.6754L9.81281 50.4445L9.60388 50.3033L9.52105 50.2473L9.31056 50.1006H9.04535C8.89269 50.1006 8.78016 50.142 8.72597 50.1616C8.72076 50.1636 8.71555 50.1657 8.71034 50.1672C8.71034 50.1586 8.7093 50.1495 8.7093 50.1399C8.6598 48.5801 8.12054 47.8495 7.68757 47.2622C7.64746 47.2077 7.60735 47.1533 7.56775 47.0983C7.55733 46.997 7.55784 46.8094 7.55836 46.6895C7.56149 45.9519 7.56774 44.5805 6.15004 43.913C5.8911 43.791 5.6134 43.726 5.32424 43.7199C5.30861 43.7199 5.29349 43.7194 5.27786 43.7194H5.27629Z" fill="#F7EEDF"/>
<path d="M8.44255 62.7496C8.01375 62.7496 7.73397 62.5101 7.69437 62.1098C7.60215 61.1847 7.29422 58.6997 7.078 58.0397C7.01808 57.8572 6.69089 57.4297 6.40172 57.0531C5.58997 55.9933 4.66985 54.7924 5.46388 54.2015C5.88643 53.8869 6.45435 53.6938 7.00402 53.5068C7.55734 53.3182 8.12942 53.1236 8.5254 52.8156L8.55823 52.7898L8.59626 52.7727C8.72547 52.7147 9.8816 52.2045 10.6037 52.2045C10.8283 52.2045 11.0034 52.2514 11.1383 52.3477C11.5885 52.6683 11.3822 53.2844 11.1633 53.9363C11.0237 54.3523 10.8658 54.8242 10.8887 55.1766C10.9617 56.2988 11.5072 58.6987 12.1439 59.0964C12.7441 59.4715 13.139 60.0009 13.2271 60.5484C13.2922 60.9533 13.1859 61.3334 12.9192 61.6475C12.6977 61.9087 12.4461 62.0352 12.1507 62.0352C11.9824 62.0352 11.825 61.9939 11.6729 61.9545C11.515 61.9132 11.3655 61.8744 11.1961 61.8744C11.0956 61.8744 10.9966 61.8885 10.8945 61.9172C10.6689 61.9808 10.3677 62.1103 10.0489 62.248C9.47626 62.4945 8.88437 62.7496 8.44203 62.7496H8.44255Z" fill="#2E2F42"/>
<path d="M8.44252 63.1474C7.79958 63.1474 7.34526 62.7552 7.28482 62.1476C7.17697 61.0652 6.87686 58.742 6.68565 58.1597C6.63719 58.0281 6.26987 57.5487 6.07241 57.291C5.1924 56.1425 4.09878 54.7148 5.21325 53.8859C5.68789 53.533 6.28759 53.3288 6.86748 53.1312C7.3885 52.9537 7.92672 52.7707 8.26747 52.5055L8.33936 52.4495L8.42325 52.4117C8.64781 52.3109 9.80968 51.8067 10.6037 51.8067C10.9194 51.8067 11.1737 51.8788 11.3821 52.0271C12.0709 52.5181 11.7843 53.3722 11.5546 54.0588C11.4327 54.4218 11.281 54.8741 11.2993 55.1514C11.3868 56.499 11.986 58.5232 12.3674 58.7622C13.0655 59.1988 13.5272 59.8275 13.6334 60.4874C13.7173 61.0072 13.5803 61.4958 13.2369 61.9006C12.9363 62.2545 12.5711 62.434 12.1511 62.434C11.9297 62.434 11.738 62.3841 11.5692 62.3402C11.3451 62.2817 11.1945 62.248 11.0101 62.2999C10.8116 62.3559 10.5235 62.4799 10.2187 62.611C9.60544 62.8751 8.97292 63.1479 8.44304 63.1479L8.44252 63.1474ZM8.77703 53.1302C8.32634 53.478 7.72352 53.6832 7.1405 53.8819C6.62156 54.0588 6.08492 54.2413 5.71447 54.5166C5.24034 54.869 6.10263 55.9943 6.73202 56.8156C7.14102 57.35 7.39476 57.6903 7.46978 57.9192C7.70841 58.6482 8.02206 61.2548 8.10334 62.071C8.11688 62.2097 8.16795 62.3513 8.44252 62.3513C8.79786 62.3513 9.37411 62.1033 9.88211 61.884C10.2156 61.7403 10.5282 61.6057 10.7798 61.5351C10.9195 61.4958 11.056 61.4766 11.1966 61.4766C11.4207 61.4766 11.6119 61.5265 11.7807 61.5704C11.9141 61.6052 12.0381 61.6374 12.1511 61.6374C12.2642 61.6374 12.4195 61.6097 12.6018 61.3949C12.7951 61.1675 12.8691 60.9029 12.8217 60.6094C12.7514 60.1733 12.4231 59.7438 11.9214 59.4297C10.996 58.8514 10.5287 55.9656 10.4792 55.2008C10.4516 54.7722 10.6225 54.2625 10.773 53.8128C10.9747 53.2118 11.0919 52.8075 10.895 52.6673C10.833 52.6235 10.7376 52.6018 10.6042 52.6018C10.0921 52.6018 9.21833 52.932 8.77703 53.1297V53.1302Z" fill="#F7EEDF"/>
<path d="M11.255 69.0869C9.7555 69.0869 9.38505 67.3385 9.22719 66.5923C9.21624 66.5399 9.20583 66.492 9.19645 66.4496C9.16676 66.3176 9.06463 66.0937 8.95678 65.8562C8.57331 65.0148 7.99341 63.7438 8.91197 62.9316C9.72424 62.2137 9.79093 62.1547 10.2843 62.0907C10.3667 62.0801 10.4599 62.068 10.5818 62.0458C10.686 62.0165 11.1581 61.891 11.6213 61.891C12.0845 61.891 12.4372 62.0226 12.6315 62.2817C12.9775 62.744 12.8003 63.8013 12.5706 64.9356C12.5388 65.0924 12.5028 65.2699 12.4976 65.3249C12.5002 65.3682 12.5232 65.5003 12.543 65.6173C12.6753 66.3922 12.9217 67.8346 12.3387 68.5999C12.1386 68.8621 11.8526 69.0244 11.5119 69.0698C11.4249 69.0814 11.3384 69.0869 11.255 69.0869Z" fill="#2E2F42"/>
<path d="M11.255 69.4847C9.41996 69.4847 8.98752 67.4413 8.82444 66.672L8.82079 66.6548C8.81141 66.6105 8.80255 66.5701 8.79474 66.5333C8.7739 66.4406 8.66657 66.2051 8.58061 66.0161C8.17577 65.1282 7.49793 63.642 8.63479 62.6367C9.46009 61.9076 9.60857 61.776 10.2291 61.6949C10.302 61.6853 10.3833 61.6747 10.4881 61.6566C10.6537 61.6112 11.1346 61.4922 11.6213 61.4922C12.2366 61.4922 12.6888 61.6792 12.9645 62.0478C13.4078 62.6407 13.2312 63.7408 12.9744 65.0118C12.9546 65.1091 12.9249 65.2573 12.9124 65.3299C12.9202 65.3823 12.9363 65.4791 12.9473 65.5422C13.0916 66.3851 13.3563 67.9354 12.6696 68.8359C12.4023 69.1868 12.0209 69.4035 11.5676 69.4635C11.4624 69.4772 11.3571 69.4847 11.255 69.4847ZM11.6213 62.2883C11.2102 62.2883 10.7793 62.4037 10.697 62.4269L10.6563 62.436C10.5261 62.4592 10.4271 62.4723 10.339 62.4839C10.0952 62.5158 9.71191 62.7627 9.18915 63.2245C8.54205 63.7967 8.88748 64.7194 9.33243 65.6949C9.45435 65.9621 9.5596 66.1935 9.59816 66.3649C9.60702 66.4043 9.6164 66.4476 9.6263 66.4945L9.62993 66.5117C9.85814 67.5881 10.2291 68.6886 11.255 68.6886C11.3201 68.6886 11.3879 68.6841 11.4561 68.675C11.688 68.6443 11.8735 68.5399 12.0079 68.3635C12.4883 67.7332 12.2512 66.3478 12.1376 65.6818C12.1058 65.4943 12.0912 65.405 12.0876 65.3491L12.0855 65.3183L12.0886 65.2876C12.0949 65.2205 12.1183 65.101 12.1668 64.8625C12.3074 64.1663 12.5685 62.8756 12.2986 62.5146C12.1861 62.3644 11.9584 62.2883 11.6213 62.2883Z" fill="#F7EEDF"/>
<path d="M11.9688 49.2531C11.9276 49.2531 11.8844 49.2526 11.8385 49.2516C11.4092 49.2425 11.021 49.119 10.685 48.8841C9.73986 48.2236 9.81801 47.7578 10.0243 47.0519C10.0702 46.8957 10.1218 46.7187 10.1655 46.512C10.2755 45.9942 10.2499 45.9599 10.0087 45.6337C9.92221 45.5173 9.8154 45.3721 9.69192 45.178C9.36941 44.6708 8.98907 44.1636 8.62123 43.673C8.19608 43.1059 7.75686 42.5195 7.37547 41.8984C7.36244 41.8772 7.34577 41.8535 7.32754 41.8278C7.14258 41.5651 6.81121 41.0958 7.01284 40.5492C7.08318 40.3582 7.28326 40.0133 7.82824 39.8585C8.08719 39.7849 8.34041 39.7718 8.54465 39.7612C8.68063 39.7542 8.83485 39.7456 8.90467 39.7204C8.96146 39.6997 9.00105 39.6841 9.02762 39.6725C9.08649 39.5454 9.18602 39.4219 9.40381 39.2621C9.55647 39.1497 9.70964 39.0378 9.86594 38.9299C10.362 38.5865 10.9106 38.2689 11.5582 38.2689H11.5994C11.8552 38.275 12.1006 38.3324 12.3298 38.4403C13.6626 39.0675 13.6569 40.3869 13.6532 41.1754C13.6522 41.3962 13.6506 41.7643 13.698 41.8621C13.7606 41.9508 13.8314 42.0466 13.9023 42.1429C14.3842 42.7963 14.9303 43.5364 14.9829 45.1795C15.0011 45.7608 15.2205 45.7608 15.3377 45.7608C15.4987 45.7608 15.6675 45.6993 15.7305 45.6761C15.7753 45.6594 15.8316 45.6393 15.9092 45.6393H16.04L16.3511 45.85L16.4396 46.0774C16.6955 46.7348 16.5543 47.1941 16.3912 47.4638C15.9864 48.1329 15.1606 48.2539 14.4322 48.3608C14.2024 48.3945 13.7746 48.4576 13.6704 48.5226C13.5287 48.6204 13.4146 48.7061 13.3161 48.7792C12.8759 49.1074 12.6524 49.2526 11.9688 49.2526V49.2531Z" fill="#2E2F42"/>
<path d="M11.5577 38.6677C11.5687 38.6677 11.5791 38.6677 11.59 38.6677C11.7859 38.6717 11.9745 38.7161 12.1496 38.7983C13.25 39.3166 13.2453 40.3899 13.2422 41.1739C13.2406 41.5379 13.2391 41.914 13.3516 42.0753C13.882 42.8341 14.5161 43.4346 14.5718 45.1921C14.5968 45.9806 14.9855 46.1591 15.3377 46.1591C15.6284 46.1591 15.8942 46.0376 15.9098 46.0376C15.9098 46.0376 15.9098 46.0376 15.9103 46.0376L16.0114 46.1056L16.0546 46.2176C16.2141 46.6274 16.2078 46.9793 16.0364 47.2627C15.7306 47.7679 15.0392 47.8692 14.3702 47.9675C14.0101 48.0204 13.6022 48.0804 13.4323 48.1979C12.7248 48.688 12.6915 48.8548 11.9683 48.8548C11.9302 48.8548 11.8901 48.8548 11.8479 48.8533C11.5035 48.8458 11.193 48.7474 10.9262 48.5609C9.96236 47.8873 10.3469 47.6363 10.5688 46.5911C10.7595 45.6922 10.537 45.7457 10.0426 44.9687C9.71227 44.45 9.32723 43.9362 8.9547 43.4391C8.53476 42.8785 8.10075 42.2992 7.72978 41.6947C7.71155 41.6645 7.68706 41.6302 7.66048 41.5929C7.5047 41.372 7.2692 41.0383 7.40102 40.6828C7.4552 40.5361 7.5938 40.34 7.94497 40.2402C8.15755 40.1797 8.37533 40.1681 8.56759 40.158C8.74942 40.1484 8.92136 40.1394 9.05005 40.0925C9.60598 39.8898 9.17666 39.9281 9.65235 39.5787C9.80241 39.4688 9.95194 39.3589 10.1051 39.253C10.5464 38.948 11.0273 38.6667 11.5582 38.6667L11.5577 38.6677ZM11.5577 37.8721C10.7923 37.8721 10.152 38.2437 9.62681 38.6072C9.46165 38.7211 9.2991 38.8406 9.1553 38.946C8.96982 39.0821 8.83851 39.2097 8.74369 39.3488C8.68689 39.3559 8.59103 39.3609 8.52277 39.3645C8.30968 39.3755 8.01738 39.3912 7.71311 39.4774C6.99358 39.6821 6.7237 40.1535 6.62679 40.4161C6.35482 41.1527 6.79404 41.7759 6.98161 42.0416L6.98994 42.0532C7.00244 42.0713 7.01494 42.0874 7.02432 42.1026C7.41404 42.7373 7.859 43.3317 8.28988 43.9065C8.65303 44.391 9.02816 44.8916 9.34338 45.3867C9.47416 45.5924 9.58618 45.7436 9.6758 45.8651C9.72946 45.9377 9.79615 46.0275 9.81438 46.0638C9.81647 46.0865 9.81803 46.1772 9.76385 46.4318C9.72321 46.6244 9.67579 46.7868 9.62994 46.9435C9.39704 47.7401 9.30952 48.4127 10.4453 49.2067C10.8502 49.4896 11.316 49.6383 11.8297 49.6494H11.8391H11.8396C11.8849 49.6504 11.9276 49.6509 11.9688 49.6509C12.7816 49.6509 13.0906 49.4497 13.5673 49.0948C13.6564 49.0283 13.7569 48.9537 13.8773 48.869C13.9976 48.8276 14.3181 48.7802 14.4942 48.7545C15.2726 48.6401 16.2422 48.4979 16.746 47.665C16.9544 47.3207 17.1373 46.7419 16.8247 45.9372L16.7815 45.8258L16.6918 45.5949L16.4829 45.4537L16.3818 45.3857L16.1698 45.2425H15.9103C15.7577 45.2425 15.6462 45.2828 15.5862 45.305C15.5571 45.3156 15.4846 45.3423 15.4138 45.3559C15.4049 45.3136 15.3966 45.2526 15.394 45.1684C15.3377 43.4043 14.7276 42.577 14.2373 41.9125C14.1826 41.8384 14.13 41.7673 14.0795 41.6967C14.0628 41.5792 14.0638 41.3332 14.0643 41.1789C14.068 40.3541 14.0748 38.8205 12.5096 38.0834C12.2267 37.9503 11.9235 37.8792 11.6082 37.8726C11.5916 37.8726 11.5744 37.8721 11.5577 37.8721Z" fill="#F7EEDF"/>
<path d="M15.2147 59.7281C14.7198 59.7281 14.3962 59.4519 14.3504 58.989C14.2441 57.9207 13.8882 55.0505 13.6387 54.2882C13.5694 54.0775 13.1916 53.5839 12.8577 53.1483C11.9198 51.9242 10.8575 50.5372 11.7745 49.8551C12.2621 49.4921 12.9186 49.2688 13.5532 49.0525C14.1925 48.8352 14.8532 48.6098 15.3101 48.2544L15.3481 48.2246L15.3924 48.205C15.542 48.1379 16.8768 47.5491 17.7115 47.5491C17.9709 47.5491 18.1731 47.603 18.3294 47.7144C18.8494 48.085 18.6108 48.7964 18.3581 49.5491C18.1971 50.0295 18.0142 50.574 18.0408 50.9814C18.1252 52.2776 18.7551 55.049 19.4908 55.5088C20.1837 55.9419 20.6396 56.5534 20.7417 57.1861C20.8173 57.6535 20.6938 58.0926 20.3859 58.4556C20.13 58.7571 19.8393 58.9038 19.4986 58.9038C19.3042 58.9038 19.1224 58.8564 18.9468 58.8106C18.7645 58.7627 18.592 58.7178 18.3961 58.7178C18.2799 58.7178 18.1658 58.7339 18.0475 58.7672C17.787 58.8403 17.4395 58.99 17.0711 59.1489C16.41 59.4337 15.7264 59.7281 15.2153 59.7281H15.2147Z" fill="#2E2F42"/>
<path d="M15.2147 60.1259C14.5077 60.1259 14.0075 59.6944 13.9414 59.0269C13.8168 57.7745 13.4688 55.0848 13.2468 54.4082C13.1947 54.2554 12.7613 53.6903 12.5284 53.3863C11.529 52.0815 10.2864 50.4596 11.5238 49.5395C12.0641 49.1372 12.7519 48.9032 13.4167 48.6769C14.0232 48.4707 14.6499 48.2574 15.0522 47.9438L15.1293 47.8838L15.2189 47.8435C15.4768 47.7275 16.8091 47.1503 17.7109 47.1503C18.0611 47.1503 18.3429 47.2294 18.5722 47.3933C19.3308 47.9342 19.0213 48.8569 18.7483 49.6711C18.606 50.0956 18.4289 50.6235 18.4503 50.9557C18.5461 52.4319 19.2151 54.863 19.7127 55.174C20.5041 55.6686 21.0267 56.3795 21.1471 57.1241C21.2408 57.7065 21.0871 58.254 20.7026 58.7077C20.3681 59.1015 19.9628 59.3011 19.4975 59.3011C19.2495 59.3011 19.0322 59.2447 18.8405 59.1942C18.5758 59.1252 18.3877 59.0848 18.1616 59.1484C17.9277 59.2139 17.5921 59.3586 17.2373 59.5114C16.5371 59.8128 15.8129 60.1249 15.2142 60.1249L15.2147 60.1259ZM15.5669 48.565C15.0548 48.9627 14.3608 49.1992 13.6897 49.4276C13.0859 49.6333 12.4611 49.8455 12.025 50.1702C11.428 50.6144 12.4038 51.8879 13.1874 52.9113C13.6564 53.5234 13.9466 53.9126 14.0299 54.1682C14.3045 55.0056 14.6656 58.01 14.7588 58.9512C14.775 59.1141 14.8401 59.3309 15.2142 59.3309C15.6378 59.3309 16.3099 59.0415 16.9028 58.7859C17.2842 58.6215 17.6442 58.4662 17.9319 58.3856C18.0871 58.3417 18.2387 58.3205 18.395 58.3205C18.6451 58.3205 18.852 58.3745 19.052 58.4269C19.2104 58.4682 19.3579 58.5066 19.497 58.5066C19.6361 58.5066 19.8388 58.4723 20.067 58.2036C20.302 57.9268 20.3921 57.6051 20.3343 57.2477C20.2504 56.7269 19.8612 56.2151 19.2662 55.8431C18.2976 55.2376 17.7026 52.138 17.6291 51.0066C17.5979 50.5231 17.7933 49.9403 17.9657 49.4266C18.2069 48.7071 18.3455 48.2211 18.084 48.0351C18.0011 47.9761 17.8787 47.9474 17.7099 47.9474C17.106 47.9474 16.0786 48.3361 15.5654 48.566L15.5669 48.565Z" fill="#F7EEDF"/>
<path d="M18.4628 67.0481C16.7309 67.0481 16.3032 65.0289 16.1208 64.1668C16.1078 64.1063 16.0963 64.0513 16.0854 64.0019C16.0515 63.8492 15.9332 63.5905 15.8082 63.3168C15.3648 62.3453 14.6953 60.8766 15.7566 59.9389C16.695 59.1095 16.7716 59.0415 17.3416 58.9674C17.4369 58.9547 17.5442 58.9411 17.6854 58.9159C17.8053 58.8821 18.3513 58.7375 18.8859 58.7375C19.4204 58.7375 19.8284 58.8892 20.0524 59.1892C20.452 59.7231 20.2473 60.9442 19.9821 62.2545C19.9456 62.436 19.9039 62.6407 19.8977 62.7037C19.9008 62.7536 19.9269 62.9064 19.9503 63.0415C20.1035 63.9364 20.388 65.6027 19.7143 66.4865C19.4835 66.7895 19.1531 66.977 18.7598 67.0289C18.6592 67.042 18.5592 67.0491 18.4628 67.0491V67.0481Z" fill="#2E2F42"/>
<path d="M18.4628 67.4459C16.3959 67.4459 15.9035 65.1217 15.7181 64.2465C15.7045 64.1829 15.6936 64.1315 15.6837 64.0856C15.6581 63.9722 15.5383 63.709 15.4325 63.4766C14.9714 62.4663 14.2003 60.7748 15.48 59.644C16.4423 58.7934 16.5897 58.6628 17.2874 58.5721C17.3733 58.561 17.4687 58.5484 17.5922 58.5267C17.7782 58.4758 18.3294 58.3382 18.8864 58.3382C19.5757 58.3382 20.0806 58.5454 20.3864 58.9543C20.8834 59.6187 20.6808 60.8756 20.3864 62.3291C20.3619 62.4501 20.3265 62.6271 20.3129 62.7073C20.3218 62.7693 20.3426 62.8923 20.3562 62.9714C20.5198 63.9283 20.823 65.702 20.0457 66.7209C19.7471 67.1121 19.322 67.3546 18.8155 67.4212C18.6967 67.4368 18.5785 67.4449 18.4633 67.4449L18.4628 67.4459ZM18.8859 59.1342C18.4029 59.1342 17.8964 59.2699 17.8001 59.2971L17.7594 59.3062C17.6109 59.3329 17.4973 59.3475 17.3968 59.3606C17.1012 59.3993 16.6467 59.6897 16.0333 60.2318C15.2544 60.92 15.6602 62.0075 16.1839 63.1555C16.3235 63.461 16.4438 63.7247 16.4866 63.9172C16.4975 63.9656 16.509 64.0201 16.5215 64.0791C16.7919 65.3541 17.2321 66.6503 18.4623 66.6503C18.5404 66.6503 18.6212 66.6448 18.7035 66.6337C18.989 66.5964 19.2172 66.4668 19.3834 66.249C19.9539 65.5003 19.6778 63.883 19.5449 63.1055C19.509 62.8943 19.4918 62.7899 19.4876 62.7269L19.4856 62.6962L19.4887 62.6654C19.496 62.5893 19.5267 62.434 19.5767 62.1875C19.7429 61.3667 20.0477 59.8592 19.7195 59.4206C19.5767 59.23 19.2964 59.1337 18.8859 59.1337V59.1342Z" fill="#F7EEDF"/>
<path d="M32.808 7.13933C32.808 7.13933 31.1684 7.26487 30.8631 6.63617C30.5583 6.00748 31.7399 3.90159 31.8353 3.58699C31.9306 3.2729 31.7399 -0.122141 33.5322 0.00339568C35.3245 0.128932 35.1719 2.26659 35.1719 3.02082C35.1719 3.77504 36.7381 5.91976 35.3652 6.64273C33.9923 7.3657 33.7188 7.16101 32.8075 7.13832L32.808 7.13933Z" fill="#2E2F42"/>
<path d="M29.0671 30.8875C28.9077 32.0072 28.5398 33.1118 27.8151 34.1928C27.4379 34.7554 26.8533 35.3221 27.2128 35.9926C27.5457 36.6138 28.396 36.6768 29.076 36.4706C30.7802 35.9533 32.5027 36.101 33.1488 36.5835C33.7948 37.066 34.7478 37.3448 34.8812 36.1766C35.0145 35.0085 34.2252 33.3957 33.8662 31.1708C33.5072 28.9459 33.8662 25.4425 34.4404 24.2744C35.0145 23.1067 35.732 20.0479 33.6516 20.0474C32.5126 20.0474 31.2689 19.7454 30.1586 20.056C28.6414 20.48 28.6091 21.7263 28.6586 22.9418C28.7102 24.2133 28.9254 25.4768 29.0291 26.7458C29.139 28.0889 29.2583 29.5474 29.0671 30.888V30.8875Z" fill="#2E2F42"/>
<path d="M29.8476 10.247C29.8476 10.247 30.8844 13.3229 30.5077 14.8193C30.131 16.3156 28.6117 17.1001 29.8476 18.4054C31.0834 19.7107 33.4796 19.0169 34.703 18.9751C35.9263 18.9337 36.0201 17.15 35.2677 16.5279C34.5149 15.9057 34.2799 12.0892 34.6092 11.4257C34.9385 10.7622 36.0675 9.47613 35.4558 8.68812C34.8442 7.90011 30.243 7.62635 30.0456 8.93718L29.8481 10.248L29.8476 10.247Z" fill="#2E2F42"/>
<path d="M28.3533 57.6994C28.1918 59.2991 28.3335 60.8716 27.6702 62.3654C27.2196 63.3813 26.9361 64.4375 28.0047 64.5958C28.7759 64.7103 29.9763 63.227 30.551 64.3599C30.8688 64.9866 32.1307 66.4018 32.7392 65.6632C33.3483 64.9251 34.1746 62.8333 34.8739 62.9563C34.8739 62.9563 34.8103 60.9881 34.4289 59.1428C33.5494 54.8872 32.7299 49.5259 33.3556 45.1971C33.6724 43.0076 34.5206 38.1293 33.3144 37.8187C31.9697 37.4718 29.4412 36.3521 28.5456 37.5409C26.8293 39.8182 27.6874 43.4124 28.0704 46.1006C28.6175 49.9383 28.7425 53.842 28.3523 57.6999L28.3533 57.6994Z" fill="#2E2F42"/>
<path d="M19.1927 44.7701C18.3971 44.8271 17.2222 43.8767 15.9864 42.813C15.8045 42.6562 15.5982 42.4787 15.5419 42.4419C15.5034 42.4212 15.3106 42.3471 15.1402 42.2816C14.0836 41.8752 12.1162 41.1195 11.6046 39.9201C11.4321 39.5167 11.4379 39.1053 11.6202 38.6985C11.9657 37.9281 12.6284 37.4809 13.5365 37.4053C14.5338 37.3221 15.6159 37.6932 16.2625 37.915C16.3354 37.9402 16.4027 37.9629 16.4626 37.9831C16.6699 38.0516 17.1555 38.0476 17.6255 38.0436C18.9379 38.0325 20.9209 38.0153 21.2586 39.5606C21.5795 41.0302 21.4123 41.5092 21.0882 42.2296C21.0298 42.3597 20.9694 42.4943 20.9084 42.6491C20.4067 44.573 19.4022 44.752 19.2052 44.7686L19.1922 44.7696L19.1927 44.7701Z" fill="#2E2F42"/>
<path d="M13.574 37.8177C14.589 37.733 15.7608 38.1878 16.324 38.3748C17.2498 38.6818 20.4619 37.915 20.8402 39.6463C21.2179 41.3776 20.8652 41.5808 20.5 42.5256C20.5 42.5256 20.0488 44.2831 19.1698 44.3562C19.1672 44.3562 19.1646 44.3562 19.162 44.3567C18.2773 44.4202 16.1317 42.3254 15.7816 42.098C15.4315 41.8702 11.1951 40.6884 12.0141 38.8633C12.3345 38.1494 12.9222 37.8721 13.5746 37.8177H13.574ZM13.5006 36.9924C12.4262 37.0821 11.6405 37.615 11.2284 38.5331C11.0013 39.0398 10.9945 39.5737 11.2097 40.0779C11.7906 41.4391 13.8669 42.2372 14.9829 42.6662C15.1048 42.7131 15.2517 42.7696 15.3221 42.7998C15.3981 42.8598 15.5654 43.0035 15.7029 43.122C17.3113 44.5069 18.3492 45.2455 19.225 45.1825L19.2427 45.181C19.9305 45.1235 20.5 44.6496 20.936 43.7719C21.1512 43.3388 21.2752 42.9254 21.3164 42.7777C21.3711 42.639 21.4268 42.515 21.481 42.3945C21.8301 41.6176 22.0177 41.0333 21.6775 39.4749C21.2674 37.5979 18.9854 37.6175 17.6219 37.6291C17.2524 37.6322 16.7471 37.6367 16.6012 37.5908C16.5428 37.5717 16.4772 37.549 16.4058 37.5243C15.7269 37.2914 14.59 36.9011 13.5006 36.9919V36.9924Z" fill="#F7EEDF"/>
<path d="M33.3295 52.8503C31.8988 52.9698 30.9339 51.6499 30.1591 50.5892C29.8762 50.202 29.6089 49.8365 29.3604 49.5934C28.2147 48.4712 26.6751 47.663 24.7848 47.1906C24.6061 47.1457 24.3951 47.1039 24.1716 47.059C23.0009 46.8251 21.3982 46.5044 21.071 45.1573C20.9079 44.4837 21.2164 43.847 21.4889 43.2854C21.6181 43.0186 21.7405 42.7671 21.7989 42.5412C21.827 42.4323 21.8536 42.3083 21.8822 42.1767C22.0573 41.3615 22.3225 40.1288 23.4922 40.0315C23.5219 40.029 23.5516 40.0274 23.5823 40.0264C24.5613 39.9997 25.3111 40.8659 25.9722 41.6307C26.2635 41.967 26.5381 42.2846 26.7767 42.4585C27.7645 43.1785 28.8352 43.4996 29.969 43.8394C30.3358 43.9493 30.7145 44.0633 31.0991 44.1923C31.7118 44.399 32.3776 44.5231 33.0216 44.6436C33.8672 44.8019 34.742 44.9652 35.5402 45.3171C36.0659 45.549 36.7787 45.9342 36.8938 46.6007C36.9913 47.1629 36.6672 47.7507 35.844 48.5065C35.1463 49.1468 34.9937 49.3131 34.852 50.1969C34.8254 50.3613 34.8145 50.5534 34.8025 50.7566C34.766 51.3883 34.7243 52.1037 34.1918 52.5347C34.011 52.6809 33.7891 52.7783 33.5317 52.8236C33.4645 52.8357 33.3962 52.8443 33.3295 52.8498V52.8503Z" fill="#2E2F42"/>
<path d="M23.5292 40.4444C23.5505 40.4424 23.5724 40.4414 23.5943 40.4409C24.7572 40.4091 25.6924 42.1868 26.5198 42.7898C27.8969 43.7936 29.3839 44.0532 30.9589 44.5841C32.4073 45.0721 34.0131 45.0988 35.3631 45.6943C36.7136 46.2897 36.9204 46.9476 35.5496 48.206C34.791 48.9028 34.5878 49.1427 34.4289 50.1334C34.3195 50.8166 34.4523 51.7845 33.9173 52.2171C33.799 52.3129 33.6479 52.3825 33.4541 52.4168C33.3994 52.4264 33.3457 52.4334 33.2926 52.4379C31.6378 52.5761 30.6291 50.2469 29.6647 49.3026C28.3632 48.028 26.6683 47.234 24.8911 46.7898C23.797 46.5165 21.8067 46.3799 21.4873 45.063C21.2888 44.2448 22.0161 43.4008 22.2136 42.6431C22.4053 41.907 22.5194 40.5286 23.5286 40.4444H23.5292ZM23.4557 39.6191C21.9682 39.7431 21.64 41.2712 21.4633 42.092C21.4357 42.2211 21.4097 42.3426 21.3841 42.4404C21.3357 42.6269 21.2221 42.8614 21.1017 43.1094C20.8147 43.7013 20.4572 44.4384 20.6547 45.2521C21.0439 46.8569 22.8742 47.2224 24.0851 47.4649C24.3034 47.5087 24.5092 47.5496 24.678 47.5919C26.4927 48.0452 27.9656 48.8165 29.0561 49.8849C29.2797 50.1037 29.537 50.4561 29.8095 50.8287C30.6036 51.9151 31.6909 53.4029 33.3665 53.2633C33.4468 53.2567 33.5286 53.2461 33.6088 53.2315C33.9397 53.173 34.2283 53.0455 34.4669 52.8529C35.1416 52.3069 35.1911 51.4604 35.2302 50.7803C35.2417 50.5872 35.2521 50.4052 35.275 50.2605C35.3954 49.5108 35.4725 49.4185 36.1389 48.807C36.7698 48.2277 37.4743 47.4452 37.3164 46.5327C37.1674 45.6716 36.3332 45.2118 35.7184 44.9405C34.8738 44.568 33.974 44.4001 33.1039 44.2372C32.4459 44.1142 31.8243 43.9982 31.2408 43.8016C30.8495 43.67 30.4671 43.5551 30.0966 43.4442C28.9519 43.1008 27.9636 42.8049 27.0356 42.1283C26.8361 41.9826 26.5641 41.669 26.3015 41.3655C25.6138 40.5704 24.7577 39.5813 23.5714 39.6135C23.5323 39.6145 23.4943 39.6166 23.4567 39.6196L23.4557 39.6191Z" fill="#F7EEDF"/>
<path d="M18.7092 17.2125C18.5602 16.424 18.5352 13.5281 18.5503 12.4532C18.5571 11.9622 18.2653 11.6183 17.7881 11.5558C17.3186 11.4943 16.6673 11.6904 16.0374 11.88C15.6816 11.9869 15.3455 12.0882 15.098 12.1255C14.9928 12.1411 14.8927 12.1427 14.7927 12.1295C14.6051 12.1048 14.4462 12.0348 14.2779 11.9596C14.1149 11.887 13.9461 11.8124 13.7585 11.7877C13.45 11.7474 13.1708 11.8553 12.9061 12.1169C12.5758 12.4436 12.4127 12.8752 12.4346 13.3658C12.4638 14.0212 12.8248 14.7018 13.424 15.2337C14.0435 15.7832 14.3264 18.6035 14.268 19.8947C14.2498 20.294 14.0258 20.8062 13.8283 21.2584C13.5094 21.988 13.2083 22.6777 13.6704 23.14C13.8111 23.2806 14.0039 23.3653 14.2608 23.3986C15.0324 23.4994 16.2964 23.1057 16.4381 23.0608L16.4819 23.0467L16.5209 23.022C16.9784 22.7321 17.6099 22.5995 18.2215 22.471C18.8296 22.3434 19.4579 22.2113 19.9466 21.9169C20.1415 21.7994 20.2738 21.6108 20.3291 21.3714C20.488 20.6847 20.004 19.7223 19.3021 18.4371C19.0427 17.9617 18.7483 17.4233 18.7087 17.2125H18.7092Z" fill="#2E2F42"/>
<path d="M16.9966 6.01353C16.9919 5.96311 16.9867 5.90715 16.9815 5.84564C16.9023 4.9447 16.7179 2.83427 15.073 2.6195C14.9944 2.60941 14.9131 2.60387 14.8302 2.60336C14.4499 2.60084 14.117 2.75108 13.8669 3.03795C13.1645 3.84411 13.2505 5.53155 13.2969 6.43803C13.3037 6.57012 13.3115 6.71936 13.3099 6.77179C13.2964 6.83632 13.2385 7.02841 13.1869 7.19831C12.7232 8.73349 12.5122 9.72921 12.803 10.2757C12.9884 10.6241 13.3552 10.8359 13.894 10.9064C14.3717 10.969 14.8605 10.9034 14.9714 10.8873C15.1038 10.8817 15.2038 10.8822 15.2929 10.8832C15.8275 10.8878 15.9249 10.8162 16.8591 10.1336C17.9553 9.33294 17.4869 7.76197 17.1774 6.72238C17.092 6.43551 17.0112 6.16427 16.9966 6.01353Z" fill="#2E2F42"/>
<path d="M21.7014 31.2701C21.5879 30.7695 21.4524 30.2618 21.3216 29.7702C20.9809 28.4907 20.6287 27.1677 20.6396 25.8902C20.6407 25.7919 20.6568 25.6759 20.6745 25.5529C20.7438 25.0639 20.86 24.2446 19.8508 23.807C19.7086 23.7455 19.5533 23.7031 19.3881 23.6814C18.7983 23.6043 18.1564 23.7979 17.6411 23.9537C17.5677 23.9759 17.4963 23.9976 17.4275 24.0172C17.0753 24.1196 16.6668 24.1392 16.2344 24.1599C15.8342 24.1791 15.4206 24.1987 15.0324 24.2895C14.5348 24.4054 14.2347 24.6187 14.1154 24.9414C13.9586 25.3654 14.1925 25.7742 14.2691 25.9083C15.1679 27.4798 16.0969 29.1047 16.3996 30.7927C16.521 31.4688 16.5173 32.1721 16.3891 32.8829C16.2068 33.8938 16.2828 34.6289 16.622 35.1295C16.8674 35.492 17.2321 35.7073 17.7073 35.7693C18.2888 35.8454 19.0318 35.6916 19.9784 35.3004C20.1545 35.2278 20.5203 35.2449 20.8433 35.2606C21.4597 35.2898 22.0974 35.3206 22.4559 34.8971C22.6393 34.6803 22.7117 34.3884 22.6711 34.0289C22.6049 33.441 22.3626 32.9066 22.1276 32.3894C21.9515 32.0012 21.7848 31.6341 21.702 31.2691L21.7014 31.2701Z" fill="#2E2F42"/>
<path d="M37.8822 64.4975C37.8822 64.4975 35.944 66.5293 37.1867 67.341C38.4293 68.1527 39.4046 68.3206 39.9574 69.032C40.5102 69.7428 41.8847 69.5256 42.5318 69.7126C43.1789 69.8996 43.864 70.2591 44.643 68.6322C45.4219 67.0052 44.792 66.002 44.0349 65.0435C43.2784 64.0851 43.2305 63.0939 43.1794 61.7892C43.1284 60.4844 41.2141 53.8798 41.285 52.51C41.3559 51.1402 41.4319 49.6141 40.3628 48.9088C39.2937 48.2035 37.035 48.4636 36.314 50.7944C35.5929 53.1251 35.9195 52.9567 36.587 54.2827C37.2544 55.6091 38.9738 62.2142 37.8817 64.497L37.8822 64.4975Z" fill="#2E2F42"/>
<path d="M17.2936 88.6964C16.534 87.1491 16.2302 85.6265 18.5185 86.0142C20.2874 86.3137 21.3539 85.4234 22.9185 85.0054C24.7192 84.5244 26.4828 86.1221 28.2715 85.1798C30.006 84.2658 31.3789 81.1143 32.3183 82.2673C33.2577 83.4203 31.6425 86.0112 30.9475 87.4879C27.3342 95.1658 28.334 111.158 28.1657 116.001H19.8878C19.9941 116.001 19.8977 96.0446 19.8857 95.8863C19.7679 94.3334 19.5627 92.6722 18.8113 91.3044C18.5498 90.828 17.8152 89.7566 17.2941 88.6969L17.2936 88.6964Z" fill="#2E2F42"/>
<path d="M9.93265 116C10.4438 112.667 10.0556 90.2003 10.3708 88.5693C10.686 86.9389 9.93265 83.7672 9.93265 83.7672C9.93265 83.7672 10.3505 81.633 11.3535 82.3444C12.3564 83.0558 12.9415 83.5005 14.7807 83.7672C16.6199 84.0339 17.3718 84.0339 16.536 85.4566C15.7003 86.8794 14.1117 86.7014 14.1117 88.5688C14.1117 88.5688 13.9674 111.335 14.23 114.883L9.93265 115.999V116Z" fill="#2E2F42"/>
</svg>
